%TF.GenerationSoftware,KiCad,Pcbnew,5.1.10-88a1d61d58~90~ubuntu20.04.1*%
%TF.CreationDate,2021-12-07T12:23:46+00:00*%
%TF.ProjectId,nrf52840,6e726635-3238-4343-902e-6b696361645f,rev?*%
%TF.SameCoordinates,Original*%
%TF.FileFunction,Soldermask,Bot*%
%TF.FilePolarity,Negative*%
%FSLAX46Y46*%
G04 Gerber Fmt 4.6, Leading zero omitted, Abs format (unit mm)*
G04 Created by KiCad (PCBNEW 5.1.10-88a1d61d58~90~ubuntu20.04.1) date 2021-12-07 12:23:46*
%MOMM*%
%LPD*%
G01*
G04 APERTURE LIST*
%ADD10O,1.700000X1.700000*%
%ADD11R,1.700000X1.700000*%
%ADD12C,4.500000*%
%ADD13O,1.000000X1.000000*%
%ADD14R,1.000000X1.000000*%
G04 APERTURE END LIST*
D10*
%TO.C,J5*%
X183600000Y-106320000D03*
X183600000Y-103780000D03*
X183600000Y-101240000D03*
D11*
X183600000Y-98700000D03*
%TD*%
D12*
%TO.C,H4*%
X192500000Y-121500000D03*
%TD*%
%TO.C,H3*%
X192500000Y-73500000D03*
%TD*%
%TO.C,H2*%
X137500000Y-121500000D03*
%TD*%
%TO.C,H1*%
X137500000Y-73500000D03*
%TD*%
D13*
%TO.C,J4*%
X172210000Y-114520000D03*
X172210000Y-113250000D03*
X173480000Y-114520000D03*
X173480000Y-113250000D03*
X174750000Y-114520000D03*
X174750000Y-113250000D03*
X176020000Y-114520000D03*
X176020000Y-113250000D03*
X177290000Y-114520000D03*
D14*
X177290000Y-113250000D03*
%TD*%
D10*
%TO.C,J3*%
X187300000Y-106320000D03*
X187300000Y-103780000D03*
X187300000Y-101240000D03*
D11*
X187300000Y-98700000D03*
%TD*%
D10*
%TO.C,J2*%
X136400000Y-112680000D03*
X136400000Y-110140000D03*
X136400000Y-107600000D03*
X136400000Y-105060000D03*
X136400000Y-102520000D03*
X136400000Y-99980000D03*
X136400000Y-97440000D03*
X136400000Y-94900000D03*
X136400000Y-92360000D03*
X136400000Y-89820000D03*
X136400000Y-87280000D03*
X136400000Y-84740000D03*
D11*
X136400000Y-82200000D03*
%TD*%
D10*
%TO.C,J1*%
X193640000Y-112680000D03*
X191100000Y-112680000D03*
X193640000Y-110140000D03*
X191100000Y-110140000D03*
X193640000Y-107600000D03*
X191100000Y-107600000D03*
X193640000Y-105060000D03*
X191100000Y-105060000D03*
X193640000Y-102520000D03*
X191100000Y-102520000D03*
X193640000Y-99980000D03*
X191100000Y-99980000D03*
X193640000Y-97440000D03*
X191100000Y-97440000D03*
X193640000Y-94900000D03*
X191100000Y-94900000D03*
X193640000Y-92360000D03*
X191100000Y-92360000D03*
X193640000Y-89820000D03*
X191100000Y-89820000D03*
X193640000Y-87280000D03*
X191100000Y-87280000D03*
X193640000Y-84740000D03*
X191100000Y-84740000D03*
X193640000Y-82200000D03*
D11*
X191100000Y-82200000D03*
%TD*%
M02*
