M48
; DRILL file {KiCad 5.1.10-88a1d61d58~90~ubuntu20.04.1} date Tue Dec  7 12:23:43 2021
; FORMAT={-:-/ absolute / inch / decimal}
; #@! TF.CreationDate,2021-12-07T12:23:43+00:00
; #@! TF.GenerationSoftware,Kicad,Pcbnew,5.1.10-88a1d61d58~90~ubuntu20.04.1
; #@! TF.FileFunction,Plated,1,2,PTH
FMAT,2
INCH
T1C0.0157
T2C0.0256
T3C0.0394
T4C0.1063
%
G90
G05
T1
X5.4134Y-4.5433
X5.4173Y-3.126
X5.4213Y-3.0472
X5.4331Y-3.4016
X5.4764Y-3.2402
X5.4921Y-4.4488
X5.4961Y-4.189
X5.5Y-4.063
X5.5Y-4.3346
X5.5433Y-4.5709
X5.563Y-3.7953
X5.6004Y-4.4685
X5.6102Y-4.5276
X5.6201Y-4.2421
X5.6693Y-3.9252
X5.8543Y-4.0394
X5.8622Y-4.0866
X5.8976Y-4.1654
X5.8976Y-4.4331
X5.9134Y-3.8701
X5.9606Y-3.7874
X5.9724Y-4.0472
X5.9882Y-4.3465
X5.9882Y-4.4764
X6.0787Y-4.4173
X6.0866Y-4.1417
X6.1654Y-4.0472
X6.1929Y-4.4803
X6.2165Y-4.3583
X6.2677Y-4.1693
X6.3071Y-4.4449
X6.3622Y-4.0394
X6.6102Y-4.4921
X6.6732Y-3.7874
X6.6732Y-4.3583
X6.7992Y-4.374
X6.8543Y-3.9843
X6.9094Y-4.5571
X7.0551Y-4.1693
X7.0709Y-4.0118
X7.0827Y-4.3189
X7.1063Y-4.1929
X7.1102Y-3.7992
X7.1161Y-4.6949
X7.2165Y-4.374
X7.2244Y-4.5315
X7.3189Y-3.7953
X7.3622Y-4.2835
X7.3701Y-4.4606
X7.3937Y-4.6496
X7.5276Y-3.0315
X7.5669Y-4.6024
X7.6024Y-3.1417
T2
X6.7799Y-4.4587
X6.7799Y-4.5087
X6.8299Y-4.4587
X6.8299Y-4.5087
X6.8799Y-4.4587
X6.8799Y-4.5087
X6.9299Y-4.4587
X6.9299Y-4.5087
X6.9799Y-4.4587
X6.9799Y-4.5087
T3
X5.3701Y-3.2362
X5.3701Y-3.3362
X5.3701Y-3.4362
X5.3701Y-3.5362
X5.3701Y-3.6362
X5.3701Y-3.7362
X5.3701Y-3.8362
X5.3701Y-3.9362
X5.3701Y-4.0362
X5.3701Y-4.1362
X5.3701Y-4.2362
X5.3701Y-4.3362
X5.3701Y-4.4362
X7.2283Y-3.8858
X7.2283Y-3.9858
X7.2283Y-4.0858
X7.2283Y-4.1858
X7.374Y-3.8858
X7.374Y-3.9858
X7.374Y-4.0858
X7.374Y-4.1858
X7.5236Y-3.2362
X7.5236Y-3.3362
X7.5236Y-3.4362
X7.5236Y-3.5362
X7.5236Y-3.6362
X7.5236Y-3.7362
X7.5236Y-3.8362
X7.5236Y-3.9362
X7.5236Y-4.0362
X7.5236Y-4.1362
X7.5236Y-4.2362
X7.5236Y-4.3362
X7.5236Y-4.4362
X7.6236Y-3.2362
X7.6236Y-3.3362
X7.6236Y-3.4362
X7.6236Y-3.5362
X7.6236Y-3.6362
X7.6236Y-3.7362
X7.6236Y-3.8362
X7.6236Y-3.9362
X7.6236Y-4.0362
X7.6236Y-4.1362
X7.6236Y-4.2362
X7.6236Y-4.3362
X7.6236Y-4.4362
T4
X5.4134Y-2.8937
X5.4134Y-4.7835
X7.5787Y-2.8937
X7.5787Y-4.7835
T0
M30
