%TF.GenerationSoftware,KiCad,Pcbnew,5.1.10-88a1d61d58~90~ubuntu20.04.1*%
%TF.CreationDate,2021-12-07T12:23:46+00:00*%
%TF.ProjectId,nrf52840,6e726635-3238-4343-902e-6b696361645f,rev?*%
%TF.SameCoordinates,Original*%
%TF.FileFunction,Copper,L1,Top*%
%TF.FilePolarity,Positive*%
%FSLAX46Y46*%
G04 Gerber Fmt 4.6, Leading zero omitted, Abs format (unit mm)*
G04 Created by KiCad (PCBNEW 5.1.10-88a1d61d58~90~ubuntu20.04.1) date 2021-12-07 12:23:46*
%MOMM*%
%LPD*%
G01*
G04 APERTURE LIST*
%TA.AperFunction,ComponentPad*%
%ADD10O,1.700000X1.700000*%
%TD*%
%TA.AperFunction,ComponentPad*%
%ADD11R,1.700000X1.700000*%
%TD*%
%TA.AperFunction,ComponentPad*%
%ADD12C,4.500000*%
%TD*%
%TA.AperFunction,SMDPad,CuDef*%
%ADD13R,1.500000X1.000000*%
%TD*%
%TA.AperFunction,ComponentPad*%
%ADD14O,1.000000X1.000000*%
%TD*%
%TA.AperFunction,ComponentPad*%
%ADD15R,1.000000X1.000000*%
%TD*%
%TA.AperFunction,SMDPad,CuDef*%
%ADD16R,1.400000X1.050000*%
%TD*%
%TA.AperFunction,SMDPad,CuDef*%
%ADD17C,1.000000*%
%TD*%
%TA.AperFunction,SMDPad,CuDef*%
%ADD18R,3.000000X0.800000*%
%TD*%
%TA.AperFunction,ViaPad*%
%ADD19C,0.800000*%
%TD*%
%TA.AperFunction,Conductor*%
%ADD20C,0.250000*%
%TD*%
%TA.AperFunction,Conductor*%
%ADD21C,0.254000*%
%TD*%
%TA.AperFunction,Conductor*%
%ADD22C,0.100000*%
%TD*%
G04 APERTURE END LIST*
%TO.P,R8,2*%
%TO.N,Net-(C2-Pad1)*%
%TA.AperFunction,SMDPad,CuDef*%
G36*
G01*
X168650001Y-100900000D02*
X167749999Y-100900000D01*
G75*
G02*
X167500000Y-100650001I0J249999D01*
G01*
X167500000Y-100124999D01*
G75*
G02*
X167749999Y-99875000I249999J0D01*
G01*
X168650001Y-99875000D01*
G75*
G02*
X168900000Y-100124999I0J-249999D01*
G01*
X168900000Y-100650001D01*
G75*
G02*
X168650001Y-100900000I-249999J0D01*
G01*
G37*
%TD.AperFunction*%
%TO.P,R8,1*%
%TO.N,VDDF*%
%TA.AperFunction,SMDPad,CuDef*%
G36*
G01*
X168650001Y-102725000D02*
X167749999Y-102725000D01*
G75*
G02*
X167500000Y-102475001I0J249999D01*
G01*
X167500000Y-101949999D01*
G75*
G02*
X167749999Y-101700000I249999J0D01*
G01*
X168650001Y-101700000D01*
G75*
G02*
X168900000Y-101949999I0J-249999D01*
G01*
X168900000Y-102475001D01*
G75*
G02*
X168650001Y-102725000I-249999J0D01*
G01*
G37*
%TD.AperFunction*%
%TD*%
%TO.P,R7,2*%
%TO.N,+5V*%
%TA.AperFunction,SMDPad,CuDef*%
G36*
G01*
X178250001Y-99200000D02*
X177349999Y-99200000D01*
G75*
G02*
X177100000Y-98950001I0J249999D01*
G01*
X177100000Y-98424999D01*
G75*
G02*
X177349999Y-98175000I249999J0D01*
G01*
X178250001Y-98175000D01*
G75*
G02*
X178500000Y-98424999I0J-249999D01*
G01*
X178500000Y-98950001D01*
G75*
G02*
X178250001Y-99200000I-249999J0D01*
G01*
G37*
%TD.AperFunction*%
%TO.P,R7,1*%
%TO.N,VDD*%
%TA.AperFunction,SMDPad,CuDef*%
G36*
G01*
X178250001Y-101025000D02*
X177349999Y-101025000D01*
G75*
G02*
X177100000Y-100775001I0J249999D01*
G01*
X177100000Y-100249999D01*
G75*
G02*
X177349999Y-100000000I249999J0D01*
G01*
X178250001Y-100000000D01*
G75*
G02*
X178500000Y-100249999I0J-249999D01*
G01*
X178500000Y-100775001D01*
G75*
G02*
X178250001Y-101025000I-249999J0D01*
G01*
G37*
%TD.AperFunction*%
%TD*%
%TO.P,R6,2*%
%TO.N,VDDF*%
%TA.AperFunction,SMDPad,CuDef*%
G36*
G01*
X175349999Y-101700000D02*
X176250001Y-101700000D01*
G75*
G02*
X176500000Y-101949999I0J-249999D01*
G01*
X176500000Y-102475001D01*
G75*
G02*
X176250001Y-102725000I-249999J0D01*
G01*
X175349999Y-102725000D01*
G75*
G02*
X175100000Y-102475001I0J249999D01*
G01*
X175100000Y-101949999D01*
G75*
G02*
X175349999Y-101700000I249999J0D01*
G01*
G37*
%TD.AperFunction*%
%TO.P,R6,1*%
%TO.N,VDD*%
%TA.AperFunction,SMDPad,CuDef*%
G36*
G01*
X175349999Y-99875000D02*
X176250001Y-99875000D01*
G75*
G02*
X176500000Y-100124999I0J-249999D01*
G01*
X176500000Y-100650001D01*
G75*
G02*
X176250001Y-100900000I-249999J0D01*
G01*
X175349999Y-100900000D01*
G75*
G02*
X175100000Y-100650001I0J249999D01*
G01*
X175100000Y-100124999D01*
G75*
G02*
X175349999Y-99875000I249999J0D01*
G01*
G37*
%TD.AperFunction*%
%TD*%
D10*
%TO.P,J5,4*%
%TO.N,GND*%
X183600000Y-106320000D03*
%TO.P,J5,3*%
%TO.N,/USB2_DP*%
X183600000Y-103780000D03*
%TO.P,J5,2*%
%TO.N,/USB2_DM*%
X183600000Y-101240000D03*
D11*
%TO.P,J5,1*%
%TO.N,+5V*%
X183600000Y-98700000D03*
%TD*%
D12*
%TO.P,H4,1*%
%TO.N,N/C*%
X192500000Y-121500000D03*
%TD*%
%TO.P,H3,1*%
%TO.N,N/C*%
X192500000Y-73500000D03*
%TD*%
%TO.P,H2,1*%
%TO.N,N/C*%
X137500000Y-121500000D03*
%TD*%
%TO.P,H1,1*%
%TO.N,N/C*%
X137500000Y-73500000D03*
%TD*%
%TO.P,R5,2*%
%TO.N,Net-(D4-Pad2)*%
%TA.AperFunction,SMDPad,CuDef*%
G36*
G01*
X175600000Y-109799999D02*
X175600000Y-110700001D01*
G75*
G02*
X175350001Y-110950000I-249999J0D01*
G01*
X174824999Y-110950000D01*
G75*
G02*
X174575000Y-110700001I0J249999D01*
G01*
X174575000Y-109799999D01*
G75*
G02*
X174824999Y-109550000I249999J0D01*
G01*
X175350001Y-109550000D01*
G75*
G02*
X175600000Y-109799999I0J-249999D01*
G01*
G37*
%TD.AperFunction*%
%TO.P,R5,1*%
%TO.N,VDD*%
%TA.AperFunction,SMDPad,CuDef*%
G36*
G01*
X177425000Y-109799999D02*
X177425000Y-110700001D01*
G75*
G02*
X177175001Y-110950000I-249999J0D01*
G01*
X176649999Y-110950000D01*
G75*
G02*
X176400000Y-110700001I0J249999D01*
G01*
X176400000Y-109799999D01*
G75*
G02*
X176649999Y-109550000I249999J0D01*
G01*
X177175001Y-109550000D01*
G75*
G02*
X177425000Y-109799999I0J-249999D01*
G01*
G37*
%TD.AperFunction*%
%TD*%
%TO.P,R4,2*%
%TO.N,Net-(D3-Pad2)*%
%TA.AperFunction,SMDPad,CuDef*%
G36*
G01*
X175600000Y-107799999D02*
X175600000Y-108700001D01*
G75*
G02*
X175350001Y-108950000I-249999J0D01*
G01*
X174824999Y-108950000D01*
G75*
G02*
X174575000Y-108700001I0J249999D01*
G01*
X174575000Y-107799999D01*
G75*
G02*
X174824999Y-107550000I249999J0D01*
G01*
X175350001Y-107550000D01*
G75*
G02*
X175600000Y-107799999I0J-249999D01*
G01*
G37*
%TD.AperFunction*%
%TO.P,R4,1*%
%TO.N,VDD*%
%TA.AperFunction,SMDPad,CuDef*%
G36*
G01*
X177425000Y-107799999D02*
X177425000Y-108700001D01*
G75*
G02*
X177175001Y-108950000I-249999J0D01*
G01*
X176649999Y-108950000D01*
G75*
G02*
X176400000Y-108700001I0J249999D01*
G01*
X176400000Y-107799999D01*
G75*
G02*
X176649999Y-107550000I249999J0D01*
G01*
X177175001Y-107550000D01*
G75*
G02*
X177425000Y-107799999I0J-249999D01*
G01*
G37*
%TD.AperFunction*%
%TD*%
%TO.P,R3,2*%
%TO.N,Net-(D2-Pad2)*%
%TA.AperFunction,SMDPad,CuDef*%
G36*
G01*
X175600000Y-105799999D02*
X175600000Y-106700001D01*
G75*
G02*
X175350001Y-106950000I-249999J0D01*
G01*
X174824999Y-106950000D01*
G75*
G02*
X174575000Y-106700001I0J249999D01*
G01*
X174575000Y-105799999D01*
G75*
G02*
X174824999Y-105550000I249999J0D01*
G01*
X175350001Y-105550000D01*
G75*
G02*
X175600000Y-105799999I0J-249999D01*
G01*
G37*
%TD.AperFunction*%
%TO.P,R3,1*%
%TO.N,VDD*%
%TA.AperFunction,SMDPad,CuDef*%
G36*
G01*
X177425000Y-105799999D02*
X177425000Y-106700001D01*
G75*
G02*
X177175001Y-106950000I-249999J0D01*
G01*
X176649999Y-106950000D01*
G75*
G02*
X176400000Y-106700001I0J249999D01*
G01*
X176400000Y-105799999D01*
G75*
G02*
X176649999Y-105550000I249999J0D01*
G01*
X177175001Y-105550000D01*
G75*
G02*
X177425000Y-105799999I0J-249999D01*
G01*
G37*
%TD.AperFunction*%
%TD*%
%TO.P,R2,2*%
%TO.N,Net-(D1-Pad2)*%
%TA.AperFunction,SMDPad,CuDef*%
G36*
G01*
X175600000Y-103799999D02*
X175600000Y-104700001D01*
G75*
G02*
X175350001Y-104950000I-249999J0D01*
G01*
X174824999Y-104950000D01*
G75*
G02*
X174575000Y-104700001I0J249999D01*
G01*
X174575000Y-103799999D01*
G75*
G02*
X174824999Y-103550000I249999J0D01*
G01*
X175350001Y-103550000D01*
G75*
G02*
X175600000Y-103799999I0J-249999D01*
G01*
G37*
%TD.AperFunction*%
%TO.P,R2,1*%
%TO.N,VDD*%
%TA.AperFunction,SMDPad,CuDef*%
G36*
G01*
X177425000Y-103799999D02*
X177425000Y-104700001D01*
G75*
G02*
X177175001Y-104950000I-249999J0D01*
G01*
X176649999Y-104950000D01*
G75*
G02*
X176400000Y-104700001I0J249999D01*
G01*
X176400000Y-103799999D01*
G75*
G02*
X176649999Y-103550000I249999J0D01*
G01*
X177175001Y-103550000D01*
G75*
G02*
X177425000Y-103799999I0J-249999D01*
G01*
G37*
%TD.AperFunction*%
%TD*%
D13*
%TO.P,D4,1*%
%TO.N,Net-(D4-Pad1)*%
X170250000Y-109000000D03*
%TO.P,D4,2*%
%TO.N,Net-(D4-Pad2)*%
X172750000Y-109000000D03*
%TD*%
%TO.P,D3,1*%
%TO.N,Net-(D3-Pad1)*%
X170250000Y-107500000D03*
%TO.P,D3,2*%
%TO.N,Net-(D3-Pad2)*%
X172750000Y-107500000D03*
%TD*%
%TO.P,D2,1*%
%TO.N,Net-(D2-Pad1)*%
X170250000Y-106000000D03*
%TO.P,D2,2*%
%TO.N,Net-(D2-Pad2)*%
X172750000Y-106000000D03*
%TD*%
%TO.P,D1,1*%
%TO.N,Net-(D1-Pad1)*%
X170250000Y-104500000D03*
%TO.P,D1,2*%
%TO.N,Net-(D1-Pad2)*%
X172750000Y-104500000D03*
%TD*%
%TO.P,C3,2*%
%TO.N,GND*%
%TA.AperFunction,SMDPad,CuDef*%
G36*
G01*
X183950000Y-119725000D02*
X183950000Y-118775000D01*
G75*
G02*
X184200000Y-118525000I250000J0D01*
G01*
X184700000Y-118525000D01*
G75*
G02*
X184950000Y-118775000I0J-250000D01*
G01*
X184950000Y-119725000D01*
G75*
G02*
X184700000Y-119975000I-250000J0D01*
G01*
X184200000Y-119975000D01*
G75*
G02*
X183950000Y-119725000I0J250000D01*
G01*
G37*
%TD.AperFunction*%
%TO.P,C3,1*%
%TO.N,Net-(C3-Pad1)*%
%TA.AperFunction,SMDPad,CuDef*%
G36*
G01*
X182050000Y-119725000D02*
X182050000Y-118775000D01*
G75*
G02*
X182300000Y-118525000I250000J0D01*
G01*
X182800000Y-118525000D01*
G75*
G02*
X183050000Y-118775000I0J-250000D01*
G01*
X183050000Y-119725000D01*
G75*
G02*
X182800000Y-119975000I-250000J0D01*
G01*
X182300000Y-119975000D01*
G75*
G02*
X182050000Y-119725000I0J250000D01*
G01*
G37*
%TD.AperFunction*%
%TD*%
%TO.P,R1,2*%
%TO.N,Net-(C3-Pad1)*%
%TA.AperFunction,SMDPad,CuDef*%
G36*
G01*
X181987500Y-121950001D02*
X181987500Y-121049999D01*
G75*
G02*
X182237499Y-120800000I249999J0D01*
G01*
X182762501Y-120800000D01*
G75*
G02*
X183012500Y-121049999I0J-249999D01*
G01*
X183012500Y-121950001D01*
G75*
G02*
X182762501Y-122200000I-249999J0D01*
G01*
X182237499Y-122200000D01*
G75*
G02*
X181987500Y-121950001I0J249999D01*
G01*
G37*
%TD.AperFunction*%
%TO.P,R1,1*%
%TO.N,VDD*%
%TA.AperFunction,SMDPad,CuDef*%
G36*
G01*
X180162500Y-121950001D02*
X180162500Y-121049999D01*
G75*
G02*
X180412499Y-120800000I249999J0D01*
G01*
X180937501Y-120800000D01*
G75*
G02*
X181187500Y-121049999I0J-249999D01*
G01*
X181187500Y-121950001D01*
G75*
G02*
X180937501Y-122200000I-249999J0D01*
G01*
X180412499Y-122200000D01*
G75*
G02*
X180162500Y-121950001I0J249999D01*
G01*
G37*
%TD.AperFunction*%
%TD*%
%TO.P,FB1,2*%
%TO.N,Net-(C2-Pad1)*%
%TA.AperFunction,SMDPad,CuDef*%
G36*
G01*
X143675000Y-98337500D02*
X143675000Y-97862500D01*
G75*
G02*
X143912500Y-97625000I237500J0D01*
G01*
X144412500Y-97625000D01*
G75*
G02*
X144650000Y-97862500I0J-237500D01*
G01*
X144650000Y-98337500D01*
G75*
G02*
X144412500Y-98575000I-237500J0D01*
G01*
X143912500Y-98575000D01*
G75*
G02*
X143675000Y-98337500I0J237500D01*
G01*
G37*
%TD.AperFunction*%
%TO.P,FB1,1*%
%TO.N,+5V*%
%TA.AperFunction,SMDPad,CuDef*%
G36*
G01*
X141850000Y-98337500D02*
X141850000Y-97862500D01*
G75*
G02*
X142087500Y-97625000I237500J0D01*
G01*
X142587500Y-97625000D01*
G75*
G02*
X142825000Y-97862500I0J-237500D01*
G01*
X142825000Y-98337500D01*
G75*
G02*
X142587500Y-98575000I-237500J0D01*
G01*
X142087500Y-98575000D01*
G75*
G02*
X141850000Y-98337500I0J237500D01*
G01*
G37*
%TD.AperFunction*%
%TD*%
%TO.P,C2,2*%
%TO.N,GND*%
%TA.AperFunction,SMDPad,CuDef*%
G36*
G01*
X147950000Y-98675000D02*
X147950000Y-97725000D01*
G75*
G02*
X148200000Y-97475000I250000J0D01*
G01*
X148700000Y-97475000D01*
G75*
G02*
X148950000Y-97725000I0J-250000D01*
G01*
X148950000Y-98675000D01*
G75*
G02*
X148700000Y-98925000I-250000J0D01*
G01*
X148200000Y-98925000D01*
G75*
G02*
X147950000Y-98675000I0J250000D01*
G01*
G37*
%TD.AperFunction*%
%TO.P,C2,1*%
%TO.N,Net-(C2-Pad1)*%
%TA.AperFunction,SMDPad,CuDef*%
G36*
G01*
X146050000Y-98675000D02*
X146050000Y-97725000D01*
G75*
G02*
X146300000Y-97475000I250000J0D01*
G01*
X146800000Y-97475000D01*
G75*
G02*
X147050000Y-97725000I0J-250000D01*
G01*
X147050000Y-98675000D01*
G75*
G02*
X146800000Y-98925000I-250000J0D01*
G01*
X146300000Y-98925000D01*
G75*
G02*
X146050000Y-98675000I0J250000D01*
G01*
G37*
%TD.AperFunction*%
%TD*%
%TO.P,C1,2*%
%TO.N,GND*%
%TA.AperFunction,SMDPad,CuDef*%
G36*
G01*
X170875000Y-100750000D02*
X169925000Y-100750000D01*
G75*
G02*
X169675000Y-100500000I0J250000D01*
G01*
X169675000Y-100000000D01*
G75*
G02*
X169925000Y-99750000I250000J0D01*
G01*
X170875000Y-99750000D01*
G75*
G02*
X171125000Y-100000000I0J-250000D01*
G01*
X171125000Y-100500000D01*
G75*
G02*
X170875000Y-100750000I-250000J0D01*
G01*
G37*
%TD.AperFunction*%
%TO.P,C1,1*%
%TO.N,VDDF*%
%TA.AperFunction,SMDPad,CuDef*%
G36*
G01*
X170875000Y-102650000D02*
X169925000Y-102650000D01*
G75*
G02*
X169675000Y-102400000I0J250000D01*
G01*
X169675000Y-101900000D01*
G75*
G02*
X169925000Y-101650000I250000J0D01*
G01*
X170875000Y-101650000D01*
G75*
G02*
X171125000Y-101900000I0J-250000D01*
G01*
X171125000Y-102400000D01*
G75*
G02*
X170875000Y-102650000I-250000J0D01*
G01*
G37*
%TD.AperFunction*%
%TD*%
D14*
%TO.P,J4,10*%
%TO.N,Net-(C3-Pad1)*%
X172210000Y-114520000D03*
%TO.P,J4,9*%
%TO.N,GND*%
X172210000Y-113250000D03*
%TO.P,J4,8*%
%TO.N,N/C*%
X173480000Y-114520000D03*
%TO.P,J4,7*%
X173480000Y-113250000D03*
%TO.P,J4,6*%
X174750000Y-114520000D03*
%TO.P,J4,5*%
%TO.N,GND*%
X174750000Y-113250000D03*
%TO.P,J4,4*%
%TO.N,/SWDCLK*%
X176020000Y-114520000D03*
%TO.P,J4,3*%
%TO.N,GND*%
X176020000Y-113250000D03*
%TO.P,J4,2*%
%TO.N,/SWDIO*%
X177290000Y-114520000D03*
D15*
%TO.P,J4,1*%
%TO.N,VDD*%
X177290000Y-113250000D03*
%TD*%
D16*
%TO.P,SW1,1*%
%TO.N,GND*%
X184200000Y-121450000D03*
%TO.P,SW1,1'*%
X187800000Y-121450000D03*
%TO.P,SW1,2*%
%TO.N,Net-(C3-Pad1)*%
X184200000Y-122900000D03*
%TO.P,SW1,2'*%
X187800000Y-122900000D03*
%TD*%
D10*
%TO.P,J3,4*%
%TO.N,GND*%
X187300000Y-106320000D03*
%TO.P,J3,3*%
%TO.N,/USB3_DP*%
X187300000Y-103780000D03*
%TO.P,J3,2*%
%TO.N,/USB3_DM*%
X187300000Y-101240000D03*
D11*
%TO.P,J3,1*%
%TO.N,+5V*%
X187300000Y-98700000D03*
%TD*%
D17*
%TO.P,TP1,1*%
%TO.N,VDDF*%
X172700000Y-102250000D03*
%TD*%
D18*
%TO.P,U1,28*%
%TO.N,N/C*%
X145500000Y-116550000D03*
%TO.P,U1,27*%
X145500000Y-115450000D03*
%TO.P,U1,26*%
%TO.N,/SWDCLK*%
X145500000Y-114350000D03*
%TO.P,U1,25*%
%TO.N,/SWDIO*%
X145500000Y-113250000D03*
%TO.P,U1,24*%
%TO.N,N/C*%
X145500000Y-112150000D03*
%TO.P,U1,23*%
X145500000Y-111050000D03*
%TO.P,U1,22*%
X145500000Y-109950000D03*
%TO.P,U1,21*%
X145500000Y-108850000D03*
%TO.P,U1,20*%
%TO.N,Net-(C3-Pad1)*%
X145500000Y-107750000D03*
%TO.P,U1,19*%
%TO.N,N/C*%
X145500000Y-106650000D03*
%TO.P,U1,18*%
X145500000Y-105550000D03*
%TO.P,U1,17*%
%TO.N,/USB2_DP*%
X145500000Y-104450000D03*
%TO.P,U1,16*%
%TO.N,/USB2_DM*%
X145500000Y-103350000D03*
%TO.P,U1,15*%
%TO.N,Net-(C2-Pad1)*%
X145500000Y-102250000D03*
%TO.P,U1,14*%
%TO.N,VDDF*%
X164730000Y-102250000D03*
%TO.P,U1,13*%
%TO.N,GND*%
X164730000Y-103350000D03*
%TO.P,U1,12*%
%TO.N,Net-(D1-Pad1)*%
X164730000Y-104450000D03*
%TO.P,U1,11*%
%TO.N,Net-(D2-Pad1)*%
X164730000Y-105550000D03*
%TO.P,U1,10*%
%TO.N,Net-(D3-Pad1)*%
X164730000Y-106650000D03*
%TO.P,U1,9*%
%TO.N,Net-(D4-Pad1)*%
X164730000Y-107750000D03*
%TO.P,U1,8*%
%TO.N,N/C*%
X164730000Y-108850000D03*
%TO.P,U1,7*%
X164730000Y-109950000D03*
%TO.P,U1,6*%
X164730000Y-111050000D03*
%TO.P,U1,5*%
X164730000Y-112150000D03*
%TO.P,U1,4*%
X164730000Y-113250000D03*
%TO.P,U1,3*%
X164730000Y-114350000D03*
%TO.P,U1,2*%
X164730000Y-115450000D03*
%TO.P,U1,1*%
%TO.N,GND*%
X164730000Y-116550000D03*
%TD*%
D10*
%TO.P,J2,13*%
%TO.N,N/C*%
X136400000Y-112680000D03*
%TO.P,J2,12*%
X136400000Y-110140000D03*
%TO.P,J2,11*%
X136400000Y-107600000D03*
%TO.P,J2,10*%
X136400000Y-105060000D03*
%TO.P,J2,9*%
X136400000Y-102520000D03*
%TO.P,J2,8*%
X136400000Y-99980000D03*
%TO.P,J2,7*%
X136400000Y-97440000D03*
%TO.P,J2,6*%
%TO.N,/USB3_DP*%
X136400000Y-94900000D03*
%TO.P,J2,5*%
%TO.N,/USB3_DM*%
X136400000Y-92360000D03*
%TO.P,J2,4*%
%TO.N,/USB2_DP*%
X136400000Y-89820000D03*
%TO.P,J2,3*%
%TO.N,/USB2_DM*%
X136400000Y-87280000D03*
%TO.P,J2,2*%
%TO.N,GND*%
X136400000Y-84740000D03*
D11*
%TO.P,J2,1*%
%TO.N,+5V*%
X136400000Y-82200000D03*
%TD*%
D10*
%TO.P,J1,26*%
%TO.N,N/C*%
X193640000Y-112680000D03*
%TO.P,J1,25*%
%TO.N,GND*%
X191100000Y-112680000D03*
%TO.P,J1,24*%
%TO.N,N/C*%
X193640000Y-110140000D03*
%TO.P,J1,23*%
X191100000Y-110140000D03*
%TO.P,J1,22*%
X193640000Y-107600000D03*
%TO.P,J1,21*%
X191100000Y-107600000D03*
%TO.P,J1,20*%
%TO.N,GND*%
X193640000Y-105060000D03*
%TO.P,J1,19*%
%TO.N,N/C*%
X191100000Y-105060000D03*
%TO.P,J1,18*%
X193640000Y-102520000D03*
%TO.P,J1,17*%
%TO.N,+3V3*%
X191100000Y-102520000D03*
%TO.P,J1,16*%
%TO.N,N/C*%
X193640000Y-99980000D03*
%TO.P,J1,15*%
X191100000Y-99980000D03*
%TO.P,J1,14*%
%TO.N,GND*%
X193640000Y-97440000D03*
%TO.P,J1,13*%
%TO.N,N/C*%
X191100000Y-97440000D03*
%TO.P,J1,12*%
X193640000Y-94900000D03*
%TO.P,J1,11*%
X191100000Y-94900000D03*
%TO.P,J1,10*%
X193640000Y-92360000D03*
%TO.P,J1,9*%
%TO.N,GND*%
X191100000Y-92360000D03*
%TO.P,J1,8*%
%TO.N,N/C*%
X193640000Y-89820000D03*
%TO.P,J1,7*%
X191100000Y-89820000D03*
%TO.P,J1,6*%
%TO.N,GND*%
X193640000Y-87280000D03*
%TO.P,J1,5*%
%TO.N,N/C*%
X191100000Y-87280000D03*
%TO.P,J1,4*%
%TO.N,+5V*%
X193640000Y-84740000D03*
%TO.P,J1,3*%
%TO.N,N/C*%
X191100000Y-84740000D03*
%TO.P,J1,2*%
%TO.N,+5V*%
X193640000Y-82200000D03*
D11*
%TO.P,J1,1*%
%TO.N,+3V3*%
X191100000Y-82200000D03*
%TD*%
D19*
%TO.N,*%
X191200000Y-77000000D03*
X193100000Y-79800000D03*
%TO.N,GND*%
X151400000Y-96200000D03*
X141300000Y-96400000D03*
X139700000Y-103200000D03*
X139600000Y-106400000D03*
X139700000Y-110100000D03*
X149800000Y-112600000D03*
X152100000Y-110400000D03*
X154400000Y-112200000D03*
X157900000Y-110700000D03*
X160200000Y-112900000D03*
X159200000Y-105900000D03*
X156600000Y-102800000D03*
X154600000Y-105200000D03*
X151700000Y-102800000D03*
X149800000Y-105800000D03*
X144000000Y-99700000D03*
X161600000Y-102600000D03*
X157300000Y-113800000D03*
X152100000Y-113700000D03*
X140800000Y-116100000D03*
X137500000Y-115400000D03*
X139500000Y-113000000D03*
X180600000Y-96500000D03*
X174100000Y-101200000D03*
X169500000Y-96200000D03*
X185900000Y-96400000D03*
X179600000Y-101900000D03*
X187000000Y-108800000D03*
X179900000Y-109700000D03*
X183300000Y-111100000D03*
X192200000Y-116900000D03*
X187800000Y-118100000D03*
X183500000Y-115100000D03*
X187200000Y-113300000D03*
X172700000Y-111100000D03*
X169500000Y-110700000D03*
X167900000Y-114100000D03*
X137700000Y-77400000D03*
X137600000Y-79400000D03*
X139100000Y-82300000D03*
X138000000Y-86400000D03*
X150200000Y-98300000D03*
%TO.N,VDD*%
X180750000Y-119250000D03*
%TO.N,/USB2_DP*%
X148900000Y-103800000D03*
X180500000Y-106500000D03*
%TO.N,/USB2_DM*%
X148700000Y-102600000D03*
X179200000Y-105900000D03*
%TO.N,/SWDIO*%
X142250000Y-113500000D03*
X175500000Y-115750000D03*
%TO.N,/SWDCLK*%
X142500000Y-115000000D03*
%TO.N,Net-(C3-Pad1)*%
X142750000Y-107750000D03*
%TD*%
D20*
%TO.N,GND*%
X193640000Y-105060000D02*
X192400000Y-106300000D01*
X183070000Y-106300000D02*
X183000000Y-106370000D01*
X192400000Y-106300000D02*
X183070000Y-106300000D01*
X192275001Y-96075001D02*
X193640000Y-97440000D01*
X192275001Y-93535001D02*
X192275001Y-96075001D01*
X191100000Y-92360000D02*
X192275001Y-93535001D01*
X192464999Y-103884999D02*
X193640000Y-105060000D01*
X192464999Y-98615001D02*
X192464999Y-103884999D01*
X193640000Y-97440000D02*
X192464999Y-98615001D01*
X192464999Y-90995001D02*
X191100000Y-92360000D01*
X192464999Y-88455001D02*
X192464999Y-90995001D01*
X193640000Y-87280000D02*
X192464999Y-88455001D01*
%TO.N,VDDF*%
X164730000Y-102250000D02*
X171500000Y-102250000D01*
%TO.N,VDD*%
X176912500Y-104500000D02*
X176912500Y-109750000D01*
X177290000Y-110127500D02*
X176912500Y-109750000D01*
X180675000Y-119325000D02*
X180750000Y-119250000D01*
X180675000Y-121500000D02*
X180675000Y-119325000D01*
%TO.N,+5V*%
X140600000Y-98100000D02*
X142337500Y-98100000D01*
X139350010Y-96850010D02*
X140600000Y-98100000D01*
X139350010Y-89593600D02*
X139350010Y-96850010D01*
X139300000Y-89543590D02*
X139350010Y-89593600D01*
X139300000Y-85300000D02*
X139300000Y-89543590D01*
X136400000Y-82400000D02*
X139300000Y-85300000D01*
X136400000Y-82200000D02*
X136400000Y-82400000D01*
X183600000Y-98700000D02*
X187300000Y-98700000D01*
X181500000Y-98750000D02*
X183000000Y-98750000D01*
X152850000Y-98750000D02*
X181500000Y-98750000D01*
X143437500Y-97000000D02*
X151100000Y-97000000D01*
X151100000Y-97000000D02*
X152850000Y-98750000D01*
X142337500Y-98100000D02*
X143437500Y-97000000D01*
%TO.N,/USB2_DP*%
X136400000Y-89820000D02*
X138400000Y-91820000D01*
X143913590Y-104450000D02*
X145500000Y-104450000D01*
X138400000Y-98936410D02*
X143913590Y-104450000D01*
X138400000Y-91820000D02*
X138400000Y-98936410D01*
X145500000Y-104450000D02*
X148250000Y-104450000D01*
X148250000Y-104450000D02*
X148900000Y-103800000D01*
X182020000Y-103780000D02*
X183600000Y-103780000D01*
X180500000Y-105300000D02*
X182020000Y-103780000D01*
X180500000Y-106500000D02*
X180500000Y-105300000D01*
%TO.N,/USB2_DM*%
X136400000Y-87280000D02*
X138900000Y-89780000D01*
X138900000Y-89780000D02*
X138900000Y-98800000D01*
X143450000Y-103350000D02*
X145500000Y-103350000D01*
X138900000Y-98800000D02*
X143450000Y-103350000D01*
X145500000Y-103350000D02*
X147950000Y-103350000D01*
X147950000Y-103350000D02*
X148700000Y-102600000D01*
X179200000Y-105900000D02*
X179200000Y-104600000D01*
X182560000Y-101240000D02*
X183600000Y-101240000D01*
X179200000Y-104600000D02*
X182560000Y-101240000D01*
%TO.N,/USB3_DM*%
X187300000Y-101240000D02*
X187300000Y-100900000D01*
%TO.N,Net-(C2-Pad1)*%
X146550000Y-101200000D02*
X145500000Y-102250000D01*
X146550000Y-101200000D02*
X146550000Y-98200000D01*
X146450000Y-98100000D02*
X146550000Y-98200000D01*
X144162500Y-98100000D02*
X146450000Y-98100000D01*
X146550000Y-98200000D02*
X146550000Y-99150000D01*
X167087499Y-99274999D02*
X168200000Y-100387500D01*
X146674999Y-99274999D02*
X167087499Y-99274999D01*
X146550000Y-99150000D02*
X146674999Y-99274999D01*
%TO.N,/SWDIO*%
X142500000Y-113250000D02*
X142250000Y-113500000D01*
X145500000Y-113250000D02*
X142500000Y-113250000D01*
X176060000Y-115750000D02*
X177290000Y-114520000D01*
X175500000Y-115750000D02*
X176060000Y-115750000D01*
%TO.N,/SWDCLK*%
X143150000Y-114350000D02*
X142500000Y-115000000D01*
X145500000Y-114350000D02*
X143150000Y-114350000D01*
%TO.N,Net-(C3-Pad1)*%
X182457500Y-121080000D02*
X182537500Y-121000000D01*
X145500000Y-107750000D02*
X142750000Y-107750000D01*
X182550000Y-121450000D02*
X182500000Y-121500000D01*
X182550000Y-119250000D02*
X182550000Y-121450000D01*
X182500000Y-121500000D02*
X182500000Y-122000000D01*
X183400000Y-122900000D02*
X184700000Y-122900000D01*
X182500000Y-122000000D02*
X183400000Y-122900000D01*
X184700000Y-122900000D02*
X188300000Y-122900000D01*
X174250000Y-117250000D02*
X180550000Y-117250000D01*
X172654999Y-115654999D02*
X174250000Y-117250000D01*
X172654999Y-114654999D02*
X172654999Y-115654999D01*
X180550000Y-117250000D02*
X182550000Y-119250000D01*
X172520000Y-114520000D02*
X172654999Y-114654999D01*
X172210000Y-114520000D02*
X172520000Y-114520000D01*
%TO.N,Net-(D1-Pad1)*%
X170200000Y-104450000D02*
X170250000Y-104500000D01*
X164730000Y-104450000D02*
X170200000Y-104450000D01*
%TO.N,Net-(D1-Pad2)*%
X172750000Y-104500000D02*
X175087500Y-104500000D01*
%TO.N,Net-(D2-Pad1)*%
X164730000Y-105550000D02*
X165450000Y-105550000D01*
X170250000Y-106000000D02*
X168250000Y-106000000D01*
X167800000Y-105550000D02*
X164730000Y-105550000D01*
X168250000Y-106000000D02*
X167800000Y-105550000D01*
%TO.N,Net-(D2-Pad2)*%
X174837500Y-106000000D02*
X175087500Y-106250000D01*
X172750000Y-106000000D02*
X174837500Y-106000000D01*
%TO.N,Net-(D3-Pad1)*%
X167330000Y-107500000D02*
X170250000Y-107500000D01*
X166480000Y-106650000D02*
X167330000Y-107500000D01*
X164730000Y-106650000D02*
X166480000Y-106650000D01*
%TO.N,Net-(D3-Pad2)*%
X172750000Y-107500000D02*
X173750000Y-107500000D01*
X174250000Y-108000000D02*
X175087500Y-108000000D01*
X173750000Y-107500000D02*
X174250000Y-108000000D01*
%TO.N,Net-(D4-Pad1)*%
X164730000Y-107750000D02*
X166250000Y-107750000D01*
X167500000Y-109000000D02*
X170250000Y-109000000D01*
X166250000Y-107750000D02*
X167500000Y-109000000D01*
%TO.N,Net-(D4-Pad2)*%
X174250000Y-110250000D02*
X175087500Y-110250000D01*
X173000000Y-109000000D02*
X174250000Y-110250000D01*
X172750000Y-109000000D02*
X173000000Y-109000000D01*
%TO.N,VDDF*%
X171500000Y-102250000D02*
X172300000Y-102250000D01*
X172337500Y-102212500D02*
X172300000Y-102250000D01*
X175800000Y-102212500D02*
X172337500Y-102212500D01*
%TO.N,VDD*%
X177290000Y-110763910D02*
X176844295Y-110318205D01*
X177290000Y-113250000D02*
X177290000Y-110763910D01*
X176912500Y-104250000D02*
X176912500Y-103287500D01*
X177800000Y-102400000D02*
X177800000Y-100512500D01*
X176912500Y-103287500D02*
X177800000Y-102400000D01*
X175925000Y-100512500D02*
X175800000Y-100387500D01*
X177800000Y-100512500D02*
X175925000Y-100512500D01*
%TD*%
D21*
%TO.N,GND*%
X140131550Y-95551425D02*
X140246207Y-95612710D01*
X140370617Y-95650450D01*
X140500000Y-95663193D01*
X140532419Y-95660000D01*
X189467581Y-95660000D01*
X189500000Y-95663193D01*
X189532419Y-95660000D01*
X189629383Y-95650450D01*
X189753793Y-95612710D01*
X189781686Y-95597801D01*
X189784010Y-95603411D01*
X189946525Y-95846632D01*
X190153368Y-96053475D01*
X190327760Y-96170000D01*
X190153368Y-96286525D01*
X189946525Y-96493368D01*
X189784010Y-96736589D01*
X189672068Y-97006842D01*
X189615000Y-97293740D01*
X189615000Y-97586260D01*
X189672068Y-97873158D01*
X189784010Y-98143411D01*
X189946525Y-98386632D01*
X190153368Y-98593475D01*
X190327760Y-98710000D01*
X190153368Y-98826525D01*
X189946525Y-99033368D01*
X189784010Y-99276589D01*
X189672068Y-99546842D01*
X189615000Y-99833740D01*
X189615000Y-100126260D01*
X189672068Y-100413158D01*
X189784010Y-100683411D01*
X189946525Y-100926632D01*
X190153368Y-101133475D01*
X190327760Y-101250000D01*
X190153368Y-101366525D01*
X189946525Y-101573368D01*
X189784010Y-101816589D01*
X189672068Y-102086842D01*
X189615000Y-102373740D01*
X189615000Y-102666260D01*
X189672068Y-102953158D01*
X189784010Y-103223411D01*
X189946525Y-103466632D01*
X190153368Y-103673475D01*
X190327760Y-103790000D01*
X190153368Y-103906525D01*
X189946525Y-104113368D01*
X189784010Y-104356589D01*
X189672068Y-104626842D01*
X189615000Y-104913740D01*
X189615000Y-105206260D01*
X189672068Y-105493158D01*
X189784010Y-105763411D01*
X189946525Y-106006632D01*
X190153368Y-106213475D01*
X190327760Y-106330000D01*
X190153368Y-106446525D01*
X189946525Y-106653368D01*
X189784010Y-106896589D01*
X189672068Y-107166842D01*
X189615000Y-107453740D01*
X189615000Y-107746260D01*
X189672068Y-108033158D01*
X189784010Y-108303411D01*
X189946525Y-108546632D01*
X190153368Y-108753475D01*
X190327760Y-108870000D01*
X190153368Y-108986525D01*
X189946525Y-109193368D01*
X189784010Y-109436589D01*
X189672068Y-109706842D01*
X189615000Y-109993740D01*
X189615000Y-110286260D01*
X189672068Y-110573158D01*
X189784010Y-110843411D01*
X189946525Y-111086632D01*
X190153368Y-111293475D01*
X190335534Y-111415195D01*
X190218645Y-111484822D01*
X190002412Y-111679731D01*
X189828359Y-111913080D01*
X189703175Y-112175901D01*
X189658524Y-112323110D01*
X189779845Y-112553000D01*
X190973000Y-112553000D01*
X190973000Y-112533000D01*
X191227000Y-112533000D01*
X191227000Y-112553000D01*
X191247000Y-112553000D01*
X191247000Y-112807000D01*
X191227000Y-112807000D01*
X191227000Y-114000814D01*
X191456891Y-114121481D01*
X191731252Y-114024157D01*
X191981355Y-113875178D01*
X192197588Y-113680269D01*
X192368900Y-113450594D01*
X192486525Y-113626632D01*
X192693368Y-113833475D01*
X192936589Y-113995990D01*
X193206842Y-114107932D01*
X193493740Y-114165000D01*
X193786260Y-114165000D01*
X194073158Y-114107932D01*
X194340000Y-113997403D01*
X194340000Y-119259994D01*
X194339080Y-119259074D01*
X193866560Y-118943346D01*
X193341523Y-118725869D01*
X192784148Y-118615000D01*
X192215852Y-118615000D01*
X191658477Y-118725869D01*
X191133440Y-118943346D01*
X190660920Y-119259074D01*
X190259074Y-119660920D01*
X189943346Y-120133440D01*
X189725869Y-120658477D01*
X189615000Y-121215852D01*
X189615000Y-121784148D01*
X189725869Y-122341523D01*
X189943346Y-122866560D01*
X190259074Y-123339080D01*
X190259994Y-123340000D01*
X189138072Y-123340000D01*
X189138072Y-122375000D01*
X189125812Y-122250518D01*
X189102904Y-122175000D01*
X189125812Y-122099482D01*
X189138072Y-121975000D01*
X189135000Y-121735750D01*
X188976250Y-121577000D01*
X187927000Y-121577000D01*
X187927000Y-121597000D01*
X187673000Y-121597000D01*
X187673000Y-121577000D01*
X186623750Y-121577000D01*
X186465000Y-121735750D01*
X186461928Y-121975000D01*
X186474188Y-122099482D01*
X186486479Y-122140000D01*
X185513521Y-122140000D01*
X185525812Y-122099482D01*
X185538072Y-121975000D01*
X185535000Y-121735750D01*
X185376250Y-121577000D01*
X184327000Y-121577000D01*
X184327000Y-121597000D01*
X184073000Y-121597000D01*
X184073000Y-121577000D01*
X184053000Y-121577000D01*
X184053000Y-121323000D01*
X184073000Y-121323000D01*
X184073000Y-121303000D01*
X184327000Y-121303000D01*
X184327000Y-121323000D01*
X185376250Y-121323000D01*
X185535000Y-121164250D01*
X185538072Y-120925000D01*
X186461928Y-120925000D01*
X186465000Y-121164250D01*
X186623750Y-121323000D01*
X187673000Y-121323000D01*
X187673000Y-120448750D01*
X187927000Y-120448750D01*
X187927000Y-121323000D01*
X188976250Y-121323000D01*
X189135000Y-121164250D01*
X189138072Y-120925000D01*
X189125812Y-120800518D01*
X189089502Y-120680820D01*
X189030537Y-120570506D01*
X188951185Y-120473815D01*
X188854494Y-120394463D01*
X188744180Y-120335498D01*
X188624482Y-120299188D01*
X188500000Y-120286928D01*
X188085750Y-120290000D01*
X187927000Y-120448750D01*
X187673000Y-120448750D01*
X187514250Y-120290000D01*
X187100000Y-120286928D01*
X186975518Y-120299188D01*
X186855820Y-120335498D01*
X186745506Y-120394463D01*
X186648815Y-120473815D01*
X186569463Y-120570506D01*
X186510498Y-120680820D01*
X186474188Y-120800518D01*
X186461928Y-120925000D01*
X185538072Y-120925000D01*
X185525812Y-120800518D01*
X185489502Y-120680820D01*
X185430537Y-120570506D01*
X185351185Y-120473815D01*
X185347166Y-120470517D01*
X185401185Y-120426185D01*
X185480537Y-120329494D01*
X185539502Y-120219180D01*
X185575812Y-120099482D01*
X185588072Y-119975000D01*
X185585000Y-119535750D01*
X185426250Y-119377000D01*
X184577000Y-119377000D01*
X184577000Y-119397000D01*
X184323000Y-119397000D01*
X184323000Y-119377000D01*
X184303000Y-119377000D01*
X184303000Y-119123000D01*
X184323000Y-119123000D01*
X184323000Y-118048750D01*
X184577000Y-118048750D01*
X184577000Y-119123000D01*
X185426250Y-119123000D01*
X185585000Y-118964250D01*
X185588072Y-118525000D01*
X185575812Y-118400518D01*
X185539502Y-118280820D01*
X185480537Y-118170506D01*
X185401185Y-118073815D01*
X185304494Y-117994463D01*
X185194180Y-117935498D01*
X185074482Y-117899188D01*
X184950000Y-117886928D01*
X184735750Y-117890000D01*
X184577000Y-118048750D01*
X184323000Y-118048750D01*
X184164250Y-117890000D01*
X183950000Y-117886928D01*
X183825518Y-117899188D01*
X183705820Y-117935498D01*
X183595506Y-117994463D01*
X183498815Y-118073815D01*
X183433342Y-118153594D01*
X183427962Y-118147038D01*
X183293386Y-118036595D01*
X183139850Y-117954528D01*
X182973254Y-117903992D01*
X182800000Y-117886928D01*
X182300000Y-117886928D01*
X182265161Y-117890359D01*
X181113804Y-116739003D01*
X181090001Y-116709999D01*
X180974276Y-116615026D01*
X180842247Y-116544454D01*
X180698986Y-116500997D01*
X180587333Y-116490000D01*
X180587322Y-116490000D01*
X180550000Y-116486324D01*
X180512678Y-116490000D01*
X176238665Y-116490000D01*
X176352247Y-116455546D01*
X176484276Y-116384974D01*
X176600001Y-116290001D01*
X176623804Y-116260997D01*
X177229802Y-115655000D01*
X177401788Y-115655000D01*
X177621067Y-115611383D01*
X177827624Y-115525824D01*
X178013520Y-115401612D01*
X178171612Y-115243520D01*
X178295824Y-115057624D01*
X178381383Y-114851067D01*
X178425000Y-114631788D01*
X178425000Y-114408212D01*
X178381383Y-114188933D01*
X178335112Y-114077226D01*
X178379502Y-113994180D01*
X178415812Y-113874482D01*
X178428072Y-113750000D01*
X178428072Y-113036890D01*
X189658524Y-113036890D01*
X189703175Y-113184099D01*
X189828359Y-113446920D01*
X190002412Y-113680269D01*
X190218645Y-113875178D01*
X190468748Y-114024157D01*
X190743109Y-114121481D01*
X190973000Y-114000814D01*
X190973000Y-112807000D01*
X189779845Y-112807000D01*
X189658524Y-113036890D01*
X178428072Y-113036890D01*
X178428072Y-112750000D01*
X178415812Y-112625518D01*
X178379502Y-112505820D01*
X178320537Y-112395506D01*
X178241185Y-112298815D01*
X178144494Y-112219463D01*
X178050000Y-112168954D01*
X178050000Y-110832723D01*
X178063072Y-110700001D01*
X178063072Y-109799999D01*
X178046008Y-109626745D01*
X177995472Y-109460149D01*
X177913405Y-109306613D01*
X177866944Y-109250000D01*
X177913405Y-109193387D01*
X177995472Y-109039851D01*
X178046008Y-108873255D01*
X178063072Y-108700001D01*
X178063072Y-107799999D01*
X178046008Y-107626745D01*
X177995472Y-107460149D01*
X177913405Y-107306613D01*
X177866944Y-107250000D01*
X177913405Y-107193387D01*
X177995472Y-107039851D01*
X178046008Y-106873255D01*
X178063072Y-106700001D01*
X178063072Y-105799999D01*
X178046008Y-105626745D01*
X177995472Y-105460149D01*
X177913405Y-105306613D01*
X177866944Y-105250000D01*
X177913405Y-105193387D01*
X177995472Y-105039851D01*
X178046008Y-104873255D01*
X178063072Y-104700001D01*
X178063072Y-103799999D01*
X178046008Y-103626745D01*
X177995472Y-103460149D01*
X177932488Y-103342314D01*
X178311004Y-102963798D01*
X178340001Y-102940001D01*
X178434974Y-102824276D01*
X178505546Y-102692247D01*
X178549003Y-102548986D01*
X178560000Y-102437333D01*
X178560000Y-102437332D01*
X178563677Y-102400000D01*
X178560000Y-102362667D01*
X178560000Y-101604527D01*
X178589851Y-101595472D01*
X178743387Y-101513405D01*
X178877962Y-101402962D01*
X178988405Y-101268387D01*
X179070472Y-101114851D01*
X179121008Y-100948255D01*
X179138072Y-100775001D01*
X179138072Y-100249999D01*
X179121008Y-100076745D01*
X179070472Y-99910149D01*
X178988405Y-99756613D01*
X178877962Y-99622038D01*
X178851109Y-99600000D01*
X178877962Y-99577962D01*
X178933737Y-99510000D01*
X182111928Y-99510000D01*
X182111928Y-99550000D01*
X182124188Y-99674482D01*
X182160498Y-99794180D01*
X182219463Y-99904494D01*
X182298815Y-100001185D01*
X182395506Y-100080537D01*
X182505820Y-100139502D01*
X182578380Y-100161513D01*
X182446525Y-100293368D01*
X182289932Y-100527726D01*
X182267753Y-100534454D01*
X182135724Y-100605026D01*
X182019999Y-100699999D01*
X181996201Y-100728997D01*
X178688998Y-104036201D01*
X178660000Y-104059999D01*
X178636202Y-104088997D01*
X178636201Y-104088998D01*
X178565026Y-104175724D01*
X178494454Y-104307754D01*
X178450998Y-104451015D01*
X178436324Y-104600000D01*
X178440001Y-104637332D01*
X178440001Y-105196288D01*
X178396063Y-105240226D01*
X178282795Y-105409744D01*
X178204774Y-105598102D01*
X178165000Y-105798061D01*
X178165000Y-106001939D01*
X178204774Y-106201898D01*
X178282795Y-106390256D01*
X178396063Y-106559774D01*
X178540226Y-106703937D01*
X178709744Y-106817205D01*
X178898102Y-106895226D01*
X179098061Y-106935000D01*
X179301939Y-106935000D01*
X179501898Y-106895226D01*
X179537349Y-106880541D01*
X179582795Y-106990256D01*
X179696063Y-107159774D01*
X179840226Y-107303937D01*
X180009744Y-107417205D01*
X180198102Y-107495226D01*
X180398061Y-107535000D01*
X180601939Y-107535000D01*
X180801898Y-107495226D01*
X180990256Y-107417205D01*
X181159774Y-107303937D01*
X181303937Y-107159774D01*
X181417205Y-106990256D01*
X181495226Y-106801898D01*
X181520091Y-106676890D01*
X182158524Y-106676890D01*
X182203175Y-106824099D01*
X182328359Y-107086920D01*
X182502412Y-107320269D01*
X182718645Y-107515178D01*
X182968748Y-107664157D01*
X183243109Y-107761481D01*
X183473000Y-107640814D01*
X183473000Y-106447000D01*
X183727000Y-106447000D01*
X183727000Y-107640814D01*
X183956891Y-107761481D01*
X184231252Y-107664157D01*
X184481355Y-107515178D01*
X184697588Y-107320269D01*
X184871641Y-107086920D01*
X184996825Y-106824099D01*
X185041476Y-106676890D01*
X185858524Y-106676890D01*
X185903175Y-106824099D01*
X186028359Y-107086920D01*
X186202412Y-107320269D01*
X186418645Y-107515178D01*
X186668748Y-107664157D01*
X186943109Y-107761481D01*
X187173000Y-107640814D01*
X187173000Y-106447000D01*
X187427000Y-106447000D01*
X187427000Y-107640814D01*
X187656891Y-107761481D01*
X187931252Y-107664157D01*
X188181355Y-107515178D01*
X188397588Y-107320269D01*
X188571641Y-107086920D01*
X188696825Y-106824099D01*
X188741476Y-106676890D01*
X188620155Y-106447000D01*
X187427000Y-106447000D01*
X187173000Y-106447000D01*
X185979845Y-106447000D01*
X185858524Y-106676890D01*
X185041476Y-106676890D01*
X184920155Y-106447000D01*
X183727000Y-106447000D01*
X183473000Y-106447000D01*
X182279845Y-106447000D01*
X182158524Y-106676890D01*
X181520091Y-106676890D01*
X181535000Y-106601939D01*
X181535000Y-106398061D01*
X181495226Y-106198102D01*
X181417205Y-106009744D01*
X181303937Y-105840226D01*
X181260000Y-105796289D01*
X181260000Y-105614801D01*
X182327021Y-104547781D01*
X182446525Y-104726632D01*
X182653368Y-104933475D01*
X182835534Y-105055195D01*
X182718645Y-105124822D01*
X182502412Y-105319731D01*
X182328359Y-105553080D01*
X182203175Y-105815901D01*
X182158524Y-105963110D01*
X182279845Y-106193000D01*
X183473000Y-106193000D01*
X183473000Y-106173000D01*
X183727000Y-106173000D01*
X183727000Y-106193000D01*
X184920155Y-106193000D01*
X185041476Y-105963110D01*
X184996825Y-105815901D01*
X184871641Y-105553080D01*
X184697588Y-105319731D01*
X184481355Y-105124822D01*
X184364466Y-105055195D01*
X184546632Y-104933475D01*
X184753475Y-104726632D01*
X184915990Y-104483411D01*
X185027932Y-104213158D01*
X185085000Y-103926260D01*
X185085000Y-103633740D01*
X185027932Y-103346842D01*
X184915990Y-103076589D01*
X184753475Y-102833368D01*
X184546632Y-102626525D01*
X184372240Y-102510000D01*
X184546632Y-102393475D01*
X184753475Y-102186632D01*
X184915990Y-101943411D01*
X185027932Y-101673158D01*
X185085000Y-101386260D01*
X185085000Y-101093740D01*
X185027932Y-100806842D01*
X184915990Y-100536589D01*
X184753475Y-100293368D01*
X184621620Y-100161513D01*
X184694180Y-100139502D01*
X184804494Y-100080537D01*
X184901185Y-100001185D01*
X184980537Y-99904494D01*
X185039502Y-99794180D01*
X185075812Y-99674482D01*
X185088072Y-99550000D01*
X185088072Y-99460000D01*
X185811928Y-99460000D01*
X185811928Y-99550000D01*
X185824188Y-99674482D01*
X185860498Y-99794180D01*
X185919463Y-99904494D01*
X185998815Y-100001185D01*
X186095506Y-100080537D01*
X186205820Y-100139502D01*
X186278380Y-100161513D01*
X186146525Y-100293368D01*
X185984010Y-100536589D01*
X185872068Y-100806842D01*
X185815000Y-101093740D01*
X185815000Y-101386260D01*
X185872068Y-101673158D01*
X185984010Y-101943411D01*
X186146525Y-102186632D01*
X186353368Y-102393475D01*
X186527760Y-102510000D01*
X186353368Y-102626525D01*
X186146525Y-102833368D01*
X185984010Y-103076589D01*
X185872068Y-103346842D01*
X185815000Y-103633740D01*
X185815000Y-103926260D01*
X185872068Y-104213158D01*
X185984010Y-104483411D01*
X186146525Y-104726632D01*
X186353368Y-104933475D01*
X186535534Y-105055195D01*
X186418645Y-105124822D01*
X186202412Y-105319731D01*
X186028359Y-105553080D01*
X185903175Y-105815901D01*
X185858524Y-105963110D01*
X185979845Y-106193000D01*
X187173000Y-106193000D01*
X187173000Y-106173000D01*
X187427000Y-106173000D01*
X187427000Y-106193000D01*
X188620155Y-106193000D01*
X188741476Y-105963110D01*
X188696825Y-105815901D01*
X188571641Y-105553080D01*
X188397588Y-105319731D01*
X188181355Y-105124822D01*
X188064466Y-105055195D01*
X188246632Y-104933475D01*
X188453475Y-104726632D01*
X188615990Y-104483411D01*
X188727932Y-104213158D01*
X188785000Y-103926260D01*
X188785000Y-103633740D01*
X188727932Y-103346842D01*
X188615990Y-103076589D01*
X188453475Y-102833368D01*
X188246632Y-102626525D01*
X188072240Y-102510000D01*
X188246632Y-102393475D01*
X188453475Y-102186632D01*
X188615990Y-101943411D01*
X188727932Y-101673158D01*
X188785000Y-101386260D01*
X188785000Y-101093740D01*
X188727932Y-100806842D01*
X188615990Y-100536589D01*
X188453475Y-100293368D01*
X188321620Y-100161513D01*
X188394180Y-100139502D01*
X188504494Y-100080537D01*
X188601185Y-100001185D01*
X188680537Y-99904494D01*
X188739502Y-99794180D01*
X188775812Y-99674482D01*
X188788072Y-99550000D01*
X188788072Y-97850000D01*
X188775812Y-97725518D01*
X188739502Y-97605820D01*
X188680537Y-97495506D01*
X188601185Y-97398815D01*
X188504494Y-97319463D01*
X188394180Y-97260498D01*
X188274482Y-97224188D01*
X188150000Y-97211928D01*
X186450000Y-97211928D01*
X186325518Y-97224188D01*
X186205820Y-97260498D01*
X186095506Y-97319463D01*
X185998815Y-97398815D01*
X185919463Y-97495506D01*
X185860498Y-97605820D01*
X185824188Y-97725518D01*
X185811928Y-97850000D01*
X185811928Y-97940000D01*
X185088072Y-97940000D01*
X185088072Y-97850000D01*
X185075812Y-97725518D01*
X185039502Y-97605820D01*
X184980537Y-97495506D01*
X184901185Y-97398815D01*
X184804494Y-97319463D01*
X184694180Y-97260498D01*
X184574482Y-97224188D01*
X184450000Y-97211928D01*
X182750000Y-97211928D01*
X182625518Y-97224188D01*
X182505820Y-97260498D01*
X182395506Y-97319463D01*
X182298815Y-97398815D01*
X182219463Y-97495506D01*
X182160498Y-97605820D01*
X182124188Y-97725518D01*
X182111928Y-97850000D01*
X182111928Y-97990000D01*
X179019614Y-97990000D01*
X178988405Y-97931613D01*
X178877962Y-97797038D01*
X178743387Y-97686595D01*
X178589851Y-97604528D01*
X178423255Y-97553992D01*
X178250001Y-97536928D01*
X177349999Y-97536928D01*
X177176745Y-97553992D01*
X177010149Y-97604528D01*
X176856613Y-97686595D01*
X176722038Y-97797038D01*
X176611595Y-97931613D01*
X176580386Y-97990000D01*
X153164802Y-97990000D01*
X151663804Y-96489003D01*
X151640001Y-96459999D01*
X151524276Y-96365026D01*
X151392247Y-96294454D01*
X151248986Y-96250997D01*
X151137333Y-96240000D01*
X151137322Y-96240000D01*
X151100000Y-96236324D01*
X151062678Y-96240000D01*
X143474823Y-96240000D01*
X143437500Y-96236324D01*
X143400177Y-96240000D01*
X143400167Y-96240000D01*
X143288514Y-96250997D01*
X143171392Y-96286525D01*
X143145253Y-96294454D01*
X143013223Y-96365026D01*
X142939251Y-96425734D01*
X142897499Y-96459999D01*
X142873701Y-96488997D01*
X142375770Y-96986928D01*
X142087500Y-96986928D01*
X141916684Y-97003752D01*
X141752433Y-97053577D01*
X141601058Y-97134488D01*
X141468377Y-97243377D01*
X141389080Y-97340000D01*
X140914802Y-97340000D01*
X140110010Y-96535209D01*
X140110010Y-95533747D01*
X140131550Y-95551425D01*
%TA.AperFunction,Conductor*%
D22*
G36*
X140131550Y-95551425D02*
G01*
X140246207Y-95612710D01*
X140370617Y-95650450D01*
X140500000Y-95663193D01*
X140532419Y-95660000D01*
X189467581Y-95660000D01*
X189500000Y-95663193D01*
X189532419Y-95660000D01*
X189629383Y-95650450D01*
X189753793Y-95612710D01*
X189781686Y-95597801D01*
X189784010Y-95603411D01*
X189946525Y-95846632D01*
X190153368Y-96053475D01*
X190327760Y-96170000D01*
X190153368Y-96286525D01*
X189946525Y-96493368D01*
X189784010Y-96736589D01*
X189672068Y-97006842D01*
X189615000Y-97293740D01*
X189615000Y-97586260D01*
X189672068Y-97873158D01*
X189784010Y-98143411D01*
X189946525Y-98386632D01*
X190153368Y-98593475D01*
X190327760Y-98710000D01*
X190153368Y-98826525D01*
X189946525Y-99033368D01*
X189784010Y-99276589D01*
X189672068Y-99546842D01*
X189615000Y-99833740D01*
X189615000Y-100126260D01*
X189672068Y-100413158D01*
X189784010Y-100683411D01*
X189946525Y-100926632D01*
X190153368Y-101133475D01*
X190327760Y-101250000D01*
X190153368Y-101366525D01*
X189946525Y-101573368D01*
X189784010Y-101816589D01*
X189672068Y-102086842D01*
X189615000Y-102373740D01*
X189615000Y-102666260D01*
X189672068Y-102953158D01*
X189784010Y-103223411D01*
X189946525Y-103466632D01*
X190153368Y-103673475D01*
X190327760Y-103790000D01*
X190153368Y-103906525D01*
X189946525Y-104113368D01*
X189784010Y-104356589D01*
X189672068Y-104626842D01*
X189615000Y-104913740D01*
X189615000Y-105206260D01*
X189672068Y-105493158D01*
X189784010Y-105763411D01*
X189946525Y-106006632D01*
X190153368Y-106213475D01*
X190327760Y-106330000D01*
X190153368Y-106446525D01*
X189946525Y-106653368D01*
X189784010Y-106896589D01*
X189672068Y-107166842D01*
X189615000Y-107453740D01*
X189615000Y-107746260D01*
X189672068Y-108033158D01*
X189784010Y-108303411D01*
X189946525Y-108546632D01*
X190153368Y-108753475D01*
X190327760Y-108870000D01*
X190153368Y-108986525D01*
X189946525Y-109193368D01*
X189784010Y-109436589D01*
X189672068Y-109706842D01*
X189615000Y-109993740D01*
X189615000Y-110286260D01*
X189672068Y-110573158D01*
X189784010Y-110843411D01*
X189946525Y-111086632D01*
X190153368Y-111293475D01*
X190335534Y-111415195D01*
X190218645Y-111484822D01*
X190002412Y-111679731D01*
X189828359Y-111913080D01*
X189703175Y-112175901D01*
X189658524Y-112323110D01*
X189779845Y-112553000D01*
X190973000Y-112553000D01*
X190973000Y-112533000D01*
X191227000Y-112533000D01*
X191227000Y-112553000D01*
X191247000Y-112553000D01*
X191247000Y-112807000D01*
X191227000Y-112807000D01*
X191227000Y-114000814D01*
X191456891Y-114121481D01*
X191731252Y-114024157D01*
X191981355Y-113875178D01*
X192197588Y-113680269D01*
X192368900Y-113450594D01*
X192486525Y-113626632D01*
X192693368Y-113833475D01*
X192936589Y-113995990D01*
X193206842Y-114107932D01*
X193493740Y-114165000D01*
X193786260Y-114165000D01*
X194073158Y-114107932D01*
X194340000Y-113997403D01*
X194340000Y-119259994D01*
X194339080Y-119259074D01*
X193866560Y-118943346D01*
X193341523Y-118725869D01*
X192784148Y-118615000D01*
X192215852Y-118615000D01*
X191658477Y-118725869D01*
X191133440Y-118943346D01*
X190660920Y-119259074D01*
X190259074Y-119660920D01*
X189943346Y-120133440D01*
X189725869Y-120658477D01*
X189615000Y-121215852D01*
X189615000Y-121784148D01*
X189725869Y-122341523D01*
X189943346Y-122866560D01*
X190259074Y-123339080D01*
X190259994Y-123340000D01*
X189138072Y-123340000D01*
X189138072Y-122375000D01*
X189125812Y-122250518D01*
X189102904Y-122175000D01*
X189125812Y-122099482D01*
X189138072Y-121975000D01*
X189135000Y-121735750D01*
X188976250Y-121577000D01*
X187927000Y-121577000D01*
X187927000Y-121597000D01*
X187673000Y-121597000D01*
X187673000Y-121577000D01*
X186623750Y-121577000D01*
X186465000Y-121735750D01*
X186461928Y-121975000D01*
X186474188Y-122099482D01*
X186486479Y-122140000D01*
X185513521Y-122140000D01*
X185525812Y-122099482D01*
X185538072Y-121975000D01*
X185535000Y-121735750D01*
X185376250Y-121577000D01*
X184327000Y-121577000D01*
X184327000Y-121597000D01*
X184073000Y-121597000D01*
X184073000Y-121577000D01*
X184053000Y-121577000D01*
X184053000Y-121323000D01*
X184073000Y-121323000D01*
X184073000Y-121303000D01*
X184327000Y-121303000D01*
X184327000Y-121323000D01*
X185376250Y-121323000D01*
X185535000Y-121164250D01*
X185538072Y-120925000D01*
X186461928Y-120925000D01*
X186465000Y-121164250D01*
X186623750Y-121323000D01*
X187673000Y-121323000D01*
X187673000Y-120448750D01*
X187927000Y-120448750D01*
X187927000Y-121323000D01*
X188976250Y-121323000D01*
X189135000Y-121164250D01*
X189138072Y-120925000D01*
X189125812Y-120800518D01*
X189089502Y-120680820D01*
X189030537Y-120570506D01*
X188951185Y-120473815D01*
X188854494Y-120394463D01*
X188744180Y-120335498D01*
X188624482Y-120299188D01*
X188500000Y-120286928D01*
X188085750Y-120290000D01*
X187927000Y-120448750D01*
X187673000Y-120448750D01*
X187514250Y-120290000D01*
X187100000Y-120286928D01*
X186975518Y-120299188D01*
X186855820Y-120335498D01*
X186745506Y-120394463D01*
X186648815Y-120473815D01*
X186569463Y-120570506D01*
X186510498Y-120680820D01*
X186474188Y-120800518D01*
X186461928Y-120925000D01*
X185538072Y-120925000D01*
X185525812Y-120800518D01*
X185489502Y-120680820D01*
X185430537Y-120570506D01*
X185351185Y-120473815D01*
X185347166Y-120470517D01*
X185401185Y-120426185D01*
X185480537Y-120329494D01*
X185539502Y-120219180D01*
X185575812Y-120099482D01*
X185588072Y-119975000D01*
X185585000Y-119535750D01*
X185426250Y-119377000D01*
X184577000Y-119377000D01*
X184577000Y-119397000D01*
X184323000Y-119397000D01*
X184323000Y-119377000D01*
X184303000Y-119377000D01*
X184303000Y-119123000D01*
X184323000Y-119123000D01*
X184323000Y-118048750D01*
X184577000Y-118048750D01*
X184577000Y-119123000D01*
X185426250Y-119123000D01*
X185585000Y-118964250D01*
X185588072Y-118525000D01*
X185575812Y-118400518D01*
X185539502Y-118280820D01*
X185480537Y-118170506D01*
X185401185Y-118073815D01*
X185304494Y-117994463D01*
X185194180Y-117935498D01*
X185074482Y-117899188D01*
X184950000Y-117886928D01*
X184735750Y-117890000D01*
X184577000Y-118048750D01*
X184323000Y-118048750D01*
X184164250Y-117890000D01*
X183950000Y-117886928D01*
X183825518Y-117899188D01*
X183705820Y-117935498D01*
X183595506Y-117994463D01*
X183498815Y-118073815D01*
X183433342Y-118153594D01*
X183427962Y-118147038D01*
X183293386Y-118036595D01*
X183139850Y-117954528D01*
X182973254Y-117903992D01*
X182800000Y-117886928D01*
X182300000Y-117886928D01*
X182265161Y-117890359D01*
X181113804Y-116739003D01*
X181090001Y-116709999D01*
X180974276Y-116615026D01*
X180842247Y-116544454D01*
X180698986Y-116500997D01*
X180587333Y-116490000D01*
X180587322Y-116490000D01*
X180550000Y-116486324D01*
X180512678Y-116490000D01*
X176238665Y-116490000D01*
X176352247Y-116455546D01*
X176484276Y-116384974D01*
X176600001Y-116290001D01*
X176623804Y-116260997D01*
X177229802Y-115655000D01*
X177401788Y-115655000D01*
X177621067Y-115611383D01*
X177827624Y-115525824D01*
X178013520Y-115401612D01*
X178171612Y-115243520D01*
X178295824Y-115057624D01*
X178381383Y-114851067D01*
X178425000Y-114631788D01*
X178425000Y-114408212D01*
X178381383Y-114188933D01*
X178335112Y-114077226D01*
X178379502Y-113994180D01*
X178415812Y-113874482D01*
X178428072Y-113750000D01*
X178428072Y-113036890D01*
X189658524Y-113036890D01*
X189703175Y-113184099D01*
X189828359Y-113446920D01*
X190002412Y-113680269D01*
X190218645Y-113875178D01*
X190468748Y-114024157D01*
X190743109Y-114121481D01*
X190973000Y-114000814D01*
X190973000Y-112807000D01*
X189779845Y-112807000D01*
X189658524Y-113036890D01*
X178428072Y-113036890D01*
X178428072Y-112750000D01*
X178415812Y-112625518D01*
X178379502Y-112505820D01*
X178320537Y-112395506D01*
X178241185Y-112298815D01*
X178144494Y-112219463D01*
X178050000Y-112168954D01*
X178050000Y-110832723D01*
X178063072Y-110700001D01*
X178063072Y-109799999D01*
X178046008Y-109626745D01*
X177995472Y-109460149D01*
X177913405Y-109306613D01*
X177866944Y-109250000D01*
X177913405Y-109193387D01*
X177995472Y-109039851D01*
X178046008Y-108873255D01*
X178063072Y-108700001D01*
X178063072Y-107799999D01*
X178046008Y-107626745D01*
X177995472Y-107460149D01*
X177913405Y-107306613D01*
X177866944Y-107250000D01*
X177913405Y-107193387D01*
X177995472Y-107039851D01*
X178046008Y-106873255D01*
X178063072Y-106700001D01*
X178063072Y-105799999D01*
X178046008Y-105626745D01*
X177995472Y-105460149D01*
X177913405Y-105306613D01*
X177866944Y-105250000D01*
X177913405Y-105193387D01*
X177995472Y-105039851D01*
X178046008Y-104873255D01*
X178063072Y-104700001D01*
X178063072Y-103799999D01*
X178046008Y-103626745D01*
X177995472Y-103460149D01*
X177932488Y-103342314D01*
X178311004Y-102963798D01*
X178340001Y-102940001D01*
X178434974Y-102824276D01*
X178505546Y-102692247D01*
X178549003Y-102548986D01*
X178560000Y-102437333D01*
X178560000Y-102437332D01*
X178563677Y-102400000D01*
X178560000Y-102362667D01*
X178560000Y-101604527D01*
X178589851Y-101595472D01*
X178743387Y-101513405D01*
X178877962Y-101402962D01*
X178988405Y-101268387D01*
X179070472Y-101114851D01*
X179121008Y-100948255D01*
X179138072Y-100775001D01*
X179138072Y-100249999D01*
X179121008Y-100076745D01*
X179070472Y-99910149D01*
X178988405Y-99756613D01*
X178877962Y-99622038D01*
X178851109Y-99600000D01*
X178877962Y-99577962D01*
X178933737Y-99510000D01*
X182111928Y-99510000D01*
X182111928Y-99550000D01*
X182124188Y-99674482D01*
X182160498Y-99794180D01*
X182219463Y-99904494D01*
X182298815Y-100001185D01*
X182395506Y-100080537D01*
X182505820Y-100139502D01*
X182578380Y-100161513D01*
X182446525Y-100293368D01*
X182289932Y-100527726D01*
X182267753Y-100534454D01*
X182135724Y-100605026D01*
X182019999Y-100699999D01*
X181996201Y-100728997D01*
X178688998Y-104036201D01*
X178660000Y-104059999D01*
X178636202Y-104088997D01*
X178636201Y-104088998D01*
X178565026Y-104175724D01*
X178494454Y-104307754D01*
X178450998Y-104451015D01*
X178436324Y-104600000D01*
X178440001Y-104637332D01*
X178440001Y-105196288D01*
X178396063Y-105240226D01*
X178282795Y-105409744D01*
X178204774Y-105598102D01*
X178165000Y-105798061D01*
X178165000Y-106001939D01*
X178204774Y-106201898D01*
X178282795Y-106390256D01*
X178396063Y-106559774D01*
X178540226Y-106703937D01*
X178709744Y-106817205D01*
X178898102Y-106895226D01*
X179098061Y-106935000D01*
X179301939Y-106935000D01*
X179501898Y-106895226D01*
X179537349Y-106880541D01*
X179582795Y-106990256D01*
X179696063Y-107159774D01*
X179840226Y-107303937D01*
X180009744Y-107417205D01*
X180198102Y-107495226D01*
X180398061Y-107535000D01*
X180601939Y-107535000D01*
X180801898Y-107495226D01*
X180990256Y-107417205D01*
X181159774Y-107303937D01*
X181303937Y-107159774D01*
X181417205Y-106990256D01*
X181495226Y-106801898D01*
X181520091Y-106676890D01*
X182158524Y-106676890D01*
X182203175Y-106824099D01*
X182328359Y-107086920D01*
X182502412Y-107320269D01*
X182718645Y-107515178D01*
X182968748Y-107664157D01*
X183243109Y-107761481D01*
X183473000Y-107640814D01*
X183473000Y-106447000D01*
X183727000Y-106447000D01*
X183727000Y-107640814D01*
X183956891Y-107761481D01*
X184231252Y-107664157D01*
X184481355Y-107515178D01*
X184697588Y-107320269D01*
X184871641Y-107086920D01*
X184996825Y-106824099D01*
X185041476Y-106676890D01*
X185858524Y-106676890D01*
X185903175Y-106824099D01*
X186028359Y-107086920D01*
X186202412Y-107320269D01*
X186418645Y-107515178D01*
X186668748Y-107664157D01*
X186943109Y-107761481D01*
X187173000Y-107640814D01*
X187173000Y-106447000D01*
X187427000Y-106447000D01*
X187427000Y-107640814D01*
X187656891Y-107761481D01*
X187931252Y-107664157D01*
X188181355Y-107515178D01*
X188397588Y-107320269D01*
X188571641Y-107086920D01*
X188696825Y-106824099D01*
X188741476Y-106676890D01*
X188620155Y-106447000D01*
X187427000Y-106447000D01*
X187173000Y-106447000D01*
X185979845Y-106447000D01*
X185858524Y-106676890D01*
X185041476Y-106676890D01*
X184920155Y-106447000D01*
X183727000Y-106447000D01*
X183473000Y-106447000D01*
X182279845Y-106447000D01*
X182158524Y-106676890D01*
X181520091Y-106676890D01*
X181535000Y-106601939D01*
X181535000Y-106398061D01*
X181495226Y-106198102D01*
X181417205Y-106009744D01*
X181303937Y-105840226D01*
X181260000Y-105796289D01*
X181260000Y-105614801D01*
X182327021Y-104547781D01*
X182446525Y-104726632D01*
X182653368Y-104933475D01*
X182835534Y-105055195D01*
X182718645Y-105124822D01*
X182502412Y-105319731D01*
X182328359Y-105553080D01*
X182203175Y-105815901D01*
X182158524Y-105963110D01*
X182279845Y-106193000D01*
X183473000Y-106193000D01*
X183473000Y-106173000D01*
X183727000Y-106173000D01*
X183727000Y-106193000D01*
X184920155Y-106193000D01*
X185041476Y-105963110D01*
X184996825Y-105815901D01*
X184871641Y-105553080D01*
X184697588Y-105319731D01*
X184481355Y-105124822D01*
X184364466Y-105055195D01*
X184546632Y-104933475D01*
X184753475Y-104726632D01*
X184915990Y-104483411D01*
X185027932Y-104213158D01*
X185085000Y-103926260D01*
X185085000Y-103633740D01*
X185027932Y-103346842D01*
X184915990Y-103076589D01*
X184753475Y-102833368D01*
X184546632Y-102626525D01*
X184372240Y-102510000D01*
X184546632Y-102393475D01*
X184753475Y-102186632D01*
X184915990Y-101943411D01*
X185027932Y-101673158D01*
X185085000Y-101386260D01*
X185085000Y-101093740D01*
X185027932Y-100806842D01*
X184915990Y-100536589D01*
X184753475Y-100293368D01*
X184621620Y-100161513D01*
X184694180Y-100139502D01*
X184804494Y-100080537D01*
X184901185Y-100001185D01*
X184980537Y-99904494D01*
X185039502Y-99794180D01*
X185075812Y-99674482D01*
X185088072Y-99550000D01*
X185088072Y-99460000D01*
X185811928Y-99460000D01*
X185811928Y-99550000D01*
X185824188Y-99674482D01*
X185860498Y-99794180D01*
X185919463Y-99904494D01*
X185998815Y-100001185D01*
X186095506Y-100080537D01*
X186205820Y-100139502D01*
X186278380Y-100161513D01*
X186146525Y-100293368D01*
X185984010Y-100536589D01*
X185872068Y-100806842D01*
X185815000Y-101093740D01*
X185815000Y-101386260D01*
X185872068Y-101673158D01*
X185984010Y-101943411D01*
X186146525Y-102186632D01*
X186353368Y-102393475D01*
X186527760Y-102510000D01*
X186353368Y-102626525D01*
X186146525Y-102833368D01*
X185984010Y-103076589D01*
X185872068Y-103346842D01*
X185815000Y-103633740D01*
X185815000Y-103926260D01*
X185872068Y-104213158D01*
X185984010Y-104483411D01*
X186146525Y-104726632D01*
X186353368Y-104933475D01*
X186535534Y-105055195D01*
X186418645Y-105124822D01*
X186202412Y-105319731D01*
X186028359Y-105553080D01*
X185903175Y-105815901D01*
X185858524Y-105963110D01*
X185979845Y-106193000D01*
X187173000Y-106193000D01*
X187173000Y-106173000D01*
X187427000Y-106173000D01*
X187427000Y-106193000D01*
X188620155Y-106193000D01*
X188741476Y-105963110D01*
X188696825Y-105815901D01*
X188571641Y-105553080D01*
X188397588Y-105319731D01*
X188181355Y-105124822D01*
X188064466Y-105055195D01*
X188246632Y-104933475D01*
X188453475Y-104726632D01*
X188615990Y-104483411D01*
X188727932Y-104213158D01*
X188785000Y-103926260D01*
X188785000Y-103633740D01*
X188727932Y-103346842D01*
X188615990Y-103076589D01*
X188453475Y-102833368D01*
X188246632Y-102626525D01*
X188072240Y-102510000D01*
X188246632Y-102393475D01*
X188453475Y-102186632D01*
X188615990Y-101943411D01*
X188727932Y-101673158D01*
X188785000Y-101386260D01*
X188785000Y-101093740D01*
X188727932Y-100806842D01*
X188615990Y-100536589D01*
X188453475Y-100293368D01*
X188321620Y-100161513D01*
X188394180Y-100139502D01*
X188504494Y-100080537D01*
X188601185Y-100001185D01*
X188680537Y-99904494D01*
X188739502Y-99794180D01*
X188775812Y-99674482D01*
X188788072Y-99550000D01*
X188788072Y-97850000D01*
X188775812Y-97725518D01*
X188739502Y-97605820D01*
X188680537Y-97495506D01*
X188601185Y-97398815D01*
X188504494Y-97319463D01*
X188394180Y-97260498D01*
X188274482Y-97224188D01*
X188150000Y-97211928D01*
X186450000Y-97211928D01*
X186325518Y-97224188D01*
X186205820Y-97260498D01*
X186095506Y-97319463D01*
X185998815Y-97398815D01*
X185919463Y-97495506D01*
X185860498Y-97605820D01*
X185824188Y-97725518D01*
X185811928Y-97850000D01*
X185811928Y-97940000D01*
X185088072Y-97940000D01*
X185088072Y-97850000D01*
X185075812Y-97725518D01*
X185039502Y-97605820D01*
X184980537Y-97495506D01*
X184901185Y-97398815D01*
X184804494Y-97319463D01*
X184694180Y-97260498D01*
X184574482Y-97224188D01*
X184450000Y-97211928D01*
X182750000Y-97211928D01*
X182625518Y-97224188D01*
X182505820Y-97260498D01*
X182395506Y-97319463D01*
X182298815Y-97398815D01*
X182219463Y-97495506D01*
X182160498Y-97605820D01*
X182124188Y-97725518D01*
X182111928Y-97850000D01*
X182111928Y-97990000D01*
X179019614Y-97990000D01*
X178988405Y-97931613D01*
X178877962Y-97797038D01*
X178743387Y-97686595D01*
X178589851Y-97604528D01*
X178423255Y-97553992D01*
X178250001Y-97536928D01*
X177349999Y-97536928D01*
X177176745Y-97553992D01*
X177010149Y-97604528D01*
X176856613Y-97686595D01*
X176722038Y-97797038D01*
X176611595Y-97931613D01*
X176580386Y-97990000D01*
X153164802Y-97990000D01*
X151663804Y-96489003D01*
X151640001Y-96459999D01*
X151524276Y-96365026D01*
X151392247Y-96294454D01*
X151248986Y-96250997D01*
X151137333Y-96240000D01*
X151137322Y-96240000D01*
X151100000Y-96236324D01*
X151062678Y-96240000D01*
X143474823Y-96240000D01*
X143437500Y-96236324D01*
X143400177Y-96240000D01*
X143400167Y-96240000D01*
X143288514Y-96250997D01*
X143171392Y-96286525D01*
X143145253Y-96294454D01*
X143013223Y-96365026D01*
X142939251Y-96425734D01*
X142897499Y-96459999D01*
X142873701Y-96488997D01*
X142375770Y-96986928D01*
X142087500Y-96986928D01*
X141916684Y-97003752D01*
X141752433Y-97053577D01*
X141601058Y-97134488D01*
X141468377Y-97243377D01*
X141389080Y-97340000D01*
X140914802Y-97340000D01*
X140110010Y-96535209D01*
X140110010Y-95533747D01*
X140131550Y-95551425D01*
G37*
%TD.AperFunction*%
D21*
X137640001Y-98899078D02*
X137636324Y-98936410D01*
X137650998Y-99085395D01*
X137694454Y-99228656D01*
X137765026Y-99360686D01*
X137831962Y-99442247D01*
X137860000Y-99476411D01*
X137888998Y-99500209D01*
X143349790Y-104961002D01*
X143373589Y-104990001D01*
X143380655Y-104995800D01*
X143381929Y-105000000D01*
X143374188Y-105025518D01*
X143361928Y-105150000D01*
X143361928Y-105950000D01*
X143374188Y-106074482D01*
X143381929Y-106100000D01*
X143374188Y-106125518D01*
X143361928Y-106250000D01*
X143361928Y-106914093D01*
X143240256Y-106832795D01*
X143051898Y-106754774D01*
X142851939Y-106715000D01*
X142648061Y-106715000D01*
X142448102Y-106754774D01*
X142259744Y-106832795D01*
X142090226Y-106946063D01*
X141946063Y-107090226D01*
X141832795Y-107259744D01*
X141754774Y-107448102D01*
X141715000Y-107648061D01*
X141715000Y-107851939D01*
X141754774Y-108051898D01*
X141832795Y-108240256D01*
X141946063Y-108409774D01*
X142090226Y-108553937D01*
X142259744Y-108667205D01*
X142448102Y-108745226D01*
X142648061Y-108785000D01*
X142851939Y-108785000D01*
X143051898Y-108745226D01*
X143240256Y-108667205D01*
X143361928Y-108585907D01*
X143361928Y-109250000D01*
X143374188Y-109374482D01*
X143381929Y-109400000D01*
X143374188Y-109425518D01*
X143361928Y-109550000D01*
X143361928Y-110350000D01*
X143374188Y-110474482D01*
X143381929Y-110500000D01*
X143374188Y-110525518D01*
X143361928Y-110650000D01*
X143361928Y-111450000D01*
X143374188Y-111574482D01*
X143381929Y-111600000D01*
X143374188Y-111625518D01*
X143361928Y-111750000D01*
X143361928Y-112490000D01*
X142537322Y-112490000D01*
X142499999Y-112486324D01*
X142472673Y-112489015D01*
X142351939Y-112465000D01*
X142148061Y-112465000D01*
X141948102Y-112504774D01*
X141759744Y-112582795D01*
X141590226Y-112696063D01*
X141446063Y-112840226D01*
X141332795Y-113009744D01*
X141254774Y-113198102D01*
X141215000Y-113398061D01*
X141215000Y-113601939D01*
X141254774Y-113801898D01*
X141332795Y-113990256D01*
X141446063Y-114159774D01*
X141590226Y-114303937D01*
X141680159Y-114364028D01*
X141582795Y-114509744D01*
X141504774Y-114698102D01*
X141465000Y-114898061D01*
X141465000Y-115101939D01*
X141504774Y-115301898D01*
X141582795Y-115490256D01*
X141696063Y-115659774D01*
X141840226Y-115803937D01*
X142009744Y-115917205D01*
X142198102Y-115995226D01*
X142398061Y-116035000D01*
X142601939Y-116035000D01*
X142801898Y-115995226D01*
X142990256Y-115917205D01*
X143159774Y-115803937D01*
X143303937Y-115659774D01*
X143361928Y-115572984D01*
X143361928Y-115850000D01*
X143374188Y-115974482D01*
X143381929Y-116000000D01*
X143374188Y-116025518D01*
X143361928Y-116150000D01*
X143361928Y-116950000D01*
X143374188Y-117074482D01*
X143410498Y-117194180D01*
X143469463Y-117304494D01*
X143525684Y-117373000D01*
X135660000Y-117373000D01*
X135660000Y-113971542D01*
X135696589Y-113995990D01*
X135966842Y-114107932D01*
X136253740Y-114165000D01*
X136546260Y-114165000D01*
X136833158Y-114107932D01*
X137103411Y-113995990D01*
X137346632Y-113833475D01*
X137553475Y-113626632D01*
X137715990Y-113383411D01*
X137827932Y-113113158D01*
X137885000Y-112826260D01*
X137885000Y-112533740D01*
X137827932Y-112246842D01*
X137715990Y-111976589D01*
X137553475Y-111733368D01*
X137346632Y-111526525D01*
X137172240Y-111410000D01*
X137346632Y-111293475D01*
X137553475Y-111086632D01*
X137715990Y-110843411D01*
X137827932Y-110573158D01*
X137885000Y-110286260D01*
X137885000Y-109993740D01*
X137827932Y-109706842D01*
X137715990Y-109436589D01*
X137553475Y-109193368D01*
X137346632Y-108986525D01*
X137172240Y-108870000D01*
X137346632Y-108753475D01*
X137553475Y-108546632D01*
X137715990Y-108303411D01*
X137827932Y-108033158D01*
X137885000Y-107746260D01*
X137885000Y-107453740D01*
X137827932Y-107166842D01*
X137715990Y-106896589D01*
X137553475Y-106653368D01*
X137346632Y-106446525D01*
X137172240Y-106330000D01*
X137346632Y-106213475D01*
X137553475Y-106006632D01*
X137715990Y-105763411D01*
X137827932Y-105493158D01*
X137885000Y-105206260D01*
X137885000Y-104913740D01*
X137827932Y-104626842D01*
X137715990Y-104356589D01*
X137553475Y-104113368D01*
X137346632Y-103906525D01*
X137172240Y-103790000D01*
X137346632Y-103673475D01*
X137553475Y-103466632D01*
X137715990Y-103223411D01*
X137827932Y-102953158D01*
X137885000Y-102666260D01*
X137885000Y-102373740D01*
X137827932Y-102086842D01*
X137715990Y-101816589D01*
X137553475Y-101573368D01*
X137346632Y-101366525D01*
X137172240Y-101250000D01*
X137346632Y-101133475D01*
X137553475Y-100926632D01*
X137715990Y-100683411D01*
X137827932Y-100413158D01*
X137885000Y-100126260D01*
X137885000Y-99833740D01*
X137827932Y-99546842D01*
X137715990Y-99276589D01*
X137553475Y-99033368D01*
X137346632Y-98826525D01*
X137172240Y-98710000D01*
X137346632Y-98593475D01*
X137553475Y-98386632D01*
X137640001Y-98257137D01*
X137640001Y-98899078D01*
%TA.AperFunction,Conductor*%
D22*
G36*
X137640001Y-98899078D02*
G01*
X137636324Y-98936410D01*
X137650998Y-99085395D01*
X137694454Y-99228656D01*
X137765026Y-99360686D01*
X137831962Y-99442247D01*
X137860000Y-99476411D01*
X137888998Y-99500209D01*
X143349790Y-104961002D01*
X143373589Y-104990001D01*
X143380655Y-104995800D01*
X143381929Y-105000000D01*
X143374188Y-105025518D01*
X143361928Y-105150000D01*
X143361928Y-105950000D01*
X143374188Y-106074482D01*
X143381929Y-106100000D01*
X143374188Y-106125518D01*
X143361928Y-106250000D01*
X143361928Y-106914093D01*
X143240256Y-106832795D01*
X143051898Y-106754774D01*
X142851939Y-106715000D01*
X142648061Y-106715000D01*
X142448102Y-106754774D01*
X142259744Y-106832795D01*
X142090226Y-106946063D01*
X141946063Y-107090226D01*
X141832795Y-107259744D01*
X141754774Y-107448102D01*
X141715000Y-107648061D01*
X141715000Y-107851939D01*
X141754774Y-108051898D01*
X141832795Y-108240256D01*
X141946063Y-108409774D01*
X142090226Y-108553937D01*
X142259744Y-108667205D01*
X142448102Y-108745226D01*
X142648061Y-108785000D01*
X142851939Y-108785000D01*
X143051898Y-108745226D01*
X143240256Y-108667205D01*
X143361928Y-108585907D01*
X143361928Y-109250000D01*
X143374188Y-109374482D01*
X143381929Y-109400000D01*
X143374188Y-109425518D01*
X143361928Y-109550000D01*
X143361928Y-110350000D01*
X143374188Y-110474482D01*
X143381929Y-110500000D01*
X143374188Y-110525518D01*
X143361928Y-110650000D01*
X143361928Y-111450000D01*
X143374188Y-111574482D01*
X143381929Y-111600000D01*
X143374188Y-111625518D01*
X143361928Y-111750000D01*
X143361928Y-112490000D01*
X142537322Y-112490000D01*
X142499999Y-112486324D01*
X142472673Y-112489015D01*
X142351939Y-112465000D01*
X142148061Y-112465000D01*
X141948102Y-112504774D01*
X141759744Y-112582795D01*
X141590226Y-112696063D01*
X141446063Y-112840226D01*
X141332795Y-113009744D01*
X141254774Y-113198102D01*
X141215000Y-113398061D01*
X141215000Y-113601939D01*
X141254774Y-113801898D01*
X141332795Y-113990256D01*
X141446063Y-114159774D01*
X141590226Y-114303937D01*
X141680159Y-114364028D01*
X141582795Y-114509744D01*
X141504774Y-114698102D01*
X141465000Y-114898061D01*
X141465000Y-115101939D01*
X141504774Y-115301898D01*
X141582795Y-115490256D01*
X141696063Y-115659774D01*
X141840226Y-115803937D01*
X142009744Y-115917205D01*
X142198102Y-115995226D01*
X142398061Y-116035000D01*
X142601939Y-116035000D01*
X142801898Y-115995226D01*
X142990256Y-115917205D01*
X143159774Y-115803937D01*
X143303937Y-115659774D01*
X143361928Y-115572984D01*
X143361928Y-115850000D01*
X143374188Y-115974482D01*
X143381929Y-116000000D01*
X143374188Y-116025518D01*
X143361928Y-116150000D01*
X143361928Y-116950000D01*
X143374188Y-117074482D01*
X143410498Y-117194180D01*
X143469463Y-117304494D01*
X143525684Y-117373000D01*
X135660000Y-117373000D01*
X135660000Y-113971542D01*
X135696589Y-113995990D01*
X135966842Y-114107932D01*
X136253740Y-114165000D01*
X136546260Y-114165000D01*
X136833158Y-114107932D01*
X137103411Y-113995990D01*
X137346632Y-113833475D01*
X137553475Y-113626632D01*
X137715990Y-113383411D01*
X137827932Y-113113158D01*
X137885000Y-112826260D01*
X137885000Y-112533740D01*
X137827932Y-112246842D01*
X137715990Y-111976589D01*
X137553475Y-111733368D01*
X137346632Y-111526525D01*
X137172240Y-111410000D01*
X137346632Y-111293475D01*
X137553475Y-111086632D01*
X137715990Y-110843411D01*
X137827932Y-110573158D01*
X137885000Y-110286260D01*
X137885000Y-109993740D01*
X137827932Y-109706842D01*
X137715990Y-109436589D01*
X137553475Y-109193368D01*
X137346632Y-108986525D01*
X137172240Y-108870000D01*
X137346632Y-108753475D01*
X137553475Y-108546632D01*
X137715990Y-108303411D01*
X137827932Y-108033158D01*
X137885000Y-107746260D01*
X137885000Y-107453740D01*
X137827932Y-107166842D01*
X137715990Y-106896589D01*
X137553475Y-106653368D01*
X137346632Y-106446525D01*
X137172240Y-106330000D01*
X137346632Y-106213475D01*
X137553475Y-106006632D01*
X137715990Y-105763411D01*
X137827932Y-105493158D01*
X137885000Y-105206260D01*
X137885000Y-104913740D01*
X137827932Y-104626842D01*
X137715990Y-104356589D01*
X137553475Y-104113368D01*
X137346632Y-103906525D01*
X137172240Y-103790000D01*
X137346632Y-103673475D01*
X137553475Y-103466632D01*
X137715990Y-103223411D01*
X137827932Y-102953158D01*
X137885000Y-102666260D01*
X137885000Y-102373740D01*
X137827932Y-102086842D01*
X137715990Y-101816589D01*
X137553475Y-101573368D01*
X137346632Y-101366525D01*
X137172240Y-101250000D01*
X137346632Y-101133475D01*
X137553475Y-100926632D01*
X137715990Y-100683411D01*
X137827932Y-100413158D01*
X137885000Y-100126260D01*
X137885000Y-99833740D01*
X137827932Y-99546842D01*
X137715990Y-99276589D01*
X137553475Y-99033368D01*
X137346632Y-98826525D01*
X137172240Y-98710000D01*
X137346632Y-98593475D01*
X137553475Y-98386632D01*
X137640001Y-98257137D01*
X137640001Y-98899078D01*
G37*
%TD.AperFunction*%
D21*
X166861997Y-100124298D02*
X166861928Y-100124999D01*
X166861928Y-100650001D01*
X166878992Y-100823255D01*
X166929528Y-100989851D01*
X167011595Y-101143387D01*
X167122038Y-101277962D01*
X167148891Y-101300000D01*
X167122038Y-101322038D01*
X167011595Y-101456613D01*
X166993749Y-101490000D01*
X166756018Y-101490000D01*
X166681185Y-101398815D01*
X166584494Y-101319463D01*
X166474180Y-101260498D01*
X166354482Y-101224188D01*
X166230000Y-101211928D01*
X163230000Y-101211928D01*
X163105518Y-101224188D01*
X162985820Y-101260498D01*
X162875506Y-101319463D01*
X162778815Y-101398815D01*
X162699463Y-101495506D01*
X162640498Y-101605820D01*
X162604188Y-101725518D01*
X162591928Y-101850000D01*
X162591928Y-102650000D01*
X162604188Y-102774482D01*
X162611929Y-102800000D01*
X162604188Y-102825518D01*
X162591928Y-102950000D01*
X162595000Y-103064250D01*
X162753750Y-103223000D01*
X162954947Y-103223000D01*
X162985820Y-103239502D01*
X163105518Y-103275812D01*
X163230000Y-103288072D01*
X166230000Y-103288072D01*
X166354482Y-103275812D01*
X166474180Y-103239502D01*
X166505053Y-103223000D01*
X166706250Y-103223000D01*
X166865000Y-103064250D01*
X166866459Y-103010000D01*
X167045746Y-103010000D01*
X167122038Y-103102962D01*
X167256613Y-103213405D01*
X167410149Y-103295472D01*
X167576745Y-103346008D01*
X167749999Y-103363072D01*
X168650001Y-103363072D01*
X168823255Y-103346008D01*
X168989851Y-103295472D01*
X169143387Y-103213405D01*
X169277962Y-103102962D01*
X169322419Y-103048791D01*
X169431614Y-103138405D01*
X169585150Y-103220472D01*
X169751746Y-103271008D01*
X169925000Y-103288072D01*
X170875000Y-103288072D01*
X171048254Y-103271008D01*
X171214850Y-103220472D01*
X171368386Y-103138405D01*
X171502962Y-103027962D01*
X171517703Y-103010000D01*
X171854868Y-103010000D01*
X171976480Y-103131612D01*
X172162376Y-103255824D01*
X172368933Y-103341383D01*
X172472220Y-103361928D01*
X172000000Y-103361928D01*
X171875518Y-103374188D01*
X171755820Y-103410498D01*
X171645506Y-103469463D01*
X171548815Y-103548815D01*
X171500000Y-103608296D01*
X171451185Y-103548815D01*
X171354494Y-103469463D01*
X171244180Y-103410498D01*
X171124482Y-103374188D01*
X171000000Y-103361928D01*
X169500000Y-103361928D01*
X169375518Y-103374188D01*
X169255820Y-103410498D01*
X169145506Y-103469463D01*
X169048815Y-103548815D01*
X168969463Y-103645506D01*
X168945680Y-103690000D01*
X166866459Y-103690000D01*
X166865000Y-103635750D01*
X166706250Y-103477000D01*
X166505053Y-103477000D01*
X166474180Y-103460498D01*
X166354482Y-103424188D01*
X166230000Y-103411928D01*
X163230000Y-103411928D01*
X163105518Y-103424188D01*
X162985820Y-103460498D01*
X162954947Y-103477000D01*
X162753750Y-103477000D01*
X162595000Y-103635750D01*
X162591928Y-103750000D01*
X162604188Y-103874482D01*
X162611929Y-103900000D01*
X162604188Y-103925518D01*
X162591928Y-104050000D01*
X162591928Y-104850000D01*
X162604188Y-104974482D01*
X162611929Y-105000000D01*
X162604188Y-105025518D01*
X162591928Y-105150000D01*
X162591928Y-105950000D01*
X162604188Y-106074482D01*
X162611929Y-106100000D01*
X162604188Y-106125518D01*
X162591928Y-106250000D01*
X162591928Y-107050000D01*
X162604188Y-107174482D01*
X162611929Y-107200000D01*
X162604188Y-107225518D01*
X162591928Y-107350000D01*
X162591928Y-108150000D01*
X162604188Y-108274482D01*
X162611929Y-108300000D01*
X162604188Y-108325518D01*
X162591928Y-108450000D01*
X162591928Y-109250000D01*
X162604188Y-109374482D01*
X162611929Y-109400000D01*
X162604188Y-109425518D01*
X162591928Y-109550000D01*
X162591928Y-110350000D01*
X162604188Y-110474482D01*
X162611929Y-110500000D01*
X162604188Y-110525518D01*
X162591928Y-110650000D01*
X162591928Y-111450000D01*
X162604188Y-111574482D01*
X162611929Y-111600000D01*
X162604188Y-111625518D01*
X162591928Y-111750000D01*
X162591928Y-112550000D01*
X162604188Y-112674482D01*
X162611929Y-112700000D01*
X162604188Y-112725518D01*
X162591928Y-112850000D01*
X162591928Y-113650000D01*
X162604188Y-113774482D01*
X162611929Y-113800000D01*
X162604188Y-113825518D01*
X162591928Y-113950000D01*
X162591928Y-114750000D01*
X162604188Y-114874482D01*
X162611929Y-114900000D01*
X162604188Y-114925518D01*
X162591928Y-115050000D01*
X162591928Y-115850000D01*
X162604188Y-115974482D01*
X162611929Y-116000000D01*
X162604188Y-116025518D01*
X162591928Y-116150000D01*
X162595000Y-116264250D01*
X162753750Y-116423000D01*
X162954947Y-116423000D01*
X162985820Y-116439502D01*
X163105518Y-116475812D01*
X163230000Y-116488072D01*
X166230000Y-116488072D01*
X166354482Y-116475812D01*
X166474180Y-116439502D01*
X166505053Y-116423000D01*
X166706250Y-116423000D01*
X166865000Y-116264250D01*
X166868072Y-116150000D01*
X166855812Y-116025518D01*
X166848071Y-116000000D01*
X166855812Y-115974482D01*
X166868072Y-115850000D01*
X166868072Y-115050000D01*
X166855812Y-114925518D01*
X166848071Y-114900000D01*
X166855812Y-114874482D01*
X166868072Y-114750000D01*
X166868072Y-113950000D01*
X166855812Y-113825518D01*
X166848071Y-113800000D01*
X166855812Y-113774482D01*
X166868072Y-113650000D01*
X166868072Y-112948124D01*
X171115874Y-112948124D01*
X171240871Y-113123000D01*
X172083000Y-113123000D01*
X172083000Y-112282046D01*
X171908126Y-112155881D01*
X171853136Y-112172554D01*
X171649794Y-112262877D01*
X171467980Y-112391135D01*
X171314682Y-112552399D01*
X171195790Y-112740471D01*
X171115874Y-112948124D01*
X166868072Y-112948124D01*
X166868072Y-112850000D01*
X166855812Y-112725518D01*
X166848071Y-112700000D01*
X166855812Y-112674482D01*
X166868072Y-112550000D01*
X166868072Y-111750000D01*
X166855812Y-111625518D01*
X166848071Y-111600000D01*
X166855812Y-111574482D01*
X166868072Y-111450000D01*
X166868072Y-110650000D01*
X166855812Y-110525518D01*
X166848071Y-110500000D01*
X166855812Y-110474482D01*
X166868072Y-110350000D01*
X166868072Y-109550000D01*
X166856369Y-109431171D01*
X166936200Y-109511002D01*
X166959999Y-109540001D01*
X166988997Y-109563799D01*
X167075723Y-109634974D01*
X167166005Y-109683231D01*
X167207753Y-109705546D01*
X167351014Y-109749003D01*
X167462667Y-109760000D01*
X167462677Y-109760000D01*
X167500000Y-109763676D01*
X167537323Y-109760000D01*
X168918954Y-109760000D01*
X168969463Y-109854494D01*
X169048815Y-109951185D01*
X169145506Y-110030537D01*
X169255820Y-110089502D01*
X169375518Y-110125812D01*
X169500000Y-110138072D01*
X171000000Y-110138072D01*
X171124482Y-110125812D01*
X171244180Y-110089502D01*
X171354494Y-110030537D01*
X171451185Y-109951185D01*
X171500000Y-109891704D01*
X171548815Y-109951185D01*
X171645506Y-110030537D01*
X171755820Y-110089502D01*
X171875518Y-110125812D01*
X172000000Y-110138072D01*
X173063271Y-110138072D01*
X173686201Y-110761003D01*
X173709999Y-110790001D01*
X173738997Y-110813799D01*
X173825723Y-110884974D01*
X173927737Y-110939502D01*
X173957753Y-110955546D01*
X173981103Y-110962629D01*
X174004528Y-111039851D01*
X174086595Y-111193387D01*
X174197038Y-111327962D01*
X174331613Y-111438405D01*
X174485149Y-111520472D01*
X174651745Y-111571008D01*
X174824999Y-111588072D01*
X175350001Y-111588072D01*
X175523255Y-111571008D01*
X175689851Y-111520472D01*
X175843387Y-111438405D01*
X175977962Y-111327962D01*
X176000000Y-111301109D01*
X176022038Y-111327962D01*
X176156613Y-111438405D01*
X176310149Y-111520472D01*
X176476745Y-111571008D01*
X176530001Y-111576253D01*
X176530000Y-112168954D01*
X176456820Y-112208070D01*
X176376864Y-112172554D01*
X176321874Y-112155881D01*
X176147000Y-112282046D01*
X176147000Y-113123000D01*
X176151928Y-113123000D01*
X176151928Y-113377000D01*
X176147000Y-113377000D01*
X176147000Y-113388026D01*
X176131788Y-113385000D01*
X175908212Y-113385000D01*
X175893000Y-113388026D01*
X175893000Y-113377000D01*
X174877000Y-113377000D01*
X174877000Y-113388026D01*
X174861788Y-113385000D01*
X174638212Y-113385000D01*
X174623000Y-113388026D01*
X174623000Y-113377000D01*
X174611974Y-113377000D01*
X174615000Y-113361788D01*
X174615000Y-113138212D01*
X174611974Y-113123000D01*
X174623000Y-113123000D01*
X174623000Y-112282046D01*
X174877000Y-112282046D01*
X174877000Y-113123000D01*
X175893000Y-113123000D01*
X175893000Y-112282046D01*
X175718126Y-112155881D01*
X175663136Y-112172554D01*
X175459794Y-112262877D01*
X175385000Y-112315639D01*
X175310206Y-112262877D01*
X175106864Y-112172554D01*
X175051874Y-112155881D01*
X174877000Y-112282046D01*
X174623000Y-112282046D01*
X174448126Y-112155881D01*
X174393136Y-112172554D01*
X174189794Y-112262877D01*
X174119658Y-112312353D01*
X174017624Y-112244176D01*
X173811067Y-112158617D01*
X173591788Y-112115000D01*
X173368212Y-112115000D01*
X173148933Y-112158617D01*
X172942376Y-112244176D01*
X172840342Y-112312353D01*
X172770206Y-112262877D01*
X172566864Y-112172554D01*
X172511874Y-112155881D01*
X172337000Y-112282046D01*
X172337000Y-113123000D01*
X172348026Y-113123000D01*
X172345000Y-113138212D01*
X172345000Y-113361788D01*
X172348026Y-113377000D01*
X172337000Y-113377000D01*
X172337000Y-113388026D01*
X172321788Y-113385000D01*
X172098212Y-113385000D01*
X172083000Y-113388026D01*
X172083000Y-113377000D01*
X171240871Y-113377000D01*
X171115874Y-113551876D01*
X171195790Y-113759529D01*
X171272256Y-113880488D01*
X171204176Y-113982376D01*
X171118617Y-114188933D01*
X171075000Y-114408212D01*
X171075000Y-114631788D01*
X171118617Y-114851067D01*
X171204176Y-115057624D01*
X171328388Y-115243520D01*
X171486480Y-115401612D01*
X171672376Y-115525824D01*
X171878933Y-115611383D01*
X171895000Y-115614579D01*
X171895000Y-115617667D01*
X171891323Y-115654999D01*
X171895000Y-115692332D01*
X171896302Y-115705546D01*
X171905997Y-115803984D01*
X171949453Y-115947245D01*
X172020025Y-116079275D01*
X172078068Y-116150000D01*
X172114999Y-116195000D01*
X172143997Y-116218798D01*
X173298198Y-117373000D01*
X166704316Y-117373000D01*
X166760537Y-117304494D01*
X166819502Y-117194180D01*
X166855812Y-117074482D01*
X166868072Y-116950000D01*
X166865000Y-116835750D01*
X166706250Y-116677000D01*
X164857000Y-116677000D01*
X164857000Y-116697000D01*
X164603000Y-116697000D01*
X164603000Y-116677000D01*
X162753750Y-116677000D01*
X162595000Y-116835750D01*
X162591928Y-116950000D01*
X162604188Y-117074482D01*
X162640498Y-117194180D01*
X162699463Y-117304494D01*
X162755684Y-117373000D01*
X147474316Y-117373000D01*
X147530537Y-117304494D01*
X147589502Y-117194180D01*
X147625812Y-117074482D01*
X147638072Y-116950000D01*
X147638072Y-116150000D01*
X147625812Y-116025518D01*
X147618071Y-116000000D01*
X147625812Y-115974482D01*
X147638072Y-115850000D01*
X147638072Y-115050000D01*
X147625812Y-114925518D01*
X147618071Y-114900000D01*
X147625812Y-114874482D01*
X147638072Y-114750000D01*
X147638072Y-113950000D01*
X147625812Y-113825518D01*
X147618071Y-113800000D01*
X147625812Y-113774482D01*
X147638072Y-113650000D01*
X147638072Y-112850000D01*
X147625812Y-112725518D01*
X147618071Y-112700000D01*
X147625812Y-112674482D01*
X147638072Y-112550000D01*
X147638072Y-111750000D01*
X147625812Y-111625518D01*
X147618071Y-111600000D01*
X147625812Y-111574482D01*
X147638072Y-111450000D01*
X147638072Y-110650000D01*
X147625812Y-110525518D01*
X147618071Y-110500000D01*
X147625812Y-110474482D01*
X147638072Y-110350000D01*
X147638072Y-109550000D01*
X147625812Y-109425518D01*
X147618071Y-109400000D01*
X147625812Y-109374482D01*
X147638072Y-109250000D01*
X147638072Y-108450000D01*
X147625812Y-108325518D01*
X147618071Y-108300000D01*
X147625812Y-108274482D01*
X147638072Y-108150000D01*
X147638072Y-107350000D01*
X147625812Y-107225518D01*
X147618071Y-107200000D01*
X147625812Y-107174482D01*
X147638072Y-107050000D01*
X147638072Y-106250000D01*
X147625812Y-106125518D01*
X147618071Y-106100000D01*
X147625812Y-106074482D01*
X147638072Y-105950000D01*
X147638072Y-105210000D01*
X148212678Y-105210000D01*
X148250000Y-105213676D01*
X148287322Y-105210000D01*
X148287333Y-105210000D01*
X148398986Y-105199003D01*
X148542247Y-105155546D01*
X148674276Y-105084974D01*
X148790001Y-104990001D01*
X148813803Y-104960998D01*
X148939801Y-104835000D01*
X149001939Y-104835000D01*
X149201898Y-104795226D01*
X149390256Y-104717205D01*
X149559774Y-104603937D01*
X149703937Y-104459774D01*
X149817205Y-104290256D01*
X149895226Y-104101898D01*
X149935000Y-103901939D01*
X149935000Y-103698061D01*
X149895226Y-103498102D01*
X149817205Y-103309744D01*
X149703937Y-103140226D01*
X149627972Y-103064261D01*
X149695226Y-102901898D01*
X149735000Y-102701939D01*
X149735000Y-102498061D01*
X149695226Y-102298102D01*
X149617205Y-102109744D01*
X149503937Y-101940226D01*
X149359774Y-101796063D01*
X149190256Y-101682795D01*
X149001898Y-101604774D01*
X148801939Y-101565000D01*
X148598061Y-101565000D01*
X148398102Y-101604774D01*
X148209744Y-101682795D01*
X148040226Y-101796063D01*
X147896063Y-101940226D01*
X147782795Y-102109744D01*
X147704774Y-102298102D01*
X147665000Y-102498061D01*
X147665000Y-102560199D01*
X147638072Y-102587127D01*
X147638072Y-101850000D01*
X147625812Y-101725518D01*
X147589502Y-101605820D01*
X147530537Y-101495506D01*
X147451185Y-101398815D01*
X147354494Y-101319463D01*
X147304541Y-101292762D01*
X147310000Y-101237333D01*
X147310000Y-101237324D01*
X147313676Y-101200001D01*
X147310000Y-101162678D01*
X147310000Y-100034999D01*
X166772698Y-100034999D01*
X166861997Y-100124298D01*
%TA.AperFunction,Conductor*%
D22*
G36*
X166861997Y-100124298D02*
G01*
X166861928Y-100124999D01*
X166861928Y-100650001D01*
X166878992Y-100823255D01*
X166929528Y-100989851D01*
X167011595Y-101143387D01*
X167122038Y-101277962D01*
X167148891Y-101300000D01*
X167122038Y-101322038D01*
X167011595Y-101456613D01*
X166993749Y-101490000D01*
X166756018Y-101490000D01*
X166681185Y-101398815D01*
X166584494Y-101319463D01*
X166474180Y-101260498D01*
X166354482Y-101224188D01*
X166230000Y-101211928D01*
X163230000Y-101211928D01*
X163105518Y-101224188D01*
X162985820Y-101260498D01*
X162875506Y-101319463D01*
X162778815Y-101398815D01*
X162699463Y-101495506D01*
X162640498Y-101605820D01*
X162604188Y-101725518D01*
X162591928Y-101850000D01*
X162591928Y-102650000D01*
X162604188Y-102774482D01*
X162611929Y-102800000D01*
X162604188Y-102825518D01*
X162591928Y-102950000D01*
X162595000Y-103064250D01*
X162753750Y-103223000D01*
X162954947Y-103223000D01*
X162985820Y-103239502D01*
X163105518Y-103275812D01*
X163230000Y-103288072D01*
X166230000Y-103288072D01*
X166354482Y-103275812D01*
X166474180Y-103239502D01*
X166505053Y-103223000D01*
X166706250Y-103223000D01*
X166865000Y-103064250D01*
X166866459Y-103010000D01*
X167045746Y-103010000D01*
X167122038Y-103102962D01*
X167256613Y-103213405D01*
X167410149Y-103295472D01*
X167576745Y-103346008D01*
X167749999Y-103363072D01*
X168650001Y-103363072D01*
X168823255Y-103346008D01*
X168989851Y-103295472D01*
X169143387Y-103213405D01*
X169277962Y-103102962D01*
X169322419Y-103048791D01*
X169431614Y-103138405D01*
X169585150Y-103220472D01*
X169751746Y-103271008D01*
X169925000Y-103288072D01*
X170875000Y-103288072D01*
X171048254Y-103271008D01*
X171214850Y-103220472D01*
X171368386Y-103138405D01*
X171502962Y-103027962D01*
X171517703Y-103010000D01*
X171854868Y-103010000D01*
X171976480Y-103131612D01*
X172162376Y-103255824D01*
X172368933Y-103341383D01*
X172472220Y-103361928D01*
X172000000Y-103361928D01*
X171875518Y-103374188D01*
X171755820Y-103410498D01*
X171645506Y-103469463D01*
X171548815Y-103548815D01*
X171500000Y-103608296D01*
X171451185Y-103548815D01*
X171354494Y-103469463D01*
X171244180Y-103410498D01*
X171124482Y-103374188D01*
X171000000Y-103361928D01*
X169500000Y-103361928D01*
X169375518Y-103374188D01*
X169255820Y-103410498D01*
X169145506Y-103469463D01*
X169048815Y-103548815D01*
X168969463Y-103645506D01*
X168945680Y-103690000D01*
X166866459Y-103690000D01*
X166865000Y-103635750D01*
X166706250Y-103477000D01*
X166505053Y-103477000D01*
X166474180Y-103460498D01*
X166354482Y-103424188D01*
X166230000Y-103411928D01*
X163230000Y-103411928D01*
X163105518Y-103424188D01*
X162985820Y-103460498D01*
X162954947Y-103477000D01*
X162753750Y-103477000D01*
X162595000Y-103635750D01*
X162591928Y-103750000D01*
X162604188Y-103874482D01*
X162611929Y-103900000D01*
X162604188Y-103925518D01*
X162591928Y-104050000D01*
X162591928Y-104850000D01*
X162604188Y-104974482D01*
X162611929Y-105000000D01*
X162604188Y-105025518D01*
X162591928Y-105150000D01*
X162591928Y-105950000D01*
X162604188Y-106074482D01*
X162611929Y-106100000D01*
X162604188Y-106125518D01*
X162591928Y-106250000D01*
X162591928Y-107050000D01*
X162604188Y-107174482D01*
X162611929Y-107200000D01*
X162604188Y-107225518D01*
X162591928Y-107350000D01*
X162591928Y-108150000D01*
X162604188Y-108274482D01*
X162611929Y-108300000D01*
X162604188Y-108325518D01*
X162591928Y-108450000D01*
X162591928Y-109250000D01*
X162604188Y-109374482D01*
X162611929Y-109400000D01*
X162604188Y-109425518D01*
X162591928Y-109550000D01*
X162591928Y-110350000D01*
X162604188Y-110474482D01*
X162611929Y-110500000D01*
X162604188Y-110525518D01*
X162591928Y-110650000D01*
X162591928Y-111450000D01*
X162604188Y-111574482D01*
X162611929Y-111600000D01*
X162604188Y-111625518D01*
X162591928Y-111750000D01*
X162591928Y-112550000D01*
X162604188Y-112674482D01*
X162611929Y-112700000D01*
X162604188Y-112725518D01*
X162591928Y-112850000D01*
X162591928Y-113650000D01*
X162604188Y-113774482D01*
X162611929Y-113800000D01*
X162604188Y-113825518D01*
X162591928Y-113950000D01*
X162591928Y-114750000D01*
X162604188Y-114874482D01*
X162611929Y-114900000D01*
X162604188Y-114925518D01*
X162591928Y-115050000D01*
X162591928Y-115850000D01*
X162604188Y-115974482D01*
X162611929Y-116000000D01*
X162604188Y-116025518D01*
X162591928Y-116150000D01*
X162595000Y-116264250D01*
X162753750Y-116423000D01*
X162954947Y-116423000D01*
X162985820Y-116439502D01*
X163105518Y-116475812D01*
X163230000Y-116488072D01*
X166230000Y-116488072D01*
X166354482Y-116475812D01*
X166474180Y-116439502D01*
X166505053Y-116423000D01*
X166706250Y-116423000D01*
X166865000Y-116264250D01*
X166868072Y-116150000D01*
X166855812Y-116025518D01*
X166848071Y-116000000D01*
X166855812Y-115974482D01*
X166868072Y-115850000D01*
X166868072Y-115050000D01*
X166855812Y-114925518D01*
X166848071Y-114900000D01*
X166855812Y-114874482D01*
X166868072Y-114750000D01*
X166868072Y-113950000D01*
X166855812Y-113825518D01*
X166848071Y-113800000D01*
X166855812Y-113774482D01*
X166868072Y-113650000D01*
X166868072Y-112948124D01*
X171115874Y-112948124D01*
X171240871Y-113123000D01*
X172083000Y-113123000D01*
X172083000Y-112282046D01*
X171908126Y-112155881D01*
X171853136Y-112172554D01*
X171649794Y-112262877D01*
X171467980Y-112391135D01*
X171314682Y-112552399D01*
X171195790Y-112740471D01*
X171115874Y-112948124D01*
X166868072Y-112948124D01*
X166868072Y-112850000D01*
X166855812Y-112725518D01*
X166848071Y-112700000D01*
X166855812Y-112674482D01*
X166868072Y-112550000D01*
X166868072Y-111750000D01*
X166855812Y-111625518D01*
X166848071Y-111600000D01*
X166855812Y-111574482D01*
X166868072Y-111450000D01*
X166868072Y-110650000D01*
X166855812Y-110525518D01*
X166848071Y-110500000D01*
X166855812Y-110474482D01*
X166868072Y-110350000D01*
X166868072Y-109550000D01*
X166856369Y-109431171D01*
X166936200Y-109511002D01*
X166959999Y-109540001D01*
X166988997Y-109563799D01*
X167075723Y-109634974D01*
X167166005Y-109683231D01*
X167207753Y-109705546D01*
X167351014Y-109749003D01*
X167462667Y-109760000D01*
X167462677Y-109760000D01*
X167500000Y-109763676D01*
X167537323Y-109760000D01*
X168918954Y-109760000D01*
X168969463Y-109854494D01*
X169048815Y-109951185D01*
X169145506Y-110030537D01*
X169255820Y-110089502D01*
X169375518Y-110125812D01*
X169500000Y-110138072D01*
X171000000Y-110138072D01*
X171124482Y-110125812D01*
X171244180Y-110089502D01*
X171354494Y-110030537D01*
X171451185Y-109951185D01*
X171500000Y-109891704D01*
X171548815Y-109951185D01*
X171645506Y-110030537D01*
X171755820Y-110089502D01*
X171875518Y-110125812D01*
X172000000Y-110138072D01*
X173063271Y-110138072D01*
X173686201Y-110761003D01*
X173709999Y-110790001D01*
X173738997Y-110813799D01*
X173825723Y-110884974D01*
X173927737Y-110939502D01*
X173957753Y-110955546D01*
X173981103Y-110962629D01*
X174004528Y-111039851D01*
X174086595Y-111193387D01*
X174197038Y-111327962D01*
X174331613Y-111438405D01*
X174485149Y-111520472D01*
X174651745Y-111571008D01*
X174824999Y-111588072D01*
X175350001Y-111588072D01*
X175523255Y-111571008D01*
X175689851Y-111520472D01*
X175843387Y-111438405D01*
X175977962Y-111327962D01*
X176000000Y-111301109D01*
X176022038Y-111327962D01*
X176156613Y-111438405D01*
X176310149Y-111520472D01*
X176476745Y-111571008D01*
X176530001Y-111576253D01*
X176530000Y-112168954D01*
X176456820Y-112208070D01*
X176376864Y-112172554D01*
X176321874Y-112155881D01*
X176147000Y-112282046D01*
X176147000Y-113123000D01*
X176151928Y-113123000D01*
X176151928Y-113377000D01*
X176147000Y-113377000D01*
X176147000Y-113388026D01*
X176131788Y-113385000D01*
X175908212Y-113385000D01*
X175893000Y-113388026D01*
X175893000Y-113377000D01*
X174877000Y-113377000D01*
X174877000Y-113388026D01*
X174861788Y-113385000D01*
X174638212Y-113385000D01*
X174623000Y-113388026D01*
X174623000Y-113377000D01*
X174611974Y-113377000D01*
X174615000Y-113361788D01*
X174615000Y-113138212D01*
X174611974Y-113123000D01*
X174623000Y-113123000D01*
X174623000Y-112282046D01*
X174877000Y-112282046D01*
X174877000Y-113123000D01*
X175893000Y-113123000D01*
X175893000Y-112282046D01*
X175718126Y-112155881D01*
X175663136Y-112172554D01*
X175459794Y-112262877D01*
X175385000Y-112315639D01*
X175310206Y-112262877D01*
X175106864Y-112172554D01*
X175051874Y-112155881D01*
X174877000Y-112282046D01*
X174623000Y-112282046D01*
X174448126Y-112155881D01*
X174393136Y-112172554D01*
X174189794Y-112262877D01*
X174119658Y-112312353D01*
X174017624Y-112244176D01*
X173811067Y-112158617D01*
X173591788Y-112115000D01*
X173368212Y-112115000D01*
X173148933Y-112158617D01*
X172942376Y-112244176D01*
X172840342Y-112312353D01*
X172770206Y-112262877D01*
X172566864Y-112172554D01*
X172511874Y-112155881D01*
X172337000Y-112282046D01*
X172337000Y-113123000D01*
X172348026Y-113123000D01*
X172345000Y-113138212D01*
X172345000Y-113361788D01*
X172348026Y-113377000D01*
X172337000Y-113377000D01*
X172337000Y-113388026D01*
X172321788Y-113385000D01*
X172098212Y-113385000D01*
X172083000Y-113388026D01*
X172083000Y-113377000D01*
X171240871Y-113377000D01*
X171115874Y-113551876D01*
X171195790Y-113759529D01*
X171272256Y-113880488D01*
X171204176Y-113982376D01*
X171118617Y-114188933D01*
X171075000Y-114408212D01*
X171075000Y-114631788D01*
X171118617Y-114851067D01*
X171204176Y-115057624D01*
X171328388Y-115243520D01*
X171486480Y-115401612D01*
X171672376Y-115525824D01*
X171878933Y-115611383D01*
X171895000Y-115614579D01*
X171895000Y-115617667D01*
X171891323Y-115654999D01*
X171895000Y-115692332D01*
X171896302Y-115705546D01*
X171905997Y-115803984D01*
X171949453Y-115947245D01*
X172020025Y-116079275D01*
X172078068Y-116150000D01*
X172114999Y-116195000D01*
X172143997Y-116218798D01*
X173298198Y-117373000D01*
X166704316Y-117373000D01*
X166760537Y-117304494D01*
X166819502Y-117194180D01*
X166855812Y-117074482D01*
X166868072Y-116950000D01*
X166865000Y-116835750D01*
X166706250Y-116677000D01*
X164857000Y-116677000D01*
X164857000Y-116697000D01*
X164603000Y-116697000D01*
X164603000Y-116677000D01*
X162753750Y-116677000D01*
X162595000Y-116835750D01*
X162591928Y-116950000D01*
X162604188Y-117074482D01*
X162640498Y-117194180D01*
X162699463Y-117304494D01*
X162755684Y-117373000D01*
X147474316Y-117373000D01*
X147530537Y-117304494D01*
X147589502Y-117194180D01*
X147625812Y-117074482D01*
X147638072Y-116950000D01*
X147638072Y-116150000D01*
X147625812Y-116025518D01*
X147618071Y-116000000D01*
X147625812Y-115974482D01*
X147638072Y-115850000D01*
X147638072Y-115050000D01*
X147625812Y-114925518D01*
X147618071Y-114900000D01*
X147625812Y-114874482D01*
X147638072Y-114750000D01*
X147638072Y-113950000D01*
X147625812Y-113825518D01*
X147618071Y-113800000D01*
X147625812Y-113774482D01*
X147638072Y-113650000D01*
X147638072Y-112850000D01*
X147625812Y-112725518D01*
X147618071Y-112700000D01*
X147625812Y-112674482D01*
X147638072Y-112550000D01*
X147638072Y-111750000D01*
X147625812Y-111625518D01*
X147618071Y-111600000D01*
X147625812Y-111574482D01*
X147638072Y-111450000D01*
X147638072Y-110650000D01*
X147625812Y-110525518D01*
X147618071Y-110500000D01*
X147625812Y-110474482D01*
X147638072Y-110350000D01*
X147638072Y-109550000D01*
X147625812Y-109425518D01*
X147618071Y-109400000D01*
X147625812Y-109374482D01*
X147638072Y-109250000D01*
X147638072Y-108450000D01*
X147625812Y-108325518D01*
X147618071Y-108300000D01*
X147625812Y-108274482D01*
X147638072Y-108150000D01*
X147638072Y-107350000D01*
X147625812Y-107225518D01*
X147618071Y-107200000D01*
X147625812Y-107174482D01*
X147638072Y-107050000D01*
X147638072Y-106250000D01*
X147625812Y-106125518D01*
X147618071Y-106100000D01*
X147625812Y-106074482D01*
X147638072Y-105950000D01*
X147638072Y-105210000D01*
X148212678Y-105210000D01*
X148250000Y-105213676D01*
X148287322Y-105210000D01*
X148287333Y-105210000D01*
X148398986Y-105199003D01*
X148542247Y-105155546D01*
X148674276Y-105084974D01*
X148790001Y-104990001D01*
X148813803Y-104960998D01*
X148939801Y-104835000D01*
X149001939Y-104835000D01*
X149201898Y-104795226D01*
X149390256Y-104717205D01*
X149559774Y-104603937D01*
X149703937Y-104459774D01*
X149817205Y-104290256D01*
X149895226Y-104101898D01*
X149935000Y-103901939D01*
X149935000Y-103698061D01*
X149895226Y-103498102D01*
X149817205Y-103309744D01*
X149703937Y-103140226D01*
X149627972Y-103064261D01*
X149695226Y-102901898D01*
X149735000Y-102701939D01*
X149735000Y-102498061D01*
X149695226Y-102298102D01*
X149617205Y-102109744D01*
X149503937Y-101940226D01*
X149359774Y-101796063D01*
X149190256Y-101682795D01*
X149001898Y-101604774D01*
X148801939Y-101565000D01*
X148598061Y-101565000D01*
X148398102Y-101604774D01*
X148209744Y-101682795D01*
X148040226Y-101796063D01*
X147896063Y-101940226D01*
X147782795Y-102109744D01*
X147704774Y-102298102D01*
X147665000Y-102498061D01*
X147665000Y-102560199D01*
X147638072Y-102587127D01*
X147638072Y-101850000D01*
X147625812Y-101725518D01*
X147589502Y-101605820D01*
X147530537Y-101495506D01*
X147451185Y-101398815D01*
X147354494Y-101319463D01*
X147304541Y-101292762D01*
X147310000Y-101237333D01*
X147310000Y-101237324D01*
X147313676Y-101200001D01*
X147310000Y-101162678D01*
X147310000Y-100034999D01*
X166772698Y-100034999D01*
X166861997Y-100124298D01*
G37*
%TD.AperFunction*%
D21*
X192542412Y-106060269D02*
X192758645Y-106255178D01*
X192875534Y-106324805D01*
X192693368Y-106446525D01*
X192486525Y-106653368D01*
X192370000Y-106827760D01*
X192253475Y-106653368D01*
X192046632Y-106446525D01*
X191872240Y-106330000D01*
X192046632Y-106213475D01*
X192253475Y-106006632D01*
X192371100Y-105830594D01*
X192542412Y-106060269D01*
%TA.AperFunction,Conductor*%
D22*
G36*
X192542412Y-106060269D02*
G01*
X192758645Y-106255178D01*
X192875534Y-106324805D01*
X192693368Y-106446525D01*
X192486525Y-106653368D01*
X192370000Y-106827760D01*
X192253475Y-106653368D01*
X192046632Y-106446525D01*
X191872240Y-106330000D01*
X192046632Y-106213475D01*
X192253475Y-106006632D01*
X192371100Y-105830594D01*
X192542412Y-106060269D01*
G37*
%TD.AperFunction*%
D21*
X193767000Y-104933000D02*
X193787000Y-104933000D01*
X193787000Y-105187000D01*
X193767000Y-105187000D01*
X193767000Y-105207000D01*
X193513000Y-105207000D01*
X193513000Y-105187000D01*
X193493000Y-105187000D01*
X193493000Y-104933000D01*
X193513000Y-104933000D01*
X193513000Y-104913000D01*
X193767000Y-104913000D01*
X193767000Y-104933000D01*
%TA.AperFunction,Conductor*%
D22*
G36*
X193767000Y-104933000D02*
G01*
X193787000Y-104933000D01*
X193787000Y-105187000D01*
X193767000Y-105187000D01*
X193767000Y-105207000D01*
X193513000Y-105207000D01*
X193513000Y-105187000D01*
X193493000Y-105187000D01*
X193493000Y-104933000D01*
X193513000Y-104933000D01*
X193513000Y-104913000D01*
X193767000Y-104913000D01*
X193767000Y-104933000D01*
G37*
%TD.AperFunction*%
D21*
X192486525Y-103466632D02*
X192693368Y-103673475D01*
X192875534Y-103795195D01*
X192758645Y-103864822D01*
X192542412Y-104059731D01*
X192371100Y-104289406D01*
X192253475Y-104113368D01*
X192046632Y-103906525D01*
X191872240Y-103790000D01*
X192046632Y-103673475D01*
X192253475Y-103466632D01*
X192370000Y-103292240D01*
X192486525Y-103466632D01*
%TA.AperFunction,Conductor*%
D22*
G36*
X192486525Y-103466632D02*
G01*
X192693368Y-103673475D01*
X192875534Y-103795195D01*
X192758645Y-103864822D01*
X192542412Y-104059731D01*
X192371100Y-104289406D01*
X192253475Y-104113368D01*
X192046632Y-103906525D01*
X191872240Y-103790000D01*
X192046632Y-103673475D01*
X192253475Y-103466632D01*
X192370000Y-103292240D01*
X192486525Y-103466632D01*
G37*
%TD.AperFunction*%
D21*
X140036200Y-98611002D02*
X140059999Y-98640001D01*
X140175724Y-98734974D01*
X140307753Y-98805546D01*
X140451014Y-98849003D01*
X140562667Y-98860000D01*
X140562677Y-98860000D01*
X140600000Y-98863676D01*
X140637323Y-98860000D01*
X141389080Y-98860000D01*
X141468377Y-98956623D01*
X141601058Y-99065512D01*
X141752433Y-99146423D01*
X141916684Y-99196248D01*
X142087500Y-99213072D01*
X142587500Y-99213072D01*
X142758316Y-99196248D01*
X142922567Y-99146423D01*
X143073942Y-99065512D01*
X143206623Y-98956623D01*
X143250000Y-98903768D01*
X143293377Y-98956623D01*
X143426058Y-99065512D01*
X143577433Y-99146423D01*
X143741684Y-99196248D01*
X143912500Y-99213072D01*
X144412500Y-99213072D01*
X144583316Y-99196248D01*
X144747567Y-99146423D01*
X144898942Y-99065512D01*
X145031623Y-98956623D01*
X145110920Y-98860000D01*
X145432555Y-98860000D01*
X145479528Y-99014850D01*
X145561595Y-99168386D01*
X145672038Y-99302962D01*
X145790001Y-99399771D01*
X145790000Y-100885198D01*
X145463271Y-101211928D01*
X144000000Y-101211928D01*
X143875518Y-101224188D01*
X143755820Y-101260498D01*
X143645506Y-101319463D01*
X143548815Y-101398815D01*
X143469463Y-101495506D01*
X143410498Y-101605820D01*
X143374188Y-101725518D01*
X143361928Y-101850000D01*
X143361928Y-102187126D01*
X139660000Y-98485199D01*
X139660000Y-98234802D01*
X140036200Y-98611002D01*
%TA.AperFunction,Conductor*%
D22*
G36*
X140036200Y-98611002D02*
G01*
X140059999Y-98640001D01*
X140175724Y-98734974D01*
X140307753Y-98805546D01*
X140451014Y-98849003D01*
X140562667Y-98860000D01*
X140562677Y-98860000D01*
X140600000Y-98863676D01*
X140637323Y-98860000D01*
X141389080Y-98860000D01*
X141468377Y-98956623D01*
X141601058Y-99065512D01*
X141752433Y-99146423D01*
X141916684Y-99196248D01*
X142087500Y-99213072D01*
X142587500Y-99213072D01*
X142758316Y-99196248D01*
X142922567Y-99146423D01*
X143073942Y-99065512D01*
X143206623Y-98956623D01*
X143250000Y-98903768D01*
X143293377Y-98956623D01*
X143426058Y-99065512D01*
X143577433Y-99146423D01*
X143741684Y-99196248D01*
X143912500Y-99213072D01*
X144412500Y-99213072D01*
X144583316Y-99196248D01*
X144747567Y-99146423D01*
X144898942Y-99065512D01*
X145031623Y-98956623D01*
X145110920Y-98860000D01*
X145432555Y-98860000D01*
X145479528Y-99014850D01*
X145561595Y-99168386D01*
X145672038Y-99302962D01*
X145790001Y-99399771D01*
X145790000Y-100885198D01*
X145463271Y-101211928D01*
X144000000Y-101211928D01*
X143875518Y-101224188D01*
X143755820Y-101260498D01*
X143645506Y-101319463D01*
X143548815Y-101398815D01*
X143469463Y-101495506D01*
X143410498Y-101605820D01*
X143374188Y-101725518D01*
X143361928Y-101850000D01*
X143361928Y-102187126D01*
X139660000Y-98485199D01*
X139660000Y-98234802D01*
X140036200Y-98611002D01*
G37*
%TD.AperFunction*%
D21*
X174611595Y-99631613D02*
X174529528Y-99785149D01*
X174478992Y-99951745D01*
X174461928Y-100124999D01*
X174461928Y-100650001D01*
X174478992Y-100823255D01*
X174529528Y-100989851D01*
X174611595Y-101143387D01*
X174722038Y-101277962D01*
X174748891Y-101300000D01*
X174722038Y-101322038D01*
X174614970Y-101452500D01*
X173507632Y-101452500D01*
X173423520Y-101368388D01*
X173237624Y-101244176D01*
X173031067Y-101158617D01*
X172811788Y-101115000D01*
X172588212Y-101115000D01*
X172368933Y-101158617D01*
X172162376Y-101244176D01*
X171976480Y-101368388D01*
X171854868Y-101490000D01*
X171657976Y-101490000D01*
X171613405Y-101406614D01*
X171502962Y-101272038D01*
X171496406Y-101266658D01*
X171576185Y-101201185D01*
X171655537Y-101104494D01*
X171714502Y-100994180D01*
X171750812Y-100874482D01*
X171763072Y-100750000D01*
X171760000Y-100535750D01*
X171601250Y-100377000D01*
X170527000Y-100377000D01*
X170527000Y-100397000D01*
X170273000Y-100397000D01*
X170273000Y-100377000D01*
X170253000Y-100377000D01*
X170253000Y-100123000D01*
X170273000Y-100123000D01*
X170273000Y-100103000D01*
X170527000Y-100103000D01*
X170527000Y-100123000D01*
X171601250Y-100123000D01*
X171760000Y-99964250D01*
X171763072Y-99750000D01*
X171750812Y-99625518D01*
X171715770Y-99510000D01*
X174711400Y-99510000D01*
X174611595Y-99631613D01*
%TA.AperFunction,Conductor*%
D22*
G36*
X174611595Y-99631613D02*
G01*
X174529528Y-99785149D01*
X174478992Y-99951745D01*
X174461928Y-100124999D01*
X174461928Y-100650001D01*
X174478992Y-100823255D01*
X174529528Y-100989851D01*
X174611595Y-101143387D01*
X174722038Y-101277962D01*
X174748891Y-101300000D01*
X174722038Y-101322038D01*
X174614970Y-101452500D01*
X173507632Y-101452500D01*
X173423520Y-101368388D01*
X173237624Y-101244176D01*
X173031067Y-101158617D01*
X172811788Y-101115000D01*
X172588212Y-101115000D01*
X172368933Y-101158617D01*
X172162376Y-101244176D01*
X171976480Y-101368388D01*
X171854868Y-101490000D01*
X171657976Y-101490000D01*
X171613405Y-101406614D01*
X171502962Y-101272038D01*
X171496406Y-101266658D01*
X171576185Y-101201185D01*
X171655537Y-101104494D01*
X171714502Y-100994180D01*
X171750812Y-100874482D01*
X171763072Y-100750000D01*
X171760000Y-100535750D01*
X171601250Y-100377000D01*
X170527000Y-100377000D01*
X170527000Y-100397000D01*
X170273000Y-100397000D01*
X170273000Y-100377000D01*
X170253000Y-100377000D01*
X170253000Y-100123000D01*
X170273000Y-100123000D01*
X170273000Y-100103000D01*
X170527000Y-100103000D01*
X170527000Y-100123000D01*
X171601250Y-100123000D01*
X171760000Y-99964250D01*
X171763072Y-99750000D01*
X171750812Y-99625518D01*
X171715770Y-99510000D01*
X174711400Y-99510000D01*
X174611595Y-99631613D01*
G37*
%TD.AperFunction*%
D21*
X192542412Y-98440269D02*
X192758645Y-98635178D01*
X192875534Y-98704805D01*
X192693368Y-98826525D01*
X192486525Y-99033368D01*
X192370000Y-99207760D01*
X192253475Y-99033368D01*
X192046632Y-98826525D01*
X191872240Y-98710000D01*
X192046632Y-98593475D01*
X192253475Y-98386632D01*
X192371100Y-98210594D01*
X192542412Y-98440269D01*
%TA.AperFunction,Conductor*%
D22*
G36*
X192542412Y-98440269D02*
G01*
X192758645Y-98635178D01*
X192875534Y-98704805D01*
X192693368Y-98826525D01*
X192486525Y-99033368D01*
X192370000Y-99207760D01*
X192253475Y-99033368D01*
X192046632Y-98826525D01*
X191872240Y-98710000D01*
X192046632Y-98593475D01*
X192253475Y-98386632D01*
X192371100Y-98210594D01*
X192542412Y-98440269D01*
G37*
%TD.AperFunction*%
D21*
X151540197Y-98514999D02*
X149585205Y-98514999D01*
X149585000Y-98485750D01*
X149426250Y-98327000D01*
X148577000Y-98327000D01*
X148577000Y-98347000D01*
X148323000Y-98347000D01*
X148323000Y-98327000D01*
X148303000Y-98327000D01*
X148303000Y-98073000D01*
X148323000Y-98073000D01*
X148323000Y-98053000D01*
X148577000Y-98053000D01*
X148577000Y-98073000D01*
X149426250Y-98073000D01*
X149585000Y-97914250D01*
X149586079Y-97760000D01*
X150785199Y-97760000D01*
X151540197Y-98514999D01*
%TA.AperFunction,Conductor*%
D22*
G36*
X151540197Y-98514999D02*
G01*
X149585205Y-98514999D01*
X149585000Y-98485750D01*
X149426250Y-98327000D01*
X148577000Y-98327000D01*
X148577000Y-98347000D01*
X148323000Y-98347000D01*
X148323000Y-98327000D01*
X148303000Y-98327000D01*
X148303000Y-98073000D01*
X148323000Y-98073000D01*
X148323000Y-98053000D01*
X148577000Y-98053000D01*
X148577000Y-98073000D01*
X149426250Y-98073000D01*
X149585000Y-97914250D01*
X149586079Y-97760000D01*
X150785199Y-97760000D01*
X151540197Y-98514999D01*
G37*
%TD.AperFunction*%
D21*
X193767000Y-97313000D02*
X193787000Y-97313000D01*
X193787000Y-97567000D01*
X193767000Y-97567000D01*
X193767000Y-97587000D01*
X193513000Y-97587000D01*
X193513000Y-97567000D01*
X193493000Y-97567000D01*
X193493000Y-97313000D01*
X193513000Y-97313000D01*
X193513000Y-97293000D01*
X193767000Y-97293000D01*
X193767000Y-97313000D01*
%TA.AperFunction,Conductor*%
D22*
G36*
X193767000Y-97313000D02*
G01*
X193787000Y-97313000D01*
X193787000Y-97567000D01*
X193767000Y-97567000D01*
X193767000Y-97587000D01*
X193513000Y-97587000D01*
X193513000Y-97567000D01*
X193493000Y-97567000D01*
X193493000Y-97313000D01*
X193513000Y-97313000D01*
X193513000Y-97293000D01*
X193767000Y-97293000D01*
X193767000Y-97313000D01*
G37*
%TD.AperFunction*%
D21*
X192486525Y-95846632D02*
X192693368Y-96053475D01*
X192875534Y-96175195D01*
X192758645Y-96244822D01*
X192542412Y-96439731D01*
X192371100Y-96669406D01*
X192253475Y-96493368D01*
X192046632Y-96286525D01*
X191872240Y-96170000D01*
X192046632Y-96053475D01*
X192253475Y-95846632D01*
X192370000Y-95672240D01*
X192486525Y-95846632D01*
%TA.AperFunction,Conductor*%
D22*
G36*
X192486525Y-95846632D02*
G01*
X192693368Y-96053475D01*
X192875534Y-96175195D01*
X192758645Y-96244822D01*
X192542412Y-96439731D01*
X192371100Y-96669406D01*
X192253475Y-96493368D01*
X192046632Y-96286525D01*
X191872240Y-96170000D01*
X192046632Y-96053475D01*
X192253475Y-95846632D01*
X192370000Y-95672240D01*
X192486525Y-95846632D01*
G37*
%TD.AperFunction*%
D21*
X192486525Y-93306632D02*
X192693368Y-93513475D01*
X192867760Y-93630000D01*
X192693368Y-93746525D01*
X192486525Y-93953368D01*
X192370000Y-94127760D01*
X192253475Y-93953368D01*
X192046632Y-93746525D01*
X191864466Y-93624805D01*
X191981355Y-93555178D01*
X192197588Y-93360269D01*
X192368900Y-93130594D01*
X192486525Y-93306632D01*
%TA.AperFunction,Conductor*%
D22*
G36*
X192486525Y-93306632D02*
G01*
X192693368Y-93513475D01*
X192867760Y-93630000D01*
X192693368Y-93746525D01*
X192486525Y-93953368D01*
X192370000Y-94127760D01*
X192253475Y-93953368D01*
X192046632Y-93746525D01*
X191864466Y-93624805D01*
X191981355Y-93555178D01*
X192197588Y-93360269D01*
X192368900Y-93130594D01*
X192486525Y-93306632D01*
G37*
%TD.AperFunction*%
D21*
X191227000Y-92233000D02*
X191247000Y-92233000D01*
X191247000Y-92487000D01*
X191227000Y-92487000D01*
X191227000Y-92507000D01*
X190973000Y-92507000D01*
X190973000Y-92487000D01*
X190953000Y-92487000D01*
X190953000Y-92233000D01*
X190973000Y-92233000D01*
X190973000Y-92213000D01*
X191227000Y-92213000D01*
X191227000Y-92233000D01*
%TA.AperFunction,Conductor*%
D22*
G36*
X191227000Y-92233000D02*
G01*
X191247000Y-92233000D01*
X191247000Y-92487000D01*
X191227000Y-92487000D01*
X191227000Y-92507000D01*
X190973000Y-92507000D01*
X190973000Y-92487000D01*
X190953000Y-92487000D01*
X190953000Y-92233000D01*
X190973000Y-92233000D01*
X190973000Y-92213000D01*
X191227000Y-92213000D01*
X191227000Y-92233000D01*
G37*
%TD.AperFunction*%
D21*
X192486525Y-90766632D02*
X192693368Y-90973475D01*
X192867760Y-91090000D01*
X192693368Y-91206525D01*
X192486525Y-91413368D01*
X192368900Y-91589406D01*
X192197588Y-91359731D01*
X191981355Y-91164822D01*
X191864466Y-91095195D01*
X192046632Y-90973475D01*
X192253475Y-90766632D01*
X192370000Y-90592240D01*
X192486525Y-90766632D01*
%TA.AperFunction,Conductor*%
D22*
G36*
X192486525Y-90766632D02*
G01*
X192693368Y-90973475D01*
X192867760Y-91090000D01*
X192693368Y-91206525D01*
X192486525Y-91413368D01*
X192368900Y-91589406D01*
X192197588Y-91359731D01*
X191981355Y-91164822D01*
X191864466Y-91095195D01*
X192046632Y-90973475D01*
X192253475Y-90766632D01*
X192370000Y-90592240D01*
X192486525Y-90766632D01*
G37*
%TD.AperFunction*%
D21*
X192542412Y-88280269D02*
X192758645Y-88475178D01*
X192875534Y-88544805D01*
X192693368Y-88666525D01*
X192486525Y-88873368D01*
X192370000Y-89047760D01*
X192253475Y-88873368D01*
X192046632Y-88666525D01*
X191872240Y-88550000D01*
X192046632Y-88433475D01*
X192253475Y-88226632D01*
X192371100Y-88050594D01*
X192542412Y-88280269D01*
%TA.AperFunction,Conductor*%
D22*
G36*
X192542412Y-88280269D02*
G01*
X192758645Y-88475178D01*
X192875534Y-88544805D01*
X192693368Y-88666525D01*
X192486525Y-88873368D01*
X192370000Y-89047760D01*
X192253475Y-88873368D01*
X192046632Y-88666525D01*
X191872240Y-88550000D01*
X192046632Y-88433475D01*
X192253475Y-88226632D01*
X192371100Y-88050594D01*
X192542412Y-88280269D01*
G37*
%TD.AperFunction*%
D21*
X138540000Y-85614802D02*
X138540001Y-88345199D01*
X137841209Y-87646408D01*
X137885000Y-87426260D01*
X137885000Y-87133740D01*
X137827932Y-86846842D01*
X137715990Y-86576589D01*
X137553475Y-86333368D01*
X137346632Y-86126525D01*
X137164466Y-86004805D01*
X137281355Y-85935178D01*
X137497588Y-85740269D01*
X137671641Y-85506920D01*
X137796825Y-85244099D01*
X137841476Y-85096890D01*
X137720156Y-84867002D01*
X137792200Y-84867002D01*
X138540000Y-85614802D01*
%TA.AperFunction,Conductor*%
D22*
G36*
X138540000Y-85614802D02*
G01*
X138540001Y-88345199D01*
X137841209Y-87646408D01*
X137885000Y-87426260D01*
X137885000Y-87133740D01*
X137827932Y-86846842D01*
X137715990Y-86576589D01*
X137553475Y-86333368D01*
X137346632Y-86126525D01*
X137164466Y-86004805D01*
X137281355Y-85935178D01*
X137497588Y-85740269D01*
X137671641Y-85506920D01*
X137796825Y-85244099D01*
X137841476Y-85096890D01*
X137720156Y-84867002D01*
X137792200Y-84867002D01*
X138540000Y-85614802D01*
G37*
%TD.AperFunction*%
D21*
X193767000Y-87153000D02*
X193787000Y-87153000D01*
X193787000Y-87407000D01*
X193767000Y-87407000D01*
X193767000Y-87427000D01*
X193513000Y-87427000D01*
X193513000Y-87407000D01*
X193493000Y-87407000D01*
X193493000Y-87153000D01*
X193513000Y-87153000D01*
X193513000Y-87133000D01*
X193767000Y-87133000D01*
X193767000Y-87153000D01*
%TA.AperFunction,Conductor*%
D22*
G36*
X193767000Y-87153000D02*
G01*
X193787000Y-87153000D01*
X193787000Y-87407000D01*
X193767000Y-87407000D01*
X193767000Y-87427000D01*
X193513000Y-87427000D01*
X193513000Y-87407000D01*
X193493000Y-87407000D01*
X193493000Y-87153000D01*
X193513000Y-87153000D01*
X193513000Y-87133000D01*
X193767000Y-87133000D01*
X193767000Y-87153000D01*
G37*
%TD.AperFunction*%
D21*
X136527000Y-84613000D02*
X136547000Y-84613000D01*
X136547000Y-84867000D01*
X136527000Y-84867000D01*
X136527000Y-84887000D01*
X136273000Y-84887000D01*
X136273000Y-84867000D01*
X136253000Y-84867000D01*
X136253000Y-84613000D01*
X136273000Y-84613000D01*
X136273000Y-84593000D01*
X136527000Y-84593000D01*
X136527000Y-84613000D01*
%TA.AperFunction,Conductor*%
D22*
G36*
X136527000Y-84613000D02*
G01*
X136547000Y-84613000D01*
X136547000Y-84867000D01*
X136527000Y-84867000D01*
X136527000Y-84887000D01*
X136273000Y-84887000D01*
X136273000Y-84867000D01*
X136253000Y-84867000D01*
X136253000Y-84613000D01*
X136273000Y-84613000D01*
X136273000Y-84593000D01*
X136527000Y-84593000D01*
X136527000Y-84613000D01*
G37*
%TD.AperFunction*%
D21*
X139840000Y-84759999D02*
X139811004Y-84736202D01*
X137888072Y-82813271D01*
X137888072Y-81350000D01*
X137875812Y-81225518D01*
X137839502Y-81105820D01*
X137780537Y-80995506D01*
X137701185Y-80898815D01*
X137604494Y-80819463D01*
X137494180Y-80760498D01*
X137374482Y-80724188D01*
X137250000Y-80711928D01*
X135660000Y-80711928D01*
X135660000Y-75740006D01*
X135660920Y-75740926D01*
X136133440Y-76056654D01*
X136658477Y-76274131D01*
X137215852Y-76385000D01*
X137784148Y-76385000D01*
X138341523Y-76274131D01*
X138866560Y-76056654D01*
X139339080Y-75740926D01*
X139740926Y-75339080D01*
X139840001Y-75190804D01*
X139840000Y-84759999D01*
%TA.AperFunction,Conductor*%
D22*
G36*
X139840000Y-84759999D02*
G01*
X139811004Y-84736202D01*
X137888072Y-82813271D01*
X137888072Y-81350000D01*
X137875812Y-81225518D01*
X137839502Y-81105820D01*
X137780537Y-80995506D01*
X137701185Y-80898815D01*
X137604494Y-80819463D01*
X137494180Y-80760498D01*
X137374482Y-80724188D01*
X137250000Y-80711928D01*
X135660000Y-80711928D01*
X135660000Y-75740006D01*
X135660920Y-75740926D01*
X136133440Y-76056654D01*
X136658477Y-76274131D01*
X137215852Y-76385000D01*
X137784148Y-76385000D01*
X138341523Y-76274131D01*
X138866560Y-76056654D01*
X139339080Y-75740926D01*
X139740926Y-75339080D01*
X139840001Y-75190804D01*
X139840000Y-84759999D01*
G37*
%TD.AperFunction*%
%TD*%
M02*
