%TF.GenerationSoftware,KiCad,Pcbnew,5.1.10-88a1d61d58~90~ubuntu20.04.1*%
%TF.CreationDate,2021-12-07T12:23:46+00:00*%
%TF.ProjectId,nrf52840,6e726635-3238-4343-902e-6b696361645f,rev?*%
%TF.SameCoordinates,Original*%
%TF.FileFunction,Copper,L2,Bot*%
%TF.FilePolarity,Positive*%
%FSLAX46Y46*%
G04 Gerber Fmt 4.6, Leading zero omitted, Abs format (unit mm)*
G04 Created by KiCad (PCBNEW 5.1.10-88a1d61d58~90~ubuntu20.04.1) date 2021-12-07 12:23:46*
%MOMM*%
%LPD*%
G01*
G04 APERTURE LIST*
%TA.AperFunction,ComponentPad*%
%ADD10O,1.700000X1.700000*%
%TD*%
%TA.AperFunction,ComponentPad*%
%ADD11R,1.700000X1.700000*%
%TD*%
%TA.AperFunction,ComponentPad*%
%ADD12C,4.500000*%
%TD*%
%TA.AperFunction,ComponentPad*%
%ADD13O,1.000000X1.000000*%
%TD*%
%TA.AperFunction,ComponentPad*%
%ADD14R,1.000000X1.000000*%
%TD*%
%TA.AperFunction,ViaPad*%
%ADD15C,0.800000*%
%TD*%
%TA.AperFunction,Conductor*%
%ADD16C,0.250000*%
%TD*%
%TA.AperFunction,Conductor*%
%ADD17C,0.254000*%
%TD*%
%TA.AperFunction,Conductor*%
%ADD18C,0.100000*%
%TD*%
G04 APERTURE END LIST*
D10*
%TO.P,J5,4*%
%TO.N,GND*%
X183600000Y-106320000D03*
%TO.P,J5,3*%
%TO.N,/USB2_DP*%
X183600000Y-103780000D03*
%TO.P,J5,2*%
%TO.N,/USB2_DM*%
X183600000Y-101240000D03*
D11*
%TO.P,J5,1*%
%TO.N,+5V*%
X183600000Y-98700000D03*
%TD*%
D12*
%TO.P,H4,1*%
%TO.N,N/C*%
X192500000Y-121500000D03*
%TD*%
%TO.P,H3,1*%
%TO.N,N/C*%
X192500000Y-73500000D03*
%TD*%
%TO.P,H2,1*%
%TO.N,N/C*%
X137500000Y-121500000D03*
%TD*%
%TO.P,H1,1*%
%TO.N,N/C*%
X137500000Y-73500000D03*
%TD*%
D13*
%TO.P,J4,10*%
%TO.N,Net-(C3-Pad1)*%
X172210000Y-114520000D03*
%TO.P,J4,9*%
%TO.N,GND*%
X172210000Y-113250000D03*
%TO.P,J4,8*%
%TO.N,N/C*%
X173480000Y-114520000D03*
%TO.P,J4,7*%
X173480000Y-113250000D03*
%TO.P,J4,6*%
X174750000Y-114520000D03*
%TO.P,J4,5*%
%TO.N,GND*%
X174750000Y-113250000D03*
%TO.P,J4,4*%
%TO.N,/SWDCLK*%
X176020000Y-114520000D03*
%TO.P,J4,3*%
%TO.N,GND*%
X176020000Y-113250000D03*
%TO.P,J4,2*%
%TO.N,/SWDIO*%
X177290000Y-114520000D03*
D14*
%TO.P,J4,1*%
%TO.N,VDD*%
X177290000Y-113250000D03*
%TD*%
D10*
%TO.P,J3,4*%
%TO.N,GND*%
X187300000Y-106320000D03*
%TO.P,J3,3*%
%TO.N,/USB3_DP*%
X187300000Y-103780000D03*
%TO.P,J3,2*%
%TO.N,/USB3_DM*%
X187300000Y-101240000D03*
D11*
%TO.P,J3,1*%
%TO.N,+5V*%
X187300000Y-98700000D03*
%TD*%
D10*
%TO.P,J2,13*%
%TO.N,N/C*%
X136400000Y-112680000D03*
%TO.P,J2,12*%
X136400000Y-110140000D03*
%TO.P,J2,11*%
X136400000Y-107600000D03*
%TO.P,J2,10*%
X136400000Y-105060000D03*
%TO.P,J2,9*%
X136400000Y-102520000D03*
%TO.P,J2,8*%
X136400000Y-99980000D03*
%TO.P,J2,7*%
X136400000Y-97440000D03*
%TO.P,J2,6*%
%TO.N,/USB3_DP*%
X136400000Y-94900000D03*
%TO.P,J2,5*%
%TO.N,/USB3_DM*%
X136400000Y-92360000D03*
%TO.P,J2,4*%
%TO.N,/USB2_DP*%
X136400000Y-89820000D03*
%TO.P,J2,3*%
%TO.N,/USB2_DM*%
X136400000Y-87280000D03*
%TO.P,J2,2*%
%TO.N,GND*%
X136400000Y-84740000D03*
D11*
%TO.P,J2,1*%
%TO.N,+5V*%
X136400000Y-82200000D03*
%TD*%
D10*
%TO.P,J1,26*%
%TO.N,N/C*%
X193640000Y-112680000D03*
%TO.P,J1,25*%
%TO.N,GND*%
X191100000Y-112680000D03*
%TO.P,J1,24*%
%TO.N,N/C*%
X193640000Y-110140000D03*
%TO.P,J1,23*%
X191100000Y-110140000D03*
%TO.P,J1,22*%
X193640000Y-107600000D03*
%TO.P,J1,21*%
X191100000Y-107600000D03*
%TO.P,J1,20*%
%TO.N,GND*%
X193640000Y-105060000D03*
%TO.P,J1,19*%
%TO.N,N/C*%
X191100000Y-105060000D03*
%TO.P,J1,18*%
X193640000Y-102520000D03*
%TO.P,J1,17*%
%TO.N,+3V3*%
X191100000Y-102520000D03*
%TO.P,J1,16*%
%TO.N,N/C*%
X193640000Y-99980000D03*
%TO.P,J1,15*%
X191100000Y-99980000D03*
%TO.P,J1,14*%
%TO.N,GND*%
X193640000Y-97440000D03*
%TO.P,J1,13*%
%TO.N,N/C*%
X191100000Y-97440000D03*
%TO.P,J1,12*%
X193640000Y-94900000D03*
%TO.P,J1,11*%
X191100000Y-94900000D03*
%TO.P,J1,10*%
X193640000Y-92360000D03*
%TO.P,J1,9*%
%TO.N,GND*%
X191100000Y-92360000D03*
%TO.P,J1,8*%
%TO.N,N/C*%
X193640000Y-89820000D03*
%TO.P,J1,7*%
X191100000Y-89820000D03*
%TO.P,J1,6*%
%TO.N,GND*%
X193640000Y-87280000D03*
%TO.P,J1,5*%
%TO.N,N/C*%
X191100000Y-87280000D03*
%TO.P,J1,4*%
%TO.N,+5V*%
X193640000Y-84740000D03*
%TO.P,J1,3*%
%TO.N,N/C*%
X191100000Y-84740000D03*
%TO.P,J1,2*%
%TO.N,+5V*%
X193640000Y-82200000D03*
D11*
%TO.P,J1,1*%
%TO.N,+3V3*%
X191100000Y-82200000D03*
%TD*%
D15*
%TO.N,*%
X191200000Y-77000000D03*
X193100000Y-79800000D03*
%TO.N,GND*%
X151400000Y-96200000D03*
X141300000Y-96400000D03*
X139700000Y-103200000D03*
X139600000Y-106400000D03*
X139700000Y-110100000D03*
X149800000Y-112600000D03*
X152100000Y-110400000D03*
X154400000Y-112200000D03*
X157900000Y-110700000D03*
X160200000Y-112900000D03*
X159200000Y-105900000D03*
X156600000Y-102800000D03*
X154600000Y-105200000D03*
X151700000Y-102800000D03*
X149800000Y-105800000D03*
X144000000Y-99700000D03*
X161600000Y-102600000D03*
X157300000Y-113800000D03*
X152100000Y-113700000D03*
X140800000Y-116100000D03*
X137500000Y-115400000D03*
X139500000Y-113000000D03*
X180600000Y-96500000D03*
X174100000Y-101200000D03*
X169500000Y-96200000D03*
X185900000Y-96400000D03*
X179600000Y-101900000D03*
X187000000Y-108800000D03*
X179900000Y-109700000D03*
X183300000Y-111100000D03*
X192200000Y-116900000D03*
X187800000Y-118100000D03*
X183500000Y-115100000D03*
X187200000Y-113300000D03*
X172700000Y-111100000D03*
X169500000Y-110700000D03*
X167900000Y-114100000D03*
X137700000Y-77400000D03*
X137600000Y-79400000D03*
X139100000Y-82300000D03*
X138000000Y-86400000D03*
X150200000Y-98300000D03*
%TO.N,VDD*%
X180750000Y-119250000D03*
%TO.N,/USB2_DP*%
X148900000Y-103800000D03*
X180500000Y-106500000D03*
%TO.N,/USB2_DM*%
X148700000Y-102600000D03*
X179200000Y-105900000D03*
%TO.N,/SWDIO*%
X142250000Y-113500000D03*
X175500000Y-115750000D03*
%TO.N,/SWDCLK*%
X142500000Y-115000000D03*
%TO.N,Net-(C3-Pad1)*%
X142750000Y-107750000D03*
%TD*%
D16*
%TO.N,VDD*%
X180750000Y-119250000D02*
X180750000Y-115500000D01*
X178500000Y-113250000D02*
X177290000Y-113250000D01*
X180750000Y-115500000D02*
X178500000Y-113250000D01*
%TO.N,/USB2_DP*%
X148900000Y-103800000D02*
X159700000Y-103800000D01*
X162525001Y-106625001D02*
X180274999Y-106625001D01*
X159700000Y-103800000D02*
X162525001Y-106625001D01*
X180400000Y-106500000D02*
X180500000Y-106500000D01*
X180274999Y-106625001D02*
X180400000Y-106500000D01*
%TO.N,/USB2_DM*%
X159301997Y-102074999D02*
X163126998Y-105900000D01*
X149225001Y-102074999D02*
X159301997Y-102074999D01*
X148700000Y-102600000D02*
X149225001Y-102074999D01*
X163126998Y-105900000D02*
X179200000Y-105900000D01*
%TO.N,/USB3_DP*%
X186124999Y-104955001D02*
X187300000Y-103780000D01*
X164674999Y-101474999D02*
X168155001Y-104955001D01*
X140774999Y-101474999D02*
X164674999Y-101474999D01*
X168155001Y-104955001D02*
X186124999Y-104955001D01*
X137900000Y-98600000D02*
X140774999Y-101474999D01*
X137900000Y-96400000D02*
X137900000Y-98600000D01*
X136400000Y-94900000D02*
X137900000Y-96400000D01*
%TO.N,/USB3_DM*%
X138350010Y-94310010D02*
X136400000Y-92360000D01*
X171174999Y-100825001D02*
X140761411Y-100825001D01*
X138350010Y-98413600D02*
X138350010Y-94310010D01*
X171935001Y-100064999D02*
X171174999Y-100825001D01*
X140761411Y-100825001D02*
X138350010Y-98413600D01*
X186124999Y-100064999D02*
X171935001Y-100064999D01*
X187300000Y-101240000D02*
X186124999Y-100064999D01*
%TO.N,/SWDIO*%
X142250000Y-113500000D02*
X144500000Y-115750000D01*
X144500000Y-115750000D02*
X175500000Y-115750000D01*
%TO.N,/SWDCLK*%
X176250000Y-114750000D02*
X176020000Y-114520000D01*
X176250000Y-116073002D02*
X176250000Y-114750000D01*
X144000000Y-116500000D02*
X175823002Y-116500000D01*
X175823002Y-116500000D02*
X176250000Y-116073002D01*
X142500000Y-115000000D02*
X144000000Y-116500000D01*
%TO.N,Net-(C3-Pad1)*%
X142750000Y-107750000D02*
X143250000Y-108250000D01*
X143250000Y-108250000D02*
X164500000Y-108250000D01*
X170770000Y-114520000D02*
X172210000Y-114520000D01*
X164500000Y-108250000D02*
X170770000Y-114520000D01*
%TD*%
D17*
%TO.N,GND*%
X139840000Y-94967581D02*
X139836807Y-95000000D01*
X139849550Y-95129383D01*
X139887290Y-95253793D01*
X139948575Y-95368450D01*
X139983497Y-95411002D01*
X140031052Y-95468948D01*
X140131550Y-95551425D01*
X140246207Y-95612710D01*
X140370617Y-95650450D01*
X140500000Y-95663193D01*
X140532419Y-95660000D01*
X189467581Y-95660000D01*
X189500000Y-95663193D01*
X189532419Y-95660000D01*
X189629383Y-95650450D01*
X189753793Y-95612710D01*
X189781686Y-95597801D01*
X189784010Y-95603411D01*
X189946525Y-95846632D01*
X190153368Y-96053475D01*
X190327760Y-96170000D01*
X190153368Y-96286525D01*
X189946525Y-96493368D01*
X189784010Y-96736589D01*
X189672068Y-97006842D01*
X189615000Y-97293740D01*
X189615000Y-97586260D01*
X189672068Y-97873158D01*
X189784010Y-98143411D01*
X189946525Y-98386632D01*
X190153368Y-98593475D01*
X190327760Y-98710000D01*
X190153368Y-98826525D01*
X189946525Y-99033368D01*
X189784010Y-99276589D01*
X189672068Y-99546842D01*
X189615000Y-99833740D01*
X189615000Y-100126260D01*
X189672068Y-100413158D01*
X189784010Y-100683411D01*
X189946525Y-100926632D01*
X190153368Y-101133475D01*
X190327760Y-101250000D01*
X190153368Y-101366525D01*
X189946525Y-101573368D01*
X189784010Y-101816589D01*
X189672068Y-102086842D01*
X189615000Y-102373740D01*
X189615000Y-102666260D01*
X189672068Y-102953158D01*
X189784010Y-103223411D01*
X189946525Y-103466632D01*
X190153368Y-103673475D01*
X190327760Y-103790000D01*
X190153368Y-103906525D01*
X189946525Y-104113368D01*
X189784010Y-104356589D01*
X189672068Y-104626842D01*
X189615000Y-104913740D01*
X189615000Y-105206260D01*
X189672068Y-105493158D01*
X189784010Y-105763411D01*
X189946525Y-106006632D01*
X190153368Y-106213475D01*
X190327760Y-106330000D01*
X190153368Y-106446525D01*
X189946525Y-106653368D01*
X189784010Y-106896589D01*
X189672068Y-107166842D01*
X189615000Y-107453740D01*
X189615000Y-107746260D01*
X189672068Y-108033158D01*
X189784010Y-108303411D01*
X189946525Y-108546632D01*
X190153368Y-108753475D01*
X190327760Y-108870000D01*
X190153368Y-108986525D01*
X189946525Y-109193368D01*
X189784010Y-109436589D01*
X189672068Y-109706842D01*
X189615000Y-109993740D01*
X189615000Y-110286260D01*
X189672068Y-110573158D01*
X189784010Y-110843411D01*
X189946525Y-111086632D01*
X190153368Y-111293475D01*
X190335534Y-111415195D01*
X190218645Y-111484822D01*
X190002412Y-111679731D01*
X189828359Y-111913080D01*
X189703175Y-112175901D01*
X189658524Y-112323110D01*
X189779845Y-112553000D01*
X190973000Y-112553000D01*
X190973000Y-112533000D01*
X191227000Y-112533000D01*
X191227000Y-112553000D01*
X191247000Y-112553000D01*
X191247000Y-112807000D01*
X191227000Y-112807000D01*
X191227000Y-114000814D01*
X191456891Y-114121481D01*
X191731252Y-114024157D01*
X191981355Y-113875178D01*
X192197588Y-113680269D01*
X192368900Y-113450594D01*
X192486525Y-113626632D01*
X192693368Y-113833475D01*
X192936589Y-113995990D01*
X193206842Y-114107932D01*
X193493740Y-114165000D01*
X193786260Y-114165000D01*
X194073158Y-114107932D01*
X194340000Y-113997403D01*
X194340000Y-119259994D01*
X194339080Y-119259074D01*
X193866560Y-118943346D01*
X193341523Y-118725869D01*
X192784148Y-118615000D01*
X192215852Y-118615000D01*
X191658477Y-118725869D01*
X191133440Y-118943346D01*
X190660920Y-119259074D01*
X190259074Y-119660920D01*
X189943346Y-120133440D01*
X189725869Y-120658477D01*
X189615000Y-121215852D01*
X189615000Y-121784148D01*
X189725869Y-122341523D01*
X189943346Y-122866560D01*
X190259074Y-123339080D01*
X190259994Y-123340000D01*
X178877000Y-123340000D01*
X178877000Y-117500000D01*
X178874560Y-117475224D01*
X178867333Y-117451399D01*
X178855597Y-117429443D01*
X178839803Y-117410197D01*
X178820557Y-117394403D01*
X178798601Y-117382667D01*
X178774776Y-117375440D01*
X178750000Y-117373000D01*
X135660000Y-117373000D01*
X135660000Y-113971542D01*
X135696589Y-113995990D01*
X135966842Y-114107932D01*
X136253740Y-114165000D01*
X136546260Y-114165000D01*
X136833158Y-114107932D01*
X137103411Y-113995990D01*
X137346632Y-113833475D01*
X137553475Y-113626632D01*
X137706201Y-113398061D01*
X141215000Y-113398061D01*
X141215000Y-113601939D01*
X141254774Y-113801898D01*
X141332795Y-113990256D01*
X141446063Y-114159774D01*
X141590226Y-114303937D01*
X141680159Y-114364028D01*
X141582795Y-114509744D01*
X141504774Y-114698102D01*
X141465000Y-114898061D01*
X141465000Y-115101939D01*
X141504774Y-115301898D01*
X141582795Y-115490256D01*
X141696063Y-115659774D01*
X141840226Y-115803937D01*
X142009744Y-115917205D01*
X142198102Y-115995226D01*
X142398061Y-116035000D01*
X142460199Y-116035000D01*
X143436201Y-117011003D01*
X143459999Y-117040001D01*
X143575724Y-117134974D01*
X143707753Y-117205546D01*
X143851014Y-117249003D01*
X143962667Y-117260000D01*
X143962676Y-117260000D01*
X143999999Y-117263676D01*
X144037322Y-117260000D01*
X175785680Y-117260000D01*
X175823002Y-117263676D01*
X175860324Y-117260000D01*
X175860335Y-117260000D01*
X175971988Y-117249003D01*
X176115249Y-117205546D01*
X176247278Y-117134974D01*
X176363003Y-117040001D01*
X176386806Y-117010997D01*
X176760998Y-116636805D01*
X176790001Y-116613003D01*
X176884974Y-116497278D01*
X176955546Y-116365249D01*
X176999003Y-116221988D01*
X177010000Y-116110335D01*
X177010000Y-116110326D01*
X177013676Y-116073003D01*
X177010000Y-116035680D01*
X177010000Y-115621541D01*
X177178212Y-115655000D01*
X177401788Y-115655000D01*
X177621067Y-115611383D01*
X177827624Y-115525824D01*
X178013520Y-115401612D01*
X178171612Y-115243520D01*
X178295824Y-115057624D01*
X178381383Y-114851067D01*
X178425000Y-114631788D01*
X178425000Y-114408212D01*
X178385666Y-114210468D01*
X179990001Y-115814803D01*
X179990000Y-118546289D01*
X179946063Y-118590226D01*
X179832795Y-118759744D01*
X179754774Y-118948102D01*
X179715000Y-119148061D01*
X179715000Y-119351939D01*
X179754774Y-119551898D01*
X179832795Y-119740256D01*
X179946063Y-119909774D01*
X180090226Y-120053937D01*
X180259744Y-120167205D01*
X180448102Y-120245226D01*
X180648061Y-120285000D01*
X180851939Y-120285000D01*
X181051898Y-120245226D01*
X181240256Y-120167205D01*
X181409774Y-120053937D01*
X181553937Y-119909774D01*
X181667205Y-119740256D01*
X181745226Y-119551898D01*
X181785000Y-119351939D01*
X181785000Y-119148061D01*
X181745226Y-118948102D01*
X181667205Y-118759744D01*
X181553937Y-118590226D01*
X181510000Y-118546289D01*
X181510000Y-115537333D01*
X181513677Y-115500000D01*
X181499003Y-115351014D01*
X181455546Y-115207753D01*
X181384974Y-115075724D01*
X181313799Y-114988997D01*
X181290001Y-114959999D01*
X181261003Y-114936201D01*
X179361692Y-113036890D01*
X189658524Y-113036890D01*
X189703175Y-113184099D01*
X189828359Y-113446920D01*
X190002412Y-113680269D01*
X190218645Y-113875178D01*
X190468748Y-114024157D01*
X190743109Y-114121481D01*
X190973000Y-114000814D01*
X190973000Y-112807000D01*
X189779845Y-112807000D01*
X189658524Y-113036890D01*
X179361692Y-113036890D01*
X179063804Y-112739003D01*
X179040001Y-112709999D01*
X178924276Y-112615026D01*
X178792247Y-112544454D01*
X178648986Y-112500997D01*
X178537333Y-112490000D01*
X178537322Y-112490000D01*
X178500000Y-112486324D01*
X178462678Y-112490000D01*
X178371046Y-112490000D01*
X178320537Y-112395506D01*
X178241185Y-112298815D01*
X178144494Y-112219463D01*
X178034180Y-112160498D01*
X177914482Y-112124188D01*
X177790000Y-112111928D01*
X176790000Y-112111928D01*
X176665518Y-112124188D01*
X176545820Y-112160498D01*
X176456820Y-112208070D01*
X176376864Y-112172554D01*
X176321874Y-112155881D01*
X176147000Y-112282046D01*
X176147000Y-113123000D01*
X176151928Y-113123000D01*
X176151928Y-113377000D01*
X176147000Y-113377000D01*
X176147000Y-113388026D01*
X176131788Y-113385000D01*
X175908212Y-113385000D01*
X175893000Y-113388026D01*
X175893000Y-113377000D01*
X174877000Y-113377000D01*
X174877000Y-113388026D01*
X174861788Y-113385000D01*
X174638212Y-113385000D01*
X174623000Y-113388026D01*
X174623000Y-113377000D01*
X174611974Y-113377000D01*
X174615000Y-113361788D01*
X174615000Y-113138212D01*
X174611974Y-113123000D01*
X174623000Y-113123000D01*
X174623000Y-112282046D01*
X174877000Y-112282046D01*
X174877000Y-113123000D01*
X175893000Y-113123000D01*
X175893000Y-112282046D01*
X175718126Y-112155881D01*
X175663136Y-112172554D01*
X175459794Y-112262877D01*
X175385000Y-112315639D01*
X175310206Y-112262877D01*
X175106864Y-112172554D01*
X175051874Y-112155881D01*
X174877000Y-112282046D01*
X174623000Y-112282046D01*
X174448126Y-112155881D01*
X174393136Y-112172554D01*
X174189794Y-112262877D01*
X174119658Y-112312353D01*
X174017624Y-112244176D01*
X173811067Y-112158617D01*
X173591788Y-112115000D01*
X173368212Y-112115000D01*
X173148933Y-112158617D01*
X172942376Y-112244176D01*
X172840342Y-112312353D01*
X172770206Y-112262877D01*
X172566864Y-112172554D01*
X172511874Y-112155881D01*
X172337000Y-112282046D01*
X172337000Y-113123000D01*
X172348026Y-113123000D01*
X172345000Y-113138212D01*
X172345000Y-113361788D01*
X172348026Y-113377000D01*
X172337000Y-113377000D01*
X172337000Y-113388026D01*
X172321788Y-113385000D01*
X172098212Y-113385000D01*
X172083000Y-113388026D01*
X172083000Y-113377000D01*
X171240871Y-113377000D01*
X171115874Y-113551876D01*
X171195790Y-113759529D01*
X171196088Y-113760000D01*
X171084802Y-113760000D01*
X170272926Y-112948124D01*
X171115874Y-112948124D01*
X171240871Y-113123000D01*
X172083000Y-113123000D01*
X172083000Y-112282046D01*
X171908126Y-112155881D01*
X171853136Y-112172554D01*
X171649794Y-112262877D01*
X171467980Y-112391135D01*
X171314682Y-112552399D01*
X171195790Y-112740471D01*
X171115874Y-112948124D01*
X170272926Y-112948124D01*
X165063804Y-107739003D01*
X165040001Y-107709999D01*
X164924276Y-107615026D01*
X164792247Y-107544454D01*
X164648986Y-107500997D01*
X164537333Y-107490000D01*
X164537322Y-107490000D01*
X164500000Y-107486324D01*
X164462678Y-107490000D01*
X143753560Y-107490000D01*
X143745226Y-107448102D01*
X143667205Y-107259744D01*
X143553937Y-107090226D01*
X143409774Y-106946063D01*
X143240256Y-106832795D01*
X143051898Y-106754774D01*
X142851939Y-106715000D01*
X142648061Y-106715000D01*
X142448102Y-106754774D01*
X142259744Y-106832795D01*
X142090226Y-106946063D01*
X141946063Y-107090226D01*
X141832795Y-107259744D01*
X141754774Y-107448102D01*
X141715000Y-107648061D01*
X141715000Y-107851939D01*
X141754774Y-108051898D01*
X141832795Y-108240256D01*
X141946063Y-108409774D01*
X142090226Y-108553937D01*
X142259744Y-108667205D01*
X142448102Y-108745226D01*
X142648061Y-108785000D01*
X142705895Y-108785000D01*
X142709999Y-108790001D01*
X142825724Y-108884974D01*
X142957753Y-108955546D01*
X143101014Y-108999003D01*
X143212667Y-109010000D01*
X143212675Y-109010000D01*
X143250000Y-109013676D01*
X143287325Y-109010000D01*
X164185199Y-109010000D01*
X170165198Y-114990000D01*
X144814802Y-114990000D01*
X143285000Y-113460199D01*
X143285000Y-113398061D01*
X143245226Y-113198102D01*
X143167205Y-113009744D01*
X143053937Y-112840226D01*
X142909774Y-112696063D01*
X142740256Y-112582795D01*
X142551898Y-112504774D01*
X142351939Y-112465000D01*
X142148061Y-112465000D01*
X141948102Y-112504774D01*
X141759744Y-112582795D01*
X141590226Y-112696063D01*
X141446063Y-112840226D01*
X141332795Y-113009744D01*
X141254774Y-113198102D01*
X141215000Y-113398061D01*
X137706201Y-113398061D01*
X137715990Y-113383411D01*
X137827932Y-113113158D01*
X137885000Y-112826260D01*
X137885000Y-112533740D01*
X137827932Y-112246842D01*
X137715990Y-111976589D01*
X137553475Y-111733368D01*
X137346632Y-111526525D01*
X137172240Y-111410000D01*
X137346632Y-111293475D01*
X137553475Y-111086632D01*
X137715990Y-110843411D01*
X137827932Y-110573158D01*
X137885000Y-110286260D01*
X137885000Y-109993740D01*
X137827932Y-109706842D01*
X137715990Y-109436589D01*
X137553475Y-109193368D01*
X137346632Y-108986525D01*
X137172240Y-108870000D01*
X137346632Y-108753475D01*
X137553475Y-108546632D01*
X137715990Y-108303411D01*
X137827932Y-108033158D01*
X137885000Y-107746260D01*
X137885000Y-107453740D01*
X137827932Y-107166842D01*
X137715990Y-106896589D01*
X137553475Y-106653368D01*
X137346632Y-106446525D01*
X137172240Y-106330000D01*
X137346632Y-106213475D01*
X137553475Y-106006632D01*
X137715990Y-105763411D01*
X137827932Y-105493158D01*
X137885000Y-105206260D01*
X137885000Y-104913740D01*
X137827932Y-104626842D01*
X137715990Y-104356589D01*
X137553475Y-104113368D01*
X137346632Y-103906525D01*
X137172240Y-103790000D01*
X137346632Y-103673475D01*
X137553475Y-103466632D01*
X137715990Y-103223411D01*
X137827932Y-102953158D01*
X137885000Y-102666260D01*
X137885000Y-102373740D01*
X137827932Y-102086842D01*
X137715990Y-101816589D01*
X137553475Y-101573368D01*
X137346632Y-101366525D01*
X137172240Y-101250000D01*
X137346632Y-101133475D01*
X137553475Y-100926632D01*
X137715990Y-100683411D01*
X137827932Y-100413158D01*
X137885000Y-100126260D01*
X137885000Y-99833740D01*
X137841810Y-99616611D01*
X140211199Y-101986001D01*
X140234998Y-102015000D01*
X140263996Y-102038798D01*
X140350723Y-102109973D01*
X140482752Y-102180545D01*
X140626013Y-102224002D01*
X140774999Y-102238676D01*
X140812332Y-102234999D01*
X147730912Y-102234999D01*
X147704774Y-102298102D01*
X147665000Y-102498061D01*
X147665000Y-102701939D01*
X147704774Y-102901898D01*
X147782795Y-103090256D01*
X147896063Y-103259774D01*
X147972028Y-103335739D01*
X147904774Y-103498102D01*
X147865000Y-103698061D01*
X147865000Y-103901939D01*
X147904774Y-104101898D01*
X147982795Y-104290256D01*
X148096063Y-104459774D01*
X148240226Y-104603937D01*
X148409744Y-104717205D01*
X148598102Y-104795226D01*
X148798061Y-104835000D01*
X149001939Y-104835000D01*
X149201898Y-104795226D01*
X149390256Y-104717205D01*
X149559774Y-104603937D01*
X149603711Y-104560000D01*
X159385199Y-104560000D01*
X161961202Y-107136004D01*
X161985000Y-107165002D01*
X162100725Y-107259975D01*
X162232754Y-107330547D01*
X162376015Y-107374004D01*
X162487668Y-107385001D01*
X162487676Y-107385001D01*
X162525001Y-107388677D01*
X162562326Y-107385001D01*
X179961547Y-107385001D01*
X180009744Y-107417205D01*
X180198102Y-107495226D01*
X180398061Y-107535000D01*
X180601939Y-107535000D01*
X180801898Y-107495226D01*
X180990256Y-107417205D01*
X181159774Y-107303937D01*
X181303937Y-107159774D01*
X181417205Y-106990256D01*
X181495226Y-106801898D01*
X181520091Y-106676890D01*
X182158524Y-106676890D01*
X182203175Y-106824099D01*
X182328359Y-107086920D01*
X182502412Y-107320269D01*
X182718645Y-107515178D01*
X182968748Y-107664157D01*
X183243109Y-107761481D01*
X183473000Y-107640814D01*
X183473000Y-106447000D01*
X183727000Y-106447000D01*
X183727000Y-107640814D01*
X183956891Y-107761481D01*
X184231252Y-107664157D01*
X184481355Y-107515178D01*
X184697588Y-107320269D01*
X184871641Y-107086920D01*
X184996825Y-106824099D01*
X185041476Y-106676890D01*
X185858524Y-106676890D01*
X185903175Y-106824099D01*
X186028359Y-107086920D01*
X186202412Y-107320269D01*
X186418645Y-107515178D01*
X186668748Y-107664157D01*
X186943109Y-107761481D01*
X187173000Y-107640814D01*
X187173000Y-106447000D01*
X187427000Y-106447000D01*
X187427000Y-107640814D01*
X187656891Y-107761481D01*
X187931252Y-107664157D01*
X188181355Y-107515178D01*
X188397588Y-107320269D01*
X188571641Y-107086920D01*
X188696825Y-106824099D01*
X188741476Y-106676890D01*
X188620155Y-106447000D01*
X187427000Y-106447000D01*
X187173000Y-106447000D01*
X185979845Y-106447000D01*
X185858524Y-106676890D01*
X185041476Y-106676890D01*
X184920155Y-106447000D01*
X183727000Y-106447000D01*
X183473000Y-106447000D01*
X182279845Y-106447000D01*
X182158524Y-106676890D01*
X181520091Y-106676890D01*
X181535000Y-106601939D01*
X181535000Y-106398061D01*
X181495226Y-106198102D01*
X181417205Y-106009744D01*
X181303937Y-105840226D01*
X181178712Y-105715001D01*
X182251235Y-105715001D01*
X182203175Y-105815901D01*
X182158524Y-105963110D01*
X182279845Y-106193000D01*
X183473000Y-106193000D01*
X183473000Y-106173000D01*
X183727000Y-106173000D01*
X183727000Y-106193000D01*
X184920155Y-106193000D01*
X185041476Y-105963110D01*
X184996825Y-105815901D01*
X184948765Y-105715001D01*
X185951235Y-105715001D01*
X185903175Y-105815901D01*
X185858524Y-105963110D01*
X185979845Y-106193000D01*
X187173000Y-106193000D01*
X187173000Y-106173000D01*
X187427000Y-106173000D01*
X187427000Y-106193000D01*
X188620155Y-106193000D01*
X188741476Y-105963110D01*
X188696825Y-105815901D01*
X188571641Y-105553080D01*
X188397588Y-105319731D01*
X188181355Y-105124822D01*
X188064466Y-105055195D01*
X188246632Y-104933475D01*
X188453475Y-104726632D01*
X188615990Y-104483411D01*
X188727932Y-104213158D01*
X188785000Y-103926260D01*
X188785000Y-103633740D01*
X188727932Y-103346842D01*
X188615990Y-103076589D01*
X188453475Y-102833368D01*
X188246632Y-102626525D01*
X188072240Y-102510000D01*
X188246632Y-102393475D01*
X188453475Y-102186632D01*
X188615990Y-101943411D01*
X188727932Y-101673158D01*
X188785000Y-101386260D01*
X188785000Y-101093740D01*
X188727932Y-100806842D01*
X188615990Y-100536589D01*
X188453475Y-100293368D01*
X188321620Y-100161513D01*
X188394180Y-100139502D01*
X188504494Y-100080537D01*
X188601185Y-100001185D01*
X188680537Y-99904494D01*
X188739502Y-99794180D01*
X188775812Y-99674482D01*
X188788072Y-99550000D01*
X188788072Y-97850000D01*
X188775812Y-97725518D01*
X188739502Y-97605820D01*
X188680537Y-97495506D01*
X188601185Y-97398815D01*
X188504494Y-97319463D01*
X188394180Y-97260498D01*
X188274482Y-97224188D01*
X188150000Y-97211928D01*
X186450000Y-97211928D01*
X186325518Y-97224188D01*
X186205820Y-97260498D01*
X186095506Y-97319463D01*
X185998815Y-97398815D01*
X185919463Y-97495506D01*
X185860498Y-97605820D01*
X185824188Y-97725518D01*
X185811928Y-97850000D01*
X185811928Y-99304999D01*
X185088072Y-99304999D01*
X185088072Y-97850000D01*
X185075812Y-97725518D01*
X185039502Y-97605820D01*
X184980537Y-97495506D01*
X184901185Y-97398815D01*
X184804494Y-97319463D01*
X184694180Y-97260498D01*
X184574482Y-97224188D01*
X184450000Y-97211928D01*
X182750000Y-97211928D01*
X182625518Y-97224188D01*
X182505820Y-97260498D01*
X182395506Y-97319463D01*
X182298815Y-97398815D01*
X182219463Y-97495506D01*
X182160498Y-97605820D01*
X182124188Y-97725518D01*
X182111928Y-97850000D01*
X182111928Y-99304999D01*
X171972323Y-99304999D01*
X171935000Y-99301323D01*
X171897677Y-99304999D01*
X171897668Y-99304999D01*
X171786015Y-99315996D01*
X171677204Y-99349003D01*
X171642754Y-99359453D01*
X171510724Y-99430025D01*
X171427084Y-99498667D01*
X171395000Y-99524998D01*
X171371202Y-99553997D01*
X170860198Y-100065001D01*
X141076213Y-100065001D01*
X139110010Y-98098799D01*
X139110010Y-94347343D01*
X139113687Y-94310010D01*
X139099013Y-94161024D01*
X139055556Y-94017763D01*
X138984984Y-93885734D01*
X138913809Y-93799007D01*
X138890011Y-93770009D01*
X138861013Y-93746211D01*
X137841209Y-92726408D01*
X137885000Y-92506260D01*
X137885000Y-92213740D01*
X137827932Y-91926842D01*
X137715990Y-91656589D01*
X137553475Y-91413368D01*
X137346632Y-91206525D01*
X137172240Y-91090000D01*
X137346632Y-90973475D01*
X137553475Y-90766632D01*
X137715990Y-90523411D01*
X137827932Y-90253158D01*
X137885000Y-89966260D01*
X137885000Y-89673740D01*
X137827932Y-89386842D01*
X137715990Y-89116589D01*
X137553475Y-88873368D01*
X137346632Y-88666525D01*
X137172240Y-88550000D01*
X137346632Y-88433475D01*
X137553475Y-88226632D01*
X137715990Y-87983411D01*
X137827932Y-87713158D01*
X137885000Y-87426260D01*
X137885000Y-87133740D01*
X137827932Y-86846842D01*
X137715990Y-86576589D01*
X137553475Y-86333368D01*
X137346632Y-86126525D01*
X137164466Y-86004805D01*
X137281355Y-85935178D01*
X137497588Y-85740269D01*
X137671641Y-85506920D01*
X137796825Y-85244099D01*
X137841476Y-85096890D01*
X137720155Y-84867000D01*
X136527000Y-84867000D01*
X136527000Y-84887000D01*
X136273000Y-84887000D01*
X136273000Y-84867000D01*
X136253000Y-84867000D01*
X136253000Y-84613000D01*
X136273000Y-84613000D01*
X136273000Y-84593000D01*
X136527000Y-84593000D01*
X136527000Y-84613000D01*
X137720155Y-84613000D01*
X137841476Y-84383110D01*
X137796825Y-84235901D01*
X137671641Y-83973080D01*
X137497588Y-83739731D01*
X137413534Y-83663966D01*
X137494180Y-83639502D01*
X137604494Y-83580537D01*
X137701185Y-83501185D01*
X137780537Y-83404494D01*
X137839502Y-83294180D01*
X137875812Y-83174482D01*
X137888072Y-83050000D01*
X137888072Y-81350000D01*
X137875812Y-81225518D01*
X137839502Y-81105820D01*
X137780537Y-80995506D01*
X137701185Y-80898815D01*
X137604494Y-80819463D01*
X137494180Y-80760498D01*
X137374482Y-80724188D01*
X137250000Y-80711928D01*
X135660000Y-80711928D01*
X135660000Y-75740006D01*
X135660920Y-75740926D01*
X136133440Y-76056654D01*
X136658477Y-76274131D01*
X137215852Y-76385000D01*
X137784148Y-76385000D01*
X138341523Y-76274131D01*
X138866560Y-76056654D01*
X139339080Y-75740926D01*
X139740926Y-75339080D01*
X139840001Y-75190804D01*
X139840000Y-94967581D01*
%TA.AperFunction,Conductor*%
D18*
G36*
X139840000Y-94967581D02*
G01*
X139836807Y-95000000D01*
X139849550Y-95129383D01*
X139887290Y-95253793D01*
X139948575Y-95368450D01*
X139983497Y-95411002D01*
X140031052Y-95468948D01*
X140131550Y-95551425D01*
X140246207Y-95612710D01*
X140370617Y-95650450D01*
X140500000Y-95663193D01*
X140532419Y-95660000D01*
X189467581Y-95660000D01*
X189500000Y-95663193D01*
X189532419Y-95660000D01*
X189629383Y-95650450D01*
X189753793Y-95612710D01*
X189781686Y-95597801D01*
X189784010Y-95603411D01*
X189946525Y-95846632D01*
X190153368Y-96053475D01*
X190327760Y-96170000D01*
X190153368Y-96286525D01*
X189946525Y-96493368D01*
X189784010Y-96736589D01*
X189672068Y-97006842D01*
X189615000Y-97293740D01*
X189615000Y-97586260D01*
X189672068Y-97873158D01*
X189784010Y-98143411D01*
X189946525Y-98386632D01*
X190153368Y-98593475D01*
X190327760Y-98710000D01*
X190153368Y-98826525D01*
X189946525Y-99033368D01*
X189784010Y-99276589D01*
X189672068Y-99546842D01*
X189615000Y-99833740D01*
X189615000Y-100126260D01*
X189672068Y-100413158D01*
X189784010Y-100683411D01*
X189946525Y-100926632D01*
X190153368Y-101133475D01*
X190327760Y-101250000D01*
X190153368Y-101366525D01*
X189946525Y-101573368D01*
X189784010Y-101816589D01*
X189672068Y-102086842D01*
X189615000Y-102373740D01*
X189615000Y-102666260D01*
X189672068Y-102953158D01*
X189784010Y-103223411D01*
X189946525Y-103466632D01*
X190153368Y-103673475D01*
X190327760Y-103790000D01*
X190153368Y-103906525D01*
X189946525Y-104113368D01*
X189784010Y-104356589D01*
X189672068Y-104626842D01*
X189615000Y-104913740D01*
X189615000Y-105206260D01*
X189672068Y-105493158D01*
X189784010Y-105763411D01*
X189946525Y-106006632D01*
X190153368Y-106213475D01*
X190327760Y-106330000D01*
X190153368Y-106446525D01*
X189946525Y-106653368D01*
X189784010Y-106896589D01*
X189672068Y-107166842D01*
X189615000Y-107453740D01*
X189615000Y-107746260D01*
X189672068Y-108033158D01*
X189784010Y-108303411D01*
X189946525Y-108546632D01*
X190153368Y-108753475D01*
X190327760Y-108870000D01*
X190153368Y-108986525D01*
X189946525Y-109193368D01*
X189784010Y-109436589D01*
X189672068Y-109706842D01*
X189615000Y-109993740D01*
X189615000Y-110286260D01*
X189672068Y-110573158D01*
X189784010Y-110843411D01*
X189946525Y-111086632D01*
X190153368Y-111293475D01*
X190335534Y-111415195D01*
X190218645Y-111484822D01*
X190002412Y-111679731D01*
X189828359Y-111913080D01*
X189703175Y-112175901D01*
X189658524Y-112323110D01*
X189779845Y-112553000D01*
X190973000Y-112553000D01*
X190973000Y-112533000D01*
X191227000Y-112533000D01*
X191227000Y-112553000D01*
X191247000Y-112553000D01*
X191247000Y-112807000D01*
X191227000Y-112807000D01*
X191227000Y-114000814D01*
X191456891Y-114121481D01*
X191731252Y-114024157D01*
X191981355Y-113875178D01*
X192197588Y-113680269D01*
X192368900Y-113450594D01*
X192486525Y-113626632D01*
X192693368Y-113833475D01*
X192936589Y-113995990D01*
X193206842Y-114107932D01*
X193493740Y-114165000D01*
X193786260Y-114165000D01*
X194073158Y-114107932D01*
X194340000Y-113997403D01*
X194340000Y-119259994D01*
X194339080Y-119259074D01*
X193866560Y-118943346D01*
X193341523Y-118725869D01*
X192784148Y-118615000D01*
X192215852Y-118615000D01*
X191658477Y-118725869D01*
X191133440Y-118943346D01*
X190660920Y-119259074D01*
X190259074Y-119660920D01*
X189943346Y-120133440D01*
X189725869Y-120658477D01*
X189615000Y-121215852D01*
X189615000Y-121784148D01*
X189725869Y-122341523D01*
X189943346Y-122866560D01*
X190259074Y-123339080D01*
X190259994Y-123340000D01*
X178877000Y-123340000D01*
X178877000Y-117500000D01*
X178874560Y-117475224D01*
X178867333Y-117451399D01*
X178855597Y-117429443D01*
X178839803Y-117410197D01*
X178820557Y-117394403D01*
X178798601Y-117382667D01*
X178774776Y-117375440D01*
X178750000Y-117373000D01*
X135660000Y-117373000D01*
X135660000Y-113971542D01*
X135696589Y-113995990D01*
X135966842Y-114107932D01*
X136253740Y-114165000D01*
X136546260Y-114165000D01*
X136833158Y-114107932D01*
X137103411Y-113995990D01*
X137346632Y-113833475D01*
X137553475Y-113626632D01*
X137706201Y-113398061D01*
X141215000Y-113398061D01*
X141215000Y-113601939D01*
X141254774Y-113801898D01*
X141332795Y-113990256D01*
X141446063Y-114159774D01*
X141590226Y-114303937D01*
X141680159Y-114364028D01*
X141582795Y-114509744D01*
X141504774Y-114698102D01*
X141465000Y-114898061D01*
X141465000Y-115101939D01*
X141504774Y-115301898D01*
X141582795Y-115490256D01*
X141696063Y-115659774D01*
X141840226Y-115803937D01*
X142009744Y-115917205D01*
X142198102Y-115995226D01*
X142398061Y-116035000D01*
X142460199Y-116035000D01*
X143436201Y-117011003D01*
X143459999Y-117040001D01*
X143575724Y-117134974D01*
X143707753Y-117205546D01*
X143851014Y-117249003D01*
X143962667Y-117260000D01*
X143962676Y-117260000D01*
X143999999Y-117263676D01*
X144037322Y-117260000D01*
X175785680Y-117260000D01*
X175823002Y-117263676D01*
X175860324Y-117260000D01*
X175860335Y-117260000D01*
X175971988Y-117249003D01*
X176115249Y-117205546D01*
X176247278Y-117134974D01*
X176363003Y-117040001D01*
X176386806Y-117010997D01*
X176760998Y-116636805D01*
X176790001Y-116613003D01*
X176884974Y-116497278D01*
X176955546Y-116365249D01*
X176999003Y-116221988D01*
X177010000Y-116110335D01*
X177010000Y-116110326D01*
X177013676Y-116073003D01*
X177010000Y-116035680D01*
X177010000Y-115621541D01*
X177178212Y-115655000D01*
X177401788Y-115655000D01*
X177621067Y-115611383D01*
X177827624Y-115525824D01*
X178013520Y-115401612D01*
X178171612Y-115243520D01*
X178295824Y-115057624D01*
X178381383Y-114851067D01*
X178425000Y-114631788D01*
X178425000Y-114408212D01*
X178385666Y-114210468D01*
X179990001Y-115814803D01*
X179990000Y-118546289D01*
X179946063Y-118590226D01*
X179832795Y-118759744D01*
X179754774Y-118948102D01*
X179715000Y-119148061D01*
X179715000Y-119351939D01*
X179754774Y-119551898D01*
X179832795Y-119740256D01*
X179946063Y-119909774D01*
X180090226Y-120053937D01*
X180259744Y-120167205D01*
X180448102Y-120245226D01*
X180648061Y-120285000D01*
X180851939Y-120285000D01*
X181051898Y-120245226D01*
X181240256Y-120167205D01*
X181409774Y-120053937D01*
X181553937Y-119909774D01*
X181667205Y-119740256D01*
X181745226Y-119551898D01*
X181785000Y-119351939D01*
X181785000Y-119148061D01*
X181745226Y-118948102D01*
X181667205Y-118759744D01*
X181553937Y-118590226D01*
X181510000Y-118546289D01*
X181510000Y-115537333D01*
X181513677Y-115500000D01*
X181499003Y-115351014D01*
X181455546Y-115207753D01*
X181384974Y-115075724D01*
X181313799Y-114988997D01*
X181290001Y-114959999D01*
X181261003Y-114936201D01*
X179361692Y-113036890D01*
X189658524Y-113036890D01*
X189703175Y-113184099D01*
X189828359Y-113446920D01*
X190002412Y-113680269D01*
X190218645Y-113875178D01*
X190468748Y-114024157D01*
X190743109Y-114121481D01*
X190973000Y-114000814D01*
X190973000Y-112807000D01*
X189779845Y-112807000D01*
X189658524Y-113036890D01*
X179361692Y-113036890D01*
X179063804Y-112739003D01*
X179040001Y-112709999D01*
X178924276Y-112615026D01*
X178792247Y-112544454D01*
X178648986Y-112500997D01*
X178537333Y-112490000D01*
X178537322Y-112490000D01*
X178500000Y-112486324D01*
X178462678Y-112490000D01*
X178371046Y-112490000D01*
X178320537Y-112395506D01*
X178241185Y-112298815D01*
X178144494Y-112219463D01*
X178034180Y-112160498D01*
X177914482Y-112124188D01*
X177790000Y-112111928D01*
X176790000Y-112111928D01*
X176665518Y-112124188D01*
X176545820Y-112160498D01*
X176456820Y-112208070D01*
X176376864Y-112172554D01*
X176321874Y-112155881D01*
X176147000Y-112282046D01*
X176147000Y-113123000D01*
X176151928Y-113123000D01*
X176151928Y-113377000D01*
X176147000Y-113377000D01*
X176147000Y-113388026D01*
X176131788Y-113385000D01*
X175908212Y-113385000D01*
X175893000Y-113388026D01*
X175893000Y-113377000D01*
X174877000Y-113377000D01*
X174877000Y-113388026D01*
X174861788Y-113385000D01*
X174638212Y-113385000D01*
X174623000Y-113388026D01*
X174623000Y-113377000D01*
X174611974Y-113377000D01*
X174615000Y-113361788D01*
X174615000Y-113138212D01*
X174611974Y-113123000D01*
X174623000Y-113123000D01*
X174623000Y-112282046D01*
X174877000Y-112282046D01*
X174877000Y-113123000D01*
X175893000Y-113123000D01*
X175893000Y-112282046D01*
X175718126Y-112155881D01*
X175663136Y-112172554D01*
X175459794Y-112262877D01*
X175385000Y-112315639D01*
X175310206Y-112262877D01*
X175106864Y-112172554D01*
X175051874Y-112155881D01*
X174877000Y-112282046D01*
X174623000Y-112282046D01*
X174448126Y-112155881D01*
X174393136Y-112172554D01*
X174189794Y-112262877D01*
X174119658Y-112312353D01*
X174017624Y-112244176D01*
X173811067Y-112158617D01*
X173591788Y-112115000D01*
X173368212Y-112115000D01*
X173148933Y-112158617D01*
X172942376Y-112244176D01*
X172840342Y-112312353D01*
X172770206Y-112262877D01*
X172566864Y-112172554D01*
X172511874Y-112155881D01*
X172337000Y-112282046D01*
X172337000Y-113123000D01*
X172348026Y-113123000D01*
X172345000Y-113138212D01*
X172345000Y-113361788D01*
X172348026Y-113377000D01*
X172337000Y-113377000D01*
X172337000Y-113388026D01*
X172321788Y-113385000D01*
X172098212Y-113385000D01*
X172083000Y-113388026D01*
X172083000Y-113377000D01*
X171240871Y-113377000D01*
X171115874Y-113551876D01*
X171195790Y-113759529D01*
X171196088Y-113760000D01*
X171084802Y-113760000D01*
X170272926Y-112948124D01*
X171115874Y-112948124D01*
X171240871Y-113123000D01*
X172083000Y-113123000D01*
X172083000Y-112282046D01*
X171908126Y-112155881D01*
X171853136Y-112172554D01*
X171649794Y-112262877D01*
X171467980Y-112391135D01*
X171314682Y-112552399D01*
X171195790Y-112740471D01*
X171115874Y-112948124D01*
X170272926Y-112948124D01*
X165063804Y-107739003D01*
X165040001Y-107709999D01*
X164924276Y-107615026D01*
X164792247Y-107544454D01*
X164648986Y-107500997D01*
X164537333Y-107490000D01*
X164537322Y-107490000D01*
X164500000Y-107486324D01*
X164462678Y-107490000D01*
X143753560Y-107490000D01*
X143745226Y-107448102D01*
X143667205Y-107259744D01*
X143553937Y-107090226D01*
X143409774Y-106946063D01*
X143240256Y-106832795D01*
X143051898Y-106754774D01*
X142851939Y-106715000D01*
X142648061Y-106715000D01*
X142448102Y-106754774D01*
X142259744Y-106832795D01*
X142090226Y-106946063D01*
X141946063Y-107090226D01*
X141832795Y-107259744D01*
X141754774Y-107448102D01*
X141715000Y-107648061D01*
X141715000Y-107851939D01*
X141754774Y-108051898D01*
X141832795Y-108240256D01*
X141946063Y-108409774D01*
X142090226Y-108553937D01*
X142259744Y-108667205D01*
X142448102Y-108745226D01*
X142648061Y-108785000D01*
X142705895Y-108785000D01*
X142709999Y-108790001D01*
X142825724Y-108884974D01*
X142957753Y-108955546D01*
X143101014Y-108999003D01*
X143212667Y-109010000D01*
X143212675Y-109010000D01*
X143250000Y-109013676D01*
X143287325Y-109010000D01*
X164185199Y-109010000D01*
X170165198Y-114990000D01*
X144814802Y-114990000D01*
X143285000Y-113460199D01*
X143285000Y-113398061D01*
X143245226Y-113198102D01*
X143167205Y-113009744D01*
X143053937Y-112840226D01*
X142909774Y-112696063D01*
X142740256Y-112582795D01*
X142551898Y-112504774D01*
X142351939Y-112465000D01*
X142148061Y-112465000D01*
X141948102Y-112504774D01*
X141759744Y-112582795D01*
X141590226Y-112696063D01*
X141446063Y-112840226D01*
X141332795Y-113009744D01*
X141254774Y-113198102D01*
X141215000Y-113398061D01*
X137706201Y-113398061D01*
X137715990Y-113383411D01*
X137827932Y-113113158D01*
X137885000Y-112826260D01*
X137885000Y-112533740D01*
X137827932Y-112246842D01*
X137715990Y-111976589D01*
X137553475Y-111733368D01*
X137346632Y-111526525D01*
X137172240Y-111410000D01*
X137346632Y-111293475D01*
X137553475Y-111086632D01*
X137715990Y-110843411D01*
X137827932Y-110573158D01*
X137885000Y-110286260D01*
X137885000Y-109993740D01*
X137827932Y-109706842D01*
X137715990Y-109436589D01*
X137553475Y-109193368D01*
X137346632Y-108986525D01*
X137172240Y-108870000D01*
X137346632Y-108753475D01*
X137553475Y-108546632D01*
X137715990Y-108303411D01*
X137827932Y-108033158D01*
X137885000Y-107746260D01*
X137885000Y-107453740D01*
X137827932Y-107166842D01*
X137715990Y-106896589D01*
X137553475Y-106653368D01*
X137346632Y-106446525D01*
X137172240Y-106330000D01*
X137346632Y-106213475D01*
X137553475Y-106006632D01*
X137715990Y-105763411D01*
X137827932Y-105493158D01*
X137885000Y-105206260D01*
X137885000Y-104913740D01*
X137827932Y-104626842D01*
X137715990Y-104356589D01*
X137553475Y-104113368D01*
X137346632Y-103906525D01*
X137172240Y-103790000D01*
X137346632Y-103673475D01*
X137553475Y-103466632D01*
X137715990Y-103223411D01*
X137827932Y-102953158D01*
X137885000Y-102666260D01*
X137885000Y-102373740D01*
X137827932Y-102086842D01*
X137715990Y-101816589D01*
X137553475Y-101573368D01*
X137346632Y-101366525D01*
X137172240Y-101250000D01*
X137346632Y-101133475D01*
X137553475Y-100926632D01*
X137715990Y-100683411D01*
X137827932Y-100413158D01*
X137885000Y-100126260D01*
X137885000Y-99833740D01*
X137841810Y-99616611D01*
X140211199Y-101986001D01*
X140234998Y-102015000D01*
X140263996Y-102038798D01*
X140350723Y-102109973D01*
X140482752Y-102180545D01*
X140626013Y-102224002D01*
X140774999Y-102238676D01*
X140812332Y-102234999D01*
X147730912Y-102234999D01*
X147704774Y-102298102D01*
X147665000Y-102498061D01*
X147665000Y-102701939D01*
X147704774Y-102901898D01*
X147782795Y-103090256D01*
X147896063Y-103259774D01*
X147972028Y-103335739D01*
X147904774Y-103498102D01*
X147865000Y-103698061D01*
X147865000Y-103901939D01*
X147904774Y-104101898D01*
X147982795Y-104290256D01*
X148096063Y-104459774D01*
X148240226Y-104603937D01*
X148409744Y-104717205D01*
X148598102Y-104795226D01*
X148798061Y-104835000D01*
X149001939Y-104835000D01*
X149201898Y-104795226D01*
X149390256Y-104717205D01*
X149559774Y-104603937D01*
X149603711Y-104560000D01*
X159385199Y-104560000D01*
X161961202Y-107136004D01*
X161985000Y-107165002D01*
X162100725Y-107259975D01*
X162232754Y-107330547D01*
X162376015Y-107374004D01*
X162487668Y-107385001D01*
X162487676Y-107385001D01*
X162525001Y-107388677D01*
X162562326Y-107385001D01*
X179961547Y-107385001D01*
X180009744Y-107417205D01*
X180198102Y-107495226D01*
X180398061Y-107535000D01*
X180601939Y-107535000D01*
X180801898Y-107495226D01*
X180990256Y-107417205D01*
X181159774Y-107303937D01*
X181303937Y-107159774D01*
X181417205Y-106990256D01*
X181495226Y-106801898D01*
X181520091Y-106676890D01*
X182158524Y-106676890D01*
X182203175Y-106824099D01*
X182328359Y-107086920D01*
X182502412Y-107320269D01*
X182718645Y-107515178D01*
X182968748Y-107664157D01*
X183243109Y-107761481D01*
X183473000Y-107640814D01*
X183473000Y-106447000D01*
X183727000Y-106447000D01*
X183727000Y-107640814D01*
X183956891Y-107761481D01*
X184231252Y-107664157D01*
X184481355Y-107515178D01*
X184697588Y-107320269D01*
X184871641Y-107086920D01*
X184996825Y-106824099D01*
X185041476Y-106676890D01*
X185858524Y-106676890D01*
X185903175Y-106824099D01*
X186028359Y-107086920D01*
X186202412Y-107320269D01*
X186418645Y-107515178D01*
X186668748Y-107664157D01*
X186943109Y-107761481D01*
X187173000Y-107640814D01*
X187173000Y-106447000D01*
X187427000Y-106447000D01*
X187427000Y-107640814D01*
X187656891Y-107761481D01*
X187931252Y-107664157D01*
X188181355Y-107515178D01*
X188397588Y-107320269D01*
X188571641Y-107086920D01*
X188696825Y-106824099D01*
X188741476Y-106676890D01*
X188620155Y-106447000D01*
X187427000Y-106447000D01*
X187173000Y-106447000D01*
X185979845Y-106447000D01*
X185858524Y-106676890D01*
X185041476Y-106676890D01*
X184920155Y-106447000D01*
X183727000Y-106447000D01*
X183473000Y-106447000D01*
X182279845Y-106447000D01*
X182158524Y-106676890D01*
X181520091Y-106676890D01*
X181535000Y-106601939D01*
X181535000Y-106398061D01*
X181495226Y-106198102D01*
X181417205Y-106009744D01*
X181303937Y-105840226D01*
X181178712Y-105715001D01*
X182251235Y-105715001D01*
X182203175Y-105815901D01*
X182158524Y-105963110D01*
X182279845Y-106193000D01*
X183473000Y-106193000D01*
X183473000Y-106173000D01*
X183727000Y-106173000D01*
X183727000Y-106193000D01*
X184920155Y-106193000D01*
X185041476Y-105963110D01*
X184996825Y-105815901D01*
X184948765Y-105715001D01*
X185951235Y-105715001D01*
X185903175Y-105815901D01*
X185858524Y-105963110D01*
X185979845Y-106193000D01*
X187173000Y-106193000D01*
X187173000Y-106173000D01*
X187427000Y-106173000D01*
X187427000Y-106193000D01*
X188620155Y-106193000D01*
X188741476Y-105963110D01*
X188696825Y-105815901D01*
X188571641Y-105553080D01*
X188397588Y-105319731D01*
X188181355Y-105124822D01*
X188064466Y-105055195D01*
X188246632Y-104933475D01*
X188453475Y-104726632D01*
X188615990Y-104483411D01*
X188727932Y-104213158D01*
X188785000Y-103926260D01*
X188785000Y-103633740D01*
X188727932Y-103346842D01*
X188615990Y-103076589D01*
X188453475Y-102833368D01*
X188246632Y-102626525D01*
X188072240Y-102510000D01*
X188246632Y-102393475D01*
X188453475Y-102186632D01*
X188615990Y-101943411D01*
X188727932Y-101673158D01*
X188785000Y-101386260D01*
X188785000Y-101093740D01*
X188727932Y-100806842D01*
X188615990Y-100536589D01*
X188453475Y-100293368D01*
X188321620Y-100161513D01*
X188394180Y-100139502D01*
X188504494Y-100080537D01*
X188601185Y-100001185D01*
X188680537Y-99904494D01*
X188739502Y-99794180D01*
X188775812Y-99674482D01*
X188788072Y-99550000D01*
X188788072Y-97850000D01*
X188775812Y-97725518D01*
X188739502Y-97605820D01*
X188680537Y-97495506D01*
X188601185Y-97398815D01*
X188504494Y-97319463D01*
X188394180Y-97260498D01*
X188274482Y-97224188D01*
X188150000Y-97211928D01*
X186450000Y-97211928D01*
X186325518Y-97224188D01*
X186205820Y-97260498D01*
X186095506Y-97319463D01*
X185998815Y-97398815D01*
X185919463Y-97495506D01*
X185860498Y-97605820D01*
X185824188Y-97725518D01*
X185811928Y-97850000D01*
X185811928Y-99304999D01*
X185088072Y-99304999D01*
X185088072Y-97850000D01*
X185075812Y-97725518D01*
X185039502Y-97605820D01*
X184980537Y-97495506D01*
X184901185Y-97398815D01*
X184804494Y-97319463D01*
X184694180Y-97260498D01*
X184574482Y-97224188D01*
X184450000Y-97211928D01*
X182750000Y-97211928D01*
X182625518Y-97224188D01*
X182505820Y-97260498D01*
X182395506Y-97319463D01*
X182298815Y-97398815D01*
X182219463Y-97495506D01*
X182160498Y-97605820D01*
X182124188Y-97725518D01*
X182111928Y-97850000D01*
X182111928Y-99304999D01*
X171972323Y-99304999D01*
X171935000Y-99301323D01*
X171897677Y-99304999D01*
X171897668Y-99304999D01*
X171786015Y-99315996D01*
X171677204Y-99349003D01*
X171642754Y-99359453D01*
X171510724Y-99430025D01*
X171427084Y-99498667D01*
X171395000Y-99524998D01*
X171371202Y-99553997D01*
X170860198Y-100065001D01*
X141076213Y-100065001D01*
X139110010Y-98098799D01*
X139110010Y-94347343D01*
X139113687Y-94310010D01*
X139099013Y-94161024D01*
X139055556Y-94017763D01*
X138984984Y-93885734D01*
X138913809Y-93799007D01*
X138890011Y-93770009D01*
X138861013Y-93746211D01*
X137841209Y-92726408D01*
X137885000Y-92506260D01*
X137885000Y-92213740D01*
X137827932Y-91926842D01*
X137715990Y-91656589D01*
X137553475Y-91413368D01*
X137346632Y-91206525D01*
X137172240Y-91090000D01*
X137346632Y-90973475D01*
X137553475Y-90766632D01*
X137715990Y-90523411D01*
X137827932Y-90253158D01*
X137885000Y-89966260D01*
X137885000Y-89673740D01*
X137827932Y-89386842D01*
X137715990Y-89116589D01*
X137553475Y-88873368D01*
X137346632Y-88666525D01*
X137172240Y-88550000D01*
X137346632Y-88433475D01*
X137553475Y-88226632D01*
X137715990Y-87983411D01*
X137827932Y-87713158D01*
X137885000Y-87426260D01*
X137885000Y-87133740D01*
X137827932Y-86846842D01*
X137715990Y-86576589D01*
X137553475Y-86333368D01*
X137346632Y-86126525D01*
X137164466Y-86004805D01*
X137281355Y-85935178D01*
X137497588Y-85740269D01*
X137671641Y-85506920D01*
X137796825Y-85244099D01*
X137841476Y-85096890D01*
X137720155Y-84867000D01*
X136527000Y-84867000D01*
X136527000Y-84887000D01*
X136273000Y-84887000D01*
X136273000Y-84867000D01*
X136253000Y-84867000D01*
X136253000Y-84613000D01*
X136273000Y-84613000D01*
X136273000Y-84593000D01*
X136527000Y-84593000D01*
X136527000Y-84613000D01*
X137720155Y-84613000D01*
X137841476Y-84383110D01*
X137796825Y-84235901D01*
X137671641Y-83973080D01*
X137497588Y-83739731D01*
X137413534Y-83663966D01*
X137494180Y-83639502D01*
X137604494Y-83580537D01*
X137701185Y-83501185D01*
X137780537Y-83404494D01*
X137839502Y-83294180D01*
X137875812Y-83174482D01*
X137888072Y-83050000D01*
X137888072Y-81350000D01*
X137875812Y-81225518D01*
X137839502Y-81105820D01*
X137780537Y-80995506D01*
X137701185Y-80898815D01*
X137604494Y-80819463D01*
X137494180Y-80760498D01*
X137374482Y-80724188D01*
X137250000Y-80711928D01*
X135660000Y-80711928D01*
X135660000Y-75740006D01*
X135660920Y-75740926D01*
X136133440Y-76056654D01*
X136658477Y-76274131D01*
X137215852Y-76385000D01*
X137784148Y-76385000D01*
X138341523Y-76274131D01*
X138866560Y-76056654D01*
X139339080Y-75740926D01*
X139740926Y-75339080D01*
X139840001Y-75190804D01*
X139840000Y-94967581D01*
G37*
%TD.AperFunction*%
D17*
X193767000Y-104933000D02*
X193787000Y-104933000D01*
X193787000Y-105187000D01*
X193767000Y-105187000D01*
X193767000Y-105207000D01*
X193513000Y-105207000D01*
X193513000Y-105187000D01*
X193493000Y-105187000D01*
X193493000Y-104933000D01*
X193513000Y-104933000D01*
X193513000Y-104913000D01*
X193767000Y-104913000D01*
X193767000Y-104933000D01*
%TA.AperFunction,Conductor*%
D18*
G36*
X193767000Y-104933000D02*
G01*
X193787000Y-104933000D01*
X193787000Y-105187000D01*
X193767000Y-105187000D01*
X193767000Y-105207000D01*
X193513000Y-105207000D01*
X193513000Y-105187000D01*
X193493000Y-105187000D01*
X193493000Y-104933000D01*
X193513000Y-104933000D01*
X193513000Y-104913000D01*
X193767000Y-104913000D01*
X193767000Y-104933000D01*
G37*
%TD.AperFunction*%
D17*
X167265198Y-105140000D02*
X163441800Y-105140000D01*
X160536798Y-102234999D01*
X164360198Y-102234999D01*
X167265198Y-105140000D01*
%TA.AperFunction,Conductor*%
D18*
G36*
X167265198Y-105140000D02*
G01*
X163441800Y-105140000D01*
X160536798Y-102234999D01*
X164360198Y-102234999D01*
X167265198Y-105140000D01*
G37*
%TD.AperFunction*%
D17*
X182115000Y-101093740D02*
X182115000Y-101386260D01*
X182172068Y-101673158D01*
X182284010Y-101943411D01*
X182446525Y-102186632D01*
X182653368Y-102393475D01*
X182827760Y-102510000D01*
X182653368Y-102626525D01*
X182446525Y-102833368D01*
X182284010Y-103076589D01*
X182172068Y-103346842D01*
X182115000Y-103633740D01*
X182115000Y-103926260D01*
X182168456Y-104195001D01*
X168469803Y-104195001D01*
X165859802Y-101585001D01*
X171137677Y-101585001D01*
X171174999Y-101588677D01*
X171212321Y-101585001D01*
X171212332Y-101585001D01*
X171323985Y-101574004D01*
X171467246Y-101530547D01*
X171599275Y-101459975D01*
X171715000Y-101365002D01*
X171738802Y-101335999D01*
X172249803Y-100824999D01*
X182168456Y-100824999D01*
X182115000Y-101093740D01*
%TA.AperFunction,Conductor*%
D18*
G36*
X182115000Y-101093740D02*
G01*
X182115000Y-101386260D01*
X182172068Y-101673158D01*
X182284010Y-101943411D01*
X182446525Y-102186632D01*
X182653368Y-102393475D01*
X182827760Y-102510000D01*
X182653368Y-102626525D01*
X182446525Y-102833368D01*
X182284010Y-103076589D01*
X182172068Y-103346842D01*
X182115000Y-103633740D01*
X182115000Y-103926260D01*
X182168456Y-104195001D01*
X168469803Y-104195001D01*
X165859802Y-101585001D01*
X171137677Y-101585001D01*
X171174999Y-101588677D01*
X171212321Y-101585001D01*
X171212332Y-101585001D01*
X171323985Y-101574004D01*
X171467246Y-101530547D01*
X171599275Y-101459975D01*
X171715000Y-101365002D01*
X171738802Y-101335999D01*
X172249803Y-100824999D01*
X182168456Y-100824999D01*
X182115000Y-101093740D01*
G37*
%TD.AperFunction*%
D17*
X193767000Y-97313000D02*
X193787000Y-97313000D01*
X193787000Y-97567000D01*
X193767000Y-97567000D01*
X193767000Y-97587000D01*
X193513000Y-97587000D01*
X193513000Y-97567000D01*
X193493000Y-97567000D01*
X193493000Y-97313000D01*
X193513000Y-97313000D01*
X193513000Y-97293000D01*
X193767000Y-97293000D01*
X193767000Y-97313000D01*
%TA.AperFunction,Conductor*%
D18*
G36*
X193767000Y-97313000D02*
G01*
X193787000Y-97313000D01*
X193787000Y-97567000D01*
X193767000Y-97567000D01*
X193767000Y-97587000D01*
X193513000Y-97587000D01*
X193513000Y-97567000D01*
X193493000Y-97567000D01*
X193493000Y-97313000D01*
X193513000Y-97313000D01*
X193513000Y-97293000D01*
X193767000Y-97293000D01*
X193767000Y-97313000D01*
G37*
%TD.AperFunction*%
D17*
X191227000Y-92233000D02*
X191247000Y-92233000D01*
X191247000Y-92487000D01*
X191227000Y-92487000D01*
X191227000Y-92507000D01*
X190973000Y-92507000D01*
X190973000Y-92487000D01*
X190953000Y-92487000D01*
X190953000Y-92233000D01*
X190973000Y-92233000D01*
X190973000Y-92213000D01*
X191227000Y-92213000D01*
X191227000Y-92233000D01*
%TA.AperFunction,Conductor*%
D18*
G36*
X191227000Y-92233000D02*
G01*
X191247000Y-92233000D01*
X191247000Y-92487000D01*
X191227000Y-92487000D01*
X191227000Y-92507000D01*
X190973000Y-92507000D01*
X190973000Y-92487000D01*
X190953000Y-92487000D01*
X190953000Y-92233000D01*
X190973000Y-92233000D01*
X190973000Y-92213000D01*
X191227000Y-92213000D01*
X191227000Y-92233000D01*
G37*
%TD.AperFunction*%
D17*
X193767000Y-87153000D02*
X193787000Y-87153000D01*
X193787000Y-87407000D01*
X193767000Y-87407000D01*
X193767000Y-87427000D01*
X193513000Y-87427000D01*
X193513000Y-87407000D01*
X193493000Y-87407000D01*
X193493000Y-87153000D01*
X193513000Y-87153000D01*
X193513000Y-87133000D01*
X193767000Y-87133000D01*
X193767000Y-87153000D01*
%TA.AperFunction,Conductor*%
D18*
G36*
X193767000Y-87153000D02*
G01*
X193787000Y-87153000D01*
X193787000Y-87407000D01*
X193767000Y-87407000D01*
X193767000Y-87427000D01*
X193513000Y-87427000D01*
X193513000Y-87407000D01*
X193493000Y-87407000D01*
X193493000Y-87153000D01*
X193513000Y-87153000D01*
X193513000Y-87133000D01*
X193767000Y-87133000D01*
X193767000Y-87153000D01*
G37*
%TD.AperFunction*%
%TD*%
M02*
